<svg width="266" height="76" viewBox="0 0 266 76" fill="none" xmlns="http://www.w3.org/2000/svg">
<path d="M61.1 58.7001V74.4001H6.6V71.4001V62.0001L32.8 37.5001C35.3333 35.1001 37.0333 33.0668 37.9 31.4001C38.7667 29.6668 39.2 27.9335 39.2 26.2001C39.2 23.9335 38.4333 22.1668 36.9 20.9001C35.3667 19.6335 33.1333 19.0001 30.2 19.0001C27.6 19.0001 25.2 19.6001 23 20.8001C20.8667 21.9335 19.1 23.6001 17.7 25.8001L3 17.6001C3.20036 17.2678 3.40664 16.9407 3.61882 16.6188C6.30124 12.5491 9.9283 9.30954 14.5 6.90012C19.4333 4.30012 25.2667 3.00012 32 3.00012C37.3333 3.00012 42.0333 3.86679 46.1 5.60012C50.2333 7.33345 53.4333 9.83345 55.7 13.1001C58.0333 16.3001 59.2 20.0335 59.2 24.3001C59.2 28.1001 58.3667 31.7001 56.7 35.1001C55.1 38.4335 51.9667 42.2335 47.3 46.5001L34.1 58.7001H58.1H61.1Z" fill="#153B9D"/>
<path d="M97.6656 75.8001C91.6656 75.8001 86.3323 74.3668 81.6656 71.5001C76.999 68.6335 73.3323 64.4668 70.6656 59.0001C68.0656 53.4668 66.7656 46.9335 66.7656 39.4001C66.7656 31.8668 68.0656 25.3668 70.6656 19.9001C73.3323 14.3668 76.999 10.1668 81.6656 7.30013C86.3323 4.43346 91.6656 3.00012 97.6656 3.00012C103.599 3.00012 108.899 4.43346 113.566 7.30013C118.232 10.1668 121.866 14.3668 124.466 19.9001C127.132 25.3668 128.466 31.8668 128.466 39.4001C128.466 46.9335 127.132 53.4668 124.466 59.0001C121.866 64.4668 118.232 68.6335 113.566 71.5001C108.899 74.3668 103.599 75.8001 97.6656 75.8001ZM97.6656 59.6001C100.999 59.6001 103.632 58.0001 105.566 54.8001C107.566 51.5335 108.566 46.4001 108.566 39.4001C108.566 32.4001 107.566 27.3001 105.566 24.1001C103.632 20.8335 100.999 19.2001 97.6656 19.2001C94.2656 19.2001 91.5656 20.8335 89.5656 24.1001C87.6323 27.3001 86.6656 32.4001 86.6656 39.4001C86.6656 46.4001 87.6323 51.5335 89.5656 54.8001C91.5656 58.0001 94.2656 59.6001 97.6656 59.6001Z" fill="#153B9D"/>
<path d="M166.123 75.8001C160.123 75.8001 154.789 74.3668 150.123 71.5001C145.456 68.6335 141.789 64.4668 139.123 59.0001C136.523 53.4668 135.223 46.9335 135.223 39.4001C135.223 31.8668 136.523 25.3668 139.123 19.9001C141.789 14.3668 145.456 10.1668 150.123 7.30013C154.789 4.43346 160.123 3.00012 166.123 3.00012C172.056 3.00012 177.356 4.43346 182.023 7.30013C186.689 10.1668 190.323 14.3668 192.923 19.9001C195.589 25.3668 196.923 31.8668 196.923 39.4001C196.923 46.9335 195.589 53.4668 192.923 59.0001C190.323 64.4668 186.689 68.6335 182.023 71.5001C177.356 74.3668 172.056 75.8001 166.123 75.8001ZM166.123 59.6001C169.456 59.6001 172.089 58.0001 174.023 54.8001C176.023 51.5335 177.023 46.4001 177.023 39.4001C177.023 32.4001 176.023 27.3001 174.023 24.1001C172.089 20.8335 169.456 19.2001 166.123 19.2001C162.723 19.2001 160.023 20.8335 158.023 24.1001C156.089 27.3001 155.123 32.4001 155.123 39.4001C155.123 46.4001 156.089 51.5335 158.023 54.8001C160.023 58.0001 162.723 59.6001 166.123 59.6001Z" fill="#153B9D"/>
<path d="M234.58 75.8001C228.58 75.8001 223.246 74.3668 218.58 71.5001C213.913 68.6335 210.246 64.4668 207.58 59.0001C204.98 53.4668 203.68 46.9335 203.68 39.4001C203.68 31.8668 204.98 25.3668 207.58 19.9001C210.246 14.3668 213.913 10.1668 218.58 7.30013C223.246 4.43346 228.58 3.00012 234.58 3.00012C240.513 3.00012 245.813 4.43346 250.48 7.30013C255.146 10.1668 258.78 14.3668 261.38 19.9001C264.046 25.3668 265.38 31.8668 265.38 39.4001C265.38 46.9335 264.046 53.4668 261.38 59.0001C258.78 64.4668 255.146 68.6335 250.48 71.5001C245.813 74.3668 240.513 75.8001 234.58 75.8001ZM234.58 59.6001C237.913 59.6001 240.546 58.0001 242.48 54.8001C244.48 51.5335 245.48 46.4001 245.48 39.4001C245.48 32.4001 244.48 27.3001 242.48 24.1001C240.546 20.8335 237.913 19.2001 234.58 19.2001C231.18 19.2001 228.48 20.8335 226.48 24.1001C224.546 27.3001 223.58 32.4001 223.58 39.4001C223.58 46.4001 224.546 51.5335 226.48 54.8001C228.48 58.0001 231.18 59.6001 234.58 59.6001Z" fill="#153B9D"/>
<path d="M58.1 55.7001V58.7001V71.4001H6.6H3.6V59.0001L29.8 34.5001C32.3333 32.1001 34.0333 30.0668 34.9 28.4001C35.7667 26.6668 36.2 24.9335 36.2 23.2001C36.2 20.9335 35.4333 19.1668 33.9 17.9001C32.3667 16.6335 30.1333 16.0001 27.2 16.0001C24.6 16.0001 22.2 16.6001 20 17.8001C17.8667 18.9335 16.1 20.6001 14.7 22.8001L3.61882 16.6188L0 14.6001C2.73333 10.0668 6.56667 6.50012 11.5 3.90013C16.4333 1.30012 22.2667 0.00012207 29 0.00012207C34.3333 0.00012207 39.0333 0.866789 43.1 2.60012C47.2333 4.33346 50.4333 6.83346 52.7 10.1001C55.0333 13.3001 56.2 17.0335 56.2 21.3001C56.2 25.1001 55.3667 28.7001 53.7 32.1001C52.1 35.4335 48.9667 39.2335 44.3 43.5001L31.1 55.7001H58.1Z" fill="#153B9D"/>
<path d="M94.6656 72.8001C88.6656 72.8001 83.3323 71.3668 78.6656 68.5001C73.999 65.6335 70.3323 61.4668 67.6656 56.0001C65.0656 50.4668 63.7656 43.9335 63.7656 36.4001C63.7656 28.8668 65.0656 22.3668 67.6656 16.9001C70.3323 11.3668 73.999 7.16679 78.6656 4.30013C83.3323 1.43346 88.6656 0.00012207 94.6656 0.00012207C100.599 0.00012207 105.899 1.43346 110.566 4.30013C115.232 7.16679 118.866 11.3668 121.466 16.9001C124.132 22.3668 125.466 28.8668 125.466 36.4001C125.466 43.9335 124.132 50.4668 121.466 56.0001C118.866 61.4668 115.232 65.6335 110.566 68.5001C105.899 71.3668 100.599 72.8001 94.6656 72.8001ZM94.6656 56.6001C97.999 56.6001 100.632 55.0001 102.566 51.8001C104.566 48.5335 105.566 43.4001 105.566 36.4001C105.566 29.4001 104.566 24.3001 102.566 21.1001C100.632 17.8335 97.999 16.2001 94.6656 16.2001C91.2656 16.2001 88.5656 17.8335 86.5656 21.1001C84.6323 24.3001 83.6656 29.4001 83.6656 36.4001C83.6656 43.4001 84.6323 48.5335 86.5656 51.8001C88.5656 55.0001 91.2656 56.6001 94.6656 56.6001Z" fill="#153B9D"/>
<path d="M163.123 72.8001C157.123 72.8001 151.789 71.3668 147.123 68.5001C142.456 65.6335 138.789 61.4668 136.123 56.0001C133.523 50.4668 132.223 43.9335 132.223 36.4001C132.223 28.8668 133.523 22.3668 136.123 16.9001C138.789 11.3668 142.456 7.16679 147.123 4.30013C151.789 1.43346 157.123 0.00012207 163.123 0.00012207C169.056 0.00012207 174.356 1.43346 179.023 4.30013C183.689 7.16679 187.323 11.3668 189.923 16.9001C192.589 22.3668 193.923 28.8668 193.923 36.4001C193.923 43.9335 192.589 50.4668 189.923 56.0001C187.323 61.4668 183.689 65.6335 179.023 68.5001C174.356 71.3668 169.056 72.8001 163.123 72.8001ZM163.123 56.6001C166.456 56.6001 169.089 55.0001 171.023 51.8001C173.023 48.5335 174.023 43.4001 174.023 36.4001C174.023 29.4001 173.023 24.3001 171.023 21.1001C169.089 17.8335 166.456 16.2001 163.123 16.2001C159.723 16.2001 157.023 17.8335 155.023 21.1001C153.089 24.3001 152.123 29.4001 152.123 36.4001C152.123 43.4001 153.089 48.5335 155.023 51.8001C157.023 55.0001 159.723 56.6001 163.123 56.6001Z" fill="#153B9D"/>
<path d="M231.58 72.8001C225.58 72.8001 220.246 71.3668 215.58 68.5001C210.913 65.6335 207.246 61.4668 204.58 56.0001C201.98 50.4668 200.68 43.9335 200.68 36.4001C200.68 28.8668 201.98 22.3668 204.58 16.9001C207.246 11.3668 210.913 7.16679 215.58 4.30013C220.246 1.43346 225.58 0.00012207 231.58 0.00012207C237.513 0.00012207 242.813 1.43346 247.48 4.30013C252.146 7.16679 255.78 11.3668 258.38 16.9001C261.046 22.3668 262.38 28.8668 262.38 36.4001C262.38 43.9335 261.046 50.4668 258.38 56.0001C255.78 61.4668 252.146 65.6335 247.48 68.5001C242.813 71.3668 237.513 72.8001 231.58 72.8001ZM231.58 56.6001C234.913 56.6001 237.546 55.0001 239.48 51.8001C241.48 48.5335 242.48 43.4001 242.48 36.4001C242.48 29.4001 241.48 24.3001 239.48 21.1001C237.546 17.8335 234.913 16.2001 231.58 16.2001C228.18 16.2001 225.48 17.8335 223.48 21.1001C221.546 24.3001 220.58 29.4001 220.58 36.4001C220.58 43.4001 221.546 48.5335 223.48 51.8001C225.48 55.0001 228.18 56.6001 231.58 56.6001Z" fill="#153B9D"/>
<path d="M58.1 58.7001H61.1L58.1 55.7001V58.7001Z" fill="#153B9D"/>
<path d="M6.6 74.4001V71.4001H3.6L6.6 74.4001Z" fill="#153B9D"/>
<path d="M3 17.6001C3.20036 17.2678 3.40664 16.9407 3.61882 16.6188L0 14.6001L3 17.6001Z" fill="#153B9D"/>
<path d="M58.1 55.7V71.4H3.6V59L29.8 34.5C32.3333 32.1 34.0333 30.0667 34.9 28.4C35.7667 26.6667 36.2 24.9333 36.2 23.2C36.2 20.9333 35.4333 19.1667 33.9 17.9C32.3667 16.6333 30.1333 16 27.2 16C24.6 16 22.2 16.6 20 17.8C17.8667 18.9333 16.1 20.6 14.7 22.8L0 14.6C2.73333 10.0667 6.56667 6.5 11.5 3.9C16.4333 1.3 22.2667 0 29 0C34.3333 0 39.0333 0.866667 43.1 2.6C47.2333 4.33333 50.4333 6.83333 52.7 10.1C55.0333 13.3 56.2 17.0333 56.2 21.3C56.2 25.1 55.3667 28.7 53.7 32.1C52.1 35.4333 48.9667 39.2333 44.3 43.5L31.1 55.7H58.1Z" fill="#2F69FF"/>
<path d="M94.6656 72.8C88.6656 72.8 83.3323 71.3667 78.6656 68.5C73.999 65.6333 70.3323 61.4667 67.6656 56C65.0656 50.4667 63.7656 43.9333 63.7656 36.4C63.7656 28.8667 65.0656 22.3667 67.6656 16.9C70.3323 11.3667 73.999 7.16667 78.6656 4.3C83.3323 1.43333 88.6656 0 94.6656 0C100.599 0 105.899 1.43333 110.566 4.3C115.232 7.16667 118.866 11.3667 121.466 16.9C124.132 22.3667 125.466 28.8667 125.466 36.4C125.466 43.9333 124.132 50.4667 121.466 56C118.866 61.4667 115.232 65.6333 110.566 68.5C105.899 71.3667 100.599 72.8 94.6656 72.8ZM94.6656 56.6C97.999 56.6 100.632 55 102.566 51.8C104.566 48.5333 105.566 43.4 105.566 36.4C105.566 29.4 104.566 24.3 102.566 21.1C100.632 17.8333 97.999 16.2 94.6656 16.2C91.2656 16.2 88.5656 17.8333 86.5656 21.1C84.6323 24.3 83.6656 29.4 83.6656 36.4C83.6656 43.4 84.6323 48.5333 86.5656 51.8C88.5656 55 91.2656 56.6 94.6656 56.6Z" fill="#2F69FF"/>
<path d="M163.123 72.8C157.123 72.8 151.789 71.3667 147.123 68.5C142.456 65.6333 138.789 61.4667 136.123 56C133.523 50.4667 132.223 43.9333 132.223 36.4C132.223 28.8667 133.523 22.3667 136.123 16.9C138.789 11.3667 142.456 7.16667 147.123 4.3C151.789 1.43333 157.123 0 163.123 0C169.056 0 174.356 1.43333 179.023 4.3C183.689 7.16667 187.323 11.3667 189.923 16.9C192.589 22.3667 193.923 28.8667 193.923 36.4C193.923 43.9333 192.589 50.4667 189.923 56C187.323 61.4667 183.689 65.6333 179.023 68.5C174.356 71.3667 169.056 72.8 163.123 72.8ZM163.123 56.6C166.456 56.6 169.089 55 171.023 51.8C173.023 48.5333 174.023 43.4 174.023 36.4C174.023 29.4 173.023 24.3 171.023 21.1C169.089 17.8333 166.456 16.2 163.123 16.2C159.723 16.2 157.023 17.8333 155.023 21.1C153.089 24.3 152.123 29.4 152.123 36.4C152.123 43.4 153.089 48.5333 155.023 51.8C157.023 55 159.723 56.6 163.123 56.6Z" fill="#2F69FF"/>
<path d="M231.58 72.8C225.58 72.8 220.246 71.3667 215.58 68.5C210.913 65.6333 207.246 61.4667 204.58 56C201.98 50.4667 200.68 43.9333 200.68 36.4C200.68 28.8667 201.98 22.3667 204.58 16.9C207.246 11.3667 210.913 7.16667 215.58 4.3C220.246 1.43333 225.58 0 231.58 0C237.513 0 242.813 1.43333 247.48 4.3C252.146 7.16667 255.78 11.3667 258.38 16.9C261.046 22.3667 262.38 28.8667 262.38 36.4C262.38 43.9333 261.046 50.4667 258.38 56C255.78 61.4667 252.146 65.6333 247.48 68.5C242.813 71.3667 237.513 72.8 231.58 72.8ZM231.58 56.6C234.913 56.6 237.546 55 239.48 51.8C241.48 48.5333 242.48 43.4 242.48 36.4C242.48 29.4 241.48 24.3 239.48 21.1C237.546 17.8333 234.913 16.2 231.58 16.2C228.18 16.2 225.48 17.8333 223.48 21.1C221.546 24.3 220.58 29.4 220.58 36.4C220.58 43.4 221.546 48.5333 223.48 51.8C225.48 55 228.18 56.6 231.58 56.6Z" fill="#2F69FF"/>
</svg>
