<svg width="201" height="76" viewBox="0 0 201 76" fill="none" xmlns="http://www.w3.org/2000/svg">
<path d="M61.1 58.7001V74.4001H6.6V71.4001V62.0001L32.8 37.5001C35.3333 35.1001 37.0333 33.0668 37.9 31.4001C38.7667 29.6668 39.2 27.9335 39.2 26.2001C39.2 23.9335 38.4333 22.1668 36.9 20.9001C35.3667 19.6335 33.1333 19.0001 30.2 19.0001C27.6 19.0001 25.2 19.6001 23 20.8001C20.8667 21.9335 19.1 23.6001 17.7 25.8001L3 17.6001C3.20036 17.2678 3.40664 16.9407 3.61882 16.6188C6.30124 12.5491 9.9283 9.30954 14.5 6.90012C19.4333 4.30012 25.2667 3.00012 32 3.00012C37.3333 3.00012 42.0333 3.86679 46.1 5.60012C50.2333 7.33345 53.4333 9.83345 55.7 13.1001C58.0333 16.3001 59.2 20.0335 59.2 24.3001C59.2 28.1001 58.3667 31.7001 56.7 35.1001C55.1 38.4335 51.9667 42.2335 47.3 46.5001L34.1 58.7001H58.1H61.1Z" fill="#153B9D"/>
<path d="M97.6656 75.8001C91.6656 75.8001 86.3323 74.3668 81.6656 71.5001C76.999 68.6335 73.3323 64.4668 70.6656 59.0001C68.0656 53.4668 66.7656 46.9335 66.7656 39.4001C66.7656 31.8668 68.0656 25.3668 70.6656 19.9001C73.3323 14.3668 76.999 10.1668 81.6656 7.30013C86.3323 4.43346 91.6656 3.00012 97.6656 3.00012C103.599 3.00012 108.899 4.43346 113.566 7.30013C118.232 10.1668 121.866 14.3668 124.466 19.9001C127.132 25.3668 128.466 31.8668 128.466 39.4001C128.466 46.9335 127.132 53.4668 124.466 59.0001C121.866 64.4668 118.232 68.6335 113.566 71.5001C108.899 74.3668 103.599 75.8001 97.6656 75.8001ZM97.6656 59.6001C100.999 59.6001 103.632 58.0001 105.566 54.8001C107.566 51.5335 108.566 46.4001 108.566 39.4001C108.566 32.4001 107.566 27.3001 105.566 24.1001C103.632 20.8335 100.999 19.2001 97.6656 19.2001C94.2656 19.2001 91.5656 20.8335 89.5656 24.1001C87.6323 27.3001 86.6656 32.4001 86.6656 39.4001C86.6656 46.4001 87.6323 51.5335 89.5656 54.8001C91.5656 58.0001 94.2656 59.6001 97.6656 59.6001Z" fill="#153B9D"/>
<path d="M58.1 55.7001V58.7001V71.4001H6.6H3.6V59.0001L29.8 34.5001C32.3333 32.1001 34.0333 30.0668 34.9 28.4001C35.7667 26.6668 36.2 24.9335 36.2 23.2001C36.2 20.9335 35.4333 19.1668 33.9 17.9001C32.3667 16.6335 30.1333 16.0001 27.2 16.0001C24.6 16.0001 22.2 16.6001 20 17.8001C17.8667 18.9335 16.1 20.6001 14.7 22.8001L3.61882 16.6188L0 14.6001C2.73333 10.0668 6.56667 6.50012 11.5 3.90013C16.4333 1.30012 22.2667 0.00012207 29 0.00012207C34.3333 0.00012207 39.0333 0.866789 43.1 2.60012C47.2333 4.33346 50.4333 6.83346 52.7 10.1001C55.0333 13.3001 56.2 17.0335 56.2 21.3001C56.2 25.1001 55.3667 28.7001 53.7 32.1001C52.1 35.4335 48.9667 39.2335 44.3 43.5001L31.1 55.7001H58.1Z" fill="#153B9D"/>
<path d="M94.6656 72.8001C88.6656 72.8001 83.3323 71.3668 78.6656 68.5001C73.999 65.6335 70.3323 61.4668 67.6656 56.0001C65.0656 50.4668 63.7656 43.9335 63.7656 36.4001C63.7656 28.8668 65.0656 22.3668 67.6656 16.9001C70.3323 11.3668 73.999 7.16679 78.6656 4.30013C83.3323 1.43346 88.6656 0.00012207 94.6656 0.00012207C100.599 0.00012207 105.899 1.43346 110.566 4.30013C115.232 7.16679 118.866 11.3668 121.466 16.9001C124.132 22.3668 125.466 28.8668 125.466 36.4001C125.466 43.9335 124.132 50.4668 121.466 56.0001C118.866 61.4668 115.232 65.6335 110.566 68.5001C105.899 71.3668 100.599 72.8001 94.6656 72.8001ZM94.6656 56.6001C97.999 56.6001 100.632 55.0001 102.566 51.8001C104.566 48.5335 105.566 43.4001 105.566 36.4001C105.566 29.4001 104.566 24.3001 102.566 21.1001C100.632 17.8335 97.999 16.2001 94.6656 16.2001C91.2656 16.2001 88.5656 17.8335 86.5656 21.1001C84.6323 24.3001 83.6656 29.4001 83.6656 36.4001C83.6656 43.4001 84.6323 48.5335 86.5656 51.8001C88.5656 55.0001 91.2656 56.6001 94.6656 56.6001Z" fill="#153B9D"/>
<path d="M58.1 58.7001H61.1L58.1 55.7001V58.7001Z" fill="#153B9D"/>
<path d="M6.6 74.4001V71.4001H3.6L6.6 74.4001Z" fill="#153B9D"/>
<path d="M3 17.6001C3.20036 17.2678 3.40664 16.9407 3.61882 16.6188L0 14.6001L3 17.6001Z" fill="#153B9D"/>
<path d="M58.1 55.7V71.4H3.6V59L29.8 34.5C32.3333 32.1 34.0333 30.0667 34.9 28.4C35.7667 26.6667 36.2 24.9333 36.2 23.2C36.2 20.9333 35.4333 19.1667 33.9 17.9C32.3667 16.6333 30.1333 16 27.2 16C24.6 16 22.2 16.6 20 17.8C17.8667 18.9333 16.1 20.6 14.7 22.8L0 14.6C2.73333 10.0667 6.56667 6.5 11.5 3.9C16.4333 1.3 22.2667 0 29 0C34.3333 0 39.0333 0.866667 43.1 2.6C47.2333 4.33333 50.4333 6.83333 52.7 10.1C55.0333 13.3 56.2 17.0333 56.2 21.3C56.2 25.1 55.3667 28.7 53.7 32.1C52.1 35.4333 48.9667 39.2333 44.3 43.5L31.1 55.7H58.1Z" fill="#2F69FF"/>
<path d="M94.6656 72.8C88.6656 72.8 83.3323 71.3667 78.6656 68.5C73.999 65.6333 70.3323 61.4667 67.6656 56C65.0656 50.4667 63.7656 43.9333 63.7656 36.4C63.7656 28.8667 65.0656 22.3667 67.6656 16.9C70.3323 11.3667 73.999 7.16667 78.6656 4.3C83.3323 1.43333 88.6656 0 94.6656 0C100.599 0 105.899 1.43333 110.566 4.3C115.232 7.16667 118.866 11.3667 121.466 16.9C124.132 22.3667 125.466 28.8667 125.466 36.4C125.466 43.9333 124.132 50.4667 121.466 56C118.866 61.4667 115.232 65.6333 110.566 68.5C105.899 71.3667 100.599 72.8 94.6656 72.8ZM94.6656 56.6C97.999 56.6 100.632 55 102.566 51.8C104.566 48.5333 105.566 43.4 105.566 36.4C105.566 29.4 104.566 24.3 102.566 21.1C100.632 17.8333 97.999 16.2 94.6656 16.2C91.2656 16.2 88.5656 17.8333 86.5656 21.1C84.6323 24.3 83.6656 29.4 83.6656 36.4C83.6656 43.4 84.6323 48.5333 86.5656 51.8C88.5656 55 91.2656 56.6 94.6656 56.6Z" fill="#2F69FF"/>
<path d="M200.3 48.6999H183.4V65.1999H168V63.1999V48.6999H166H151V46.6999V34.0999H168V17.5999H181.4H183.4V34.0999H198.3H200.3V48.6999Z" fill="#153B9D"/>
<path d="M151 46.6999H149L151 48.6999V46.6999Z" fill="#153B9D"/>
<path fill-rule="evenodd" clip-rule="evenodd" d="M181.4 46.6999H198.3V34.0999V32.0999H181.4V17.5999V15.5999H166V32.0999H149V46.6999H151H166V48.6999H168V63.1999H181.4V46.6999Z" fill="#153B9D"/>
<path d="M198.3 32.0999V34.0999H200.3L198.3 32.0999Z" fill="#153B9D"/>
<path d="M181.4 15.5999V17.5999H183.4L181.4 15.5999Z" fill="#153B9D"/>
<path d="M166 63.1999L168 65.1999V63.1999H166Z" fill="#153B9D"/>
<path d="M198.3 46.6999H181.4V63.1999H166V46.6999H149V32.0999H166V15.5999H181.4V32.0999H198.3V46.6999Z" fill="#2F69FF"/>
</svg>
