<svg width="238" height="98" viewBox="0 0 238 98" fill="none" xmlns="http://www.w3.org/2000/svg">
<path d="M58.6894 68.8999V71.8999V84.5999H7.18936H4.18936V72.1999L30.3894 47.6999C32.9227 45.2999 34.6227 43.2666 35.4894 41.5999C36.356 39.8666 36.7894 38.1332 36.7894 36.3999C36.7894 34.1332 36.0227 32.3666 34.4894 31.0999C32.956 29.8332 30.7227 29.1999 27.7894 29.1999C25.1894 29.1999 22.7894 29.7999 20.5894 30.9999C18.456 32.1332 16.6894 33.7999 15.2894 35.9999L4.20817 29.8186L0.589355 27.7999C3.32269 23.2666 7.15602 19.6999 12.0894 17.0999C17.0227 14.4999 22.856 13.1999 29.5894 13.1999C34.9227 13.1999 39.6227 14.0666 43.6894 15.7999C47.8227 17.5332 51.0227 20.0332 53.2894 23.2999C55.6227 26.4999 56.7894 30.2332 56.7894 34.4999C56.7894 38.2999 55.956 41.8999 54.2894 45.2999C52.6894 48.6332 49.556 52.4332 44.8894 56.6999L31.6894 68.8999H58.6894Z" fill="#153B9D"/>
<path d="M129.964 71.1999H119.564V84.5999H103.264H100.264V71.1999H66.2644H63.2644V58.2999L94.6644 14.5999H115.164L113.074 17.5999L86.6644 55.4999H100.864V43.5999H119.564V46.5999V55.4999H129.964V58.4999V71.1999Z" fill="#153B9D"/>
<path d="M162.13 0.399902H179.03L177.979 3.3999L146.03 94.5999H133.181H129.13L162.13 0.399902Z" fill="#153B9D"/>
<path d="M234.927 14.5999V17.5999V26.9999L210.227 84.5999H192.931H188.627L212.227 30.2999H193.827V41.0999H179.927H176.927V14.5999H234.927Z" fill="#153B9D"/>
<path d="M61.6894 71.8999V87.5999H7.18936V84.5999V75.1999L33.3894 50.6999C35.9227 48.2999 37.6227 46.2666 38.4894 44.5999C39.356 42.8666 39.7894 41.1332 39.7894 39.3999C39.7894 37.1332 39.0227 35.3666 37.4894 34.0999C35.956 32.8332 33.7227 32.1999 30.7894 32.1999C28.1894 32.1999 25.7894 32.7999 23.5894 33.9999C21.456 35.1332 19.6894 36.7999 18.2894 38.9999L3.58936 30.7999C3.78972 30.4676 3.99599 30.1405 4.20817 29.8186C6.89059 25.7489 10.5177 22.5093 15.0894 20.0999C20.0227 17.4999 25.856 16.1999 32.5894 16.1999C37.9227 16.1999 42.6227 17.0666 46.6894 18.7999C50.8227 20.5332 54.0227 23.0332 56.2894 26.2999C58.6227 29.4999 59.7894 33.2332 59.7894 37.4999C59.7894 41.2999 58.956 44.8999 57.2894 48.2999C55.6894 51.6332 52.556 55.4332 47.8894 59.6999L34.6894 71.8999H58.6894H61.6894Z" fill="#153B9D"/>
<path d="M132.964 74.1999H122.564V87.5999H103.264V84.5999V74.1999H66.2644V71.1999V61.2999L97.6644 17.5999H113.074H118.164L89.6644 58.4999H103.864V46.5999H119.564H122.564V58.4999H129.964H132.964V74.1999Z" fill="#153B9D"/>
<path d="M165.13 3.3999H177.979H182.03L149.03 97.5999H132.13L133.181 94.5999L165.13 3.3999Z" fill="#153B9D"/>
<path d="M237.927 17.5999V29.9999L213.227 87.5999H191.627L192.931 84.5999L215.227 33.2999H196.827V44.0999H179.927V41.0999V17.5999H234.927H237.927Z" fill="#153B9D"/>
<path d="M58.6894 68.8999V71.8999H61.6894L58.6894 68.8999Z" fill="#153B9D"/>
<path d="M7.18936 84.5999H4.18936L7.18936 87.5999V84.5999Z" fill="#153B9D"/>
<path d="M4.20817 29.8186L0.589355 27.7999L3.58936 30.7999C3.78972 30.4676 3.99599 30.1405 4.20817 29.8186Z" fill="#153B9D"/>
<path d="M115.164 14.5999L113.074 17.5999H118.164L115.164 14.5999Z" fill="#153B9D"/>
<path d="M66.2644 71.1999H63.2644L66.2644 74.1999V71.1999Z" fill="#153B9D"/>
<path d="M119.564 43.5999V46.5999H122.564L119.564 43.5999Z" fill="#153B9D"/>
<path d="M103.264 84.5999H100.264L103.264 87.5999V84.5999Z" fill="#153B9D"/>
<path d="M129.964 55.4999V58.4999H132.964L129.964 55.4999Z" fill="#153B9D"/>
<path d="M133.181 94.5999H129.13L132.13 97.5999L133.181 94.5999Z" fill="#153B9D"/>
<path d="M179.03 0.399902L177.979 3.3999H182.03L179.03 0.399902Z" fill="#153B9D"/>
<path d="M234.927 14.5999V17.5999H237.927L234.927 14.5999Z" fill="#153B9D"/>
<path d="M179.927 41.0999H176.927L179.927 44.0999V41.0999Z" fill="#153B9D"/>
<path d="M192.931 84.5999H188.627L191.627 87.5999L192.931 84.5999Z" fill="#153B9D"/>
<path d="M58.6894 68.8999V84.5999H4.18936V72.1999L30.3894 47.6999C32.9227 45.2999 34.6227 43.2666 35.4894 41.5999C36.356 39.8666 36.7894 38.1332 36.7894 36.3999C36.7894 34.1332 36.0227 32.3666 34.4894 31.0999C32.956 29.8332 30.7227 29.1999 27.7894 29.1999C25.1894 29.1999 22.7894 29.7999 20.5894 30.9999C18.456 32.1332 16.6894 33.7999 15.2894 35.9999L0.589355 27.7999C3.32269 23.2666 7.15602 19.6999 12.0894 17.0999C17.0227 14.4999 22.856 13.1999 29.5894 13.1999C34.9227 13.1999 39.6227 14.0666 43.6894 15.7999C47.8227 17.5332 51.0227 20.0332 53.2894 23.2999C55.6227 26.4999 56.7894 30.2332 56.7894 34.4999C56.7894 38.2999 55.956 41.8999 54.2894 45.2999C52.6894 48.6332 49.556 52.4332 44.8894 56.6999L31.6894 68.8999H58.6894Z" fill="#2F69FF"/>
<path d="M129.964 71.1999H119.564V84.5999H100.264V71.1999H63.2644V58.2999L94.6644 14.5999H115.164L86.6644 55.4999H100.864V43.5999H119.564V55.4999H129.964V71.1999Z" fill="#2F69FF"/>
<path d="M162.13 0.399902H179.03L146.03 94.5999H129.13L162.13 0.399902Z" fill="#2F69FF"/>
<path d="M234.927 14.5999V26.9999L210.227 84.5999H188.627L212.227 30.2999H193.827V41.0999H176.927V14.5999H234.927Z" fill="#2F69FF"/>
</svg>
