<svg width="18" height="20" viewBox="0 0 18 20" fill="none" xmlns="http://www.w3.org/2000/svg">
<path d="M12.5 6.5H5.5V5.5H12.5V6.5Z" fill="#23234E"/>
<path fill-rule="evenodd" clip-rule="evenodd" d="M17.5 15.5H3C2.60218 15.5 2.22065 15.658 1.93934 15.9393C1.65804 16.2206 1.5 16.6022 1.5 17C1.5 17.3978 1.65804 17.7794 1.93934 18.0607C2.22065 18.342 2.60218 18.5 3 18.5H17.5V19.5H3C2.33696 19.5 1.70107 19.2366 1.23223 18.7678C0.763392 18.2989 0.5 17.663 0.5 17V2C0.5 1.60218 0.658035 1.22064 0.93934 0.93934C1.22064 0.658035 1.60218 0.5 2 0.5H17.5V15.5ZM1.5 14.6621L2.0998 14.5399C2.22872 14.5137 2.36228 14.5 2.5 14.5H16.5V1.5H1.5V14.6621Z" fill="#23234E"/>
</svg>
