<svg width="208" height="235" viewBox="0 0 208 235" fill="none" xmlns="http://www.w3.org/2000/svg">
<g filter="url(#filter0_d)">
<path d="M11 72.5C11 70.178 11 69.017 11.1203 68.0414C12.0187 60.7575 17.7575 55.0187 25.0414 54.1203C26.017 54 27.178 54 29.5 54C31.822 54 32.983 54 33.9586 54.1203C41.2425 55.0187 46.9813 60.7575 47.8797 68.0414C48 69.017 48 70.178 48 72.5C48 74.822 48 75.983 47.8797 76.9586C46.9813 84.2425 41.2425 89.9813 33.9586 90.8797C32.983 91 31.822 91 29.5 91C27.178 91 26.017 91 25.0414 90.8797C17.7575 89.9813 12.0187 84.2425 11.1203 76.9586C11 75.983 11 74.822 11 72.5Z" fill="#686C7A"/>
</g>
<path d="M2 68C2 61.4825 2 58.2237 2.93529 55.6098C4.54919 51.0992 8.09924 47.5492 12.6098 45.9353C15.2237 45 18.4825 45 25 45C31.5175 45 34.7763 45 37.3902 45.9353C41.9008 47.5492 45.4508 51.0992 47.0647 55.6098C48 58.2237 48 61.4825 48 68C48 74.5175 48 77.7763 47.0647 80.3902C45.4508 84.9008 41.9008 88.4508 37.3902 90.0647C34.7763 91 31.5175 91 25 91C18.4825 91 15.2237 91 12.6098 90.0647C8.09924 88.4508 4.54919 84.9008 2.93529 80.3902C2 77.7763 2 74.5175 2 68Z" fill="#686C7A"/>
<path d="M0 66C0 59.4825 0 56.2237 0.935295 53.6098C2.54919 49.0992 6.09924 45.5492 10.6098 43.9353C13.2237 43 16.4825 43 23 43C29.5175 43 32.7763 43 35.3902 43.9353C39.9008 45.5492 43.4508 49.0992 45.0647 53.6098C46 56.2237 46 59.4825 46 66C46 72.5175 46 75.7763 45.0647 78.3902C43.4508 82.9008 39.9008 86.4508 35.3902 88.0647C32.7763 89 29.5175 89 23 89C16.4825 89 13.2237 89 10.6098 88.0647C6.09924 86.4508 2.54919 82.9008 0.935295 78.3902C0 75.7763 0 72.5175 0 66Z" fill="#D4D7E4"/>
<path d="M31 76H29V74C29 73.2044 28.6839 72.4413 28.1213 71.8787C27.5587 71.3161 26.7956 71 26 71H20C19.2044 71 18.4413 71.3161 17.8787 71.8787C17.3161 72.4413 17 73.2044 17 74V76H15V74C15 72.6739 15.5268 71.4021 16.4645 70.4645C17.4021 69.5268 18.6739 69 20 69H26C27.3261 69 28.5979 69.5268 29.5355 70.4645C30.4732 71.4021 31 72.6739 31 74V76ZM23 67C22.2121 67 21.4319 66.8448 20.7039 66.5433C19.9759 66.2417 19.3145 65.7998 18.7574 65.2426C18.2002 64.6855 17.7583 64.0241 17.4567 63.2961C17.1552 62.5681 17 61.7879 17 61C17 60.2121 17.1552 59.4319 17.4567 58.7039C17.7583 57.9759 18.2002 57.3145 18.7574 56.7574C19.3145 56.2002 19.9759 55.7583 20.7039 55.4567C21.4319 55.1552 22.2121 55 23 55C24.5913 55 26.1174 55.6321 27.2426 56.7574C28.3679 57.8826 29 59.4087 29 61C29 62.5913 28.3679 64.1174 27.2426 65.2426C26.1174 66.3679 24.5913 67 23 67ZM23 65C24.0609 65 25.0783 64.5786 25.8284 63.8284C26.5786 63.0783 27 62.0609 27 61C27 59.9391 26.5786 58.9217 25.8284 58.1716C25.0783 57.4214 24.0609 57 23 57C21.9391 57 20.9217 57.4214 20.1716 58.1716C19.4214 58.9217 19 59.9391 19 61C19 62.0609 19.4214 63.0783 20.1716 63.8284C20.9217 64.5786 21.9391 65 23 65Z" fill="white"/>
<g filter="url(#filter1_d)">
<path d="M86 29.5C86 27.178 86 26.017 86.1203 25.0414C87.0187 17.7575 92.7575 12.0187 100.041 11.1203C101.017 11 102.178 11 104.5 11C106.822 11 107.983 11 108.959 11.1203C116.243 12.0187 121.981 17.7575 122.88 25.0414C123 26.017 123 27.178 123 29.5C123 31.822 123 32.983 122.88 33.9586C121.981 41.2425 116.243 46.9813 108.959 47.8797C107.983 48 106.822 48 104.5 48C102.178 48 101.017 48 100.041 47.8797C92.7575 46.9813 87.0187 41.2425 86.1203 33.9586C86 32.983 86 31.822 86 29.5Z" fill="#686C7A"/>
</g>
<path d="M77 25C77 18.4825 77 15.2237 77.9353 12.6098C79.5492 8.09924 83.0992 4.54919 87.6098 2.93529C90.2237 2 93.4825 2 100 2C106.518 2 109.776 2 112.39 2.93529C116.901 4.54919 120.451 8.09924 122.065 12.6098C123 15.2237 123 18.4825 123 25C123 31.5175 123 34.7763 122.065 37.3902C120.451 41.9008 116.901 45.4508 112.39 47.0647C109.776 48 106.518 48 100 48C93.4825 48 90.2237 48 87.6098 47.0647C83.0992 45.4508 79.5492 41.9008 77.9353 37.3902C77 34.7763 77 31.5175 77 25Z" fill="#686C7A"/>
<path d="M75 23C75 16.4825 75 13.2237 75.9353 10.6098C77.5492 6.09924 81.0992 2.54919 85.6098 0.935295C88.2237 0 91.4825 0 98 0C104.518 0 107.776 0 110.39 0.935295C114.901 2.54919 118.451 6.09924 120.065 10.6098C121 13.2237 121 16.4825 121 23C121 29.5175 121 32.7763 120.065 35.3902C118.451 39.9008 114.901 43.4508 110.39 45.0647C107.776 46 104.518 46 98 46C91.4825 46 88.2237 46 85.6098 45.0647C81.0992 43.4508 77.5492 39.9008 75.9353 35.3902C75 32.7763 75 29.5175 75 23Z" fill="#D4D7E4"/>
<path d="M106 33H104V31C104 30.2044 103.684 29.4413 103.121 28.8787C102.559 28.3161 101.796 28 101 28H95C94.2044 28 93.4413 28.3161 92.8787 28.8787C92.3161 29.4413 92 30.2044 92 31V33H90V31C90 29.6739 90.5268 28.4021 91.4645 27.4645C92.4021 26.5268 93.6739 26 95 26H101C102.326 26 103.598 26.5268 104.536 27.4645C105.473 28.4021 106 29.6739 106 31V33ZM98 24C97.2121 24 96.4319 23.8448 95.7039 23.5433C94.9759 23.2417 94.3145 22.7998 93.7574 22.2426C93.2002 21.6855 92.7583 21.0241 92.4567 20.2961C92.1552 19.5681 92 18.7879 92 18C92 17.2121 92.1552 16.4319 92.4567 15.7039C92.7583 14.9759 93.2002 14.3145 93.7574 13.7574C94.3145 13.2002 94.9759 12.7583 95.7039 12.4567C96.4319 12.1552 97.2121 12 98 12C99.5913 12 101.117 12.6321 102.243 13.7574C103.368 14.8826 104 16.4087 104 18C104 19.5913 103.368 21.1174 102.243 22.2426C101.117 23.3679 99.5913 24 98 24ZM98 22C99.0609 22 100.078 21.5786 100.828 20.8284C101.579 20.0783 102 19.0609 102 18C102 16.9391 101.579 15.9217 100.828 15.1716C100.078 14.4214 99.0609 14 98 14C96.9391 14 95.9217 14.4214 95.1716 15.1716C94.4214 15.9217 94 16.9391 94 18C94 19.0609 94.4214 20.0783 95.1716 20.8284C95.9217 21.5786 96.9391 22 98 22Z" fill="white"/>
<g filter="url(#filter2_d)">
<path d="M77 116.5C77 107.643 77 103.215 78.5244 99.7506C80.3377 95.6295 83.6295 92.3377 87.7506 90.5244C91.215 89 95.6433 89 104.5 89C113.357 89 117.785 89 121.249 90.5244C125.37 92.3377 128.662 95.6295 130.476 99.7506C132 103.215 132 107.643 132 116.5C132 125.357 132 129.785 130.476 133.249C128.662 137.37 125.37 140.662 121.249 142.476C117.785 144 113.357 144 104.5 144C95.6433 144 91.215 144 87.7506 142.476C83.6295 140.662 80.3377 137.37 78.5244 133.249C77 129.785 77 125.357 77 116.5Z" fill="#10338B"/>
</g>
<path d="M68 108.8C68 98.7191 68 93.6786 69.9619 89.8282C71.6876 86.4413 74.4413 83.6876 77.8282 81.9619C81.6786 80 86.7191 80 96.8 80H103.2C113.281 80 118.321 80 122.172 81.9619C125.559 83.6876 128.312 86.4413 130.038 89.8282C132 93.6786 132 98.7191 132 108.8V115.2C132 125.281 132 130.321 130.038 134.172C128.312 137.559 125.559 140.312 122.172 142.038C118.321 144 113.281 144 103.2 144H96.8C86.7191 144 81.6786 144 77.8282 142.038C74.4413 140.312 71.6876 137.559 69.9619 134.172C68 130.321 68 125.281 68 115.2V108.8Z" fill="#10338B"/>
<path d="M66 106.8C66 96.7191 66 91.6786 67.9619 87.8282C69.6876 84.4413 72.4413 81.6876 75.8282 79.9619C79.6786 78 84.7191 78 94.8 78H101.2C111.281 78 116.321 78 120.172 79.9619C123.559 81.6876 126.312 84.4413 128.038 87.8282C130 91.6786 130 96.7191 130 106.8V113.2C130 123.281 130 128.321 128.038 132.172C126.312 135.559 123.559 138.312 120.172 140.038C116.321 142 111.281 142 101.2 142H94.8C84.7191 142 79.6786 142 75.8282 140.038C72.4413 138.312 69.6876 135.559 67.9619 132.172C66 128.321 66 123.281 66 113.2V106.8Z" fill="#2F69FF"/>
<path d="M109.13 123.913H106.348V121.13C106.348 120.023 105.908 118.961 105.125 118.179C104.343 117.396 103.281 116.956 102.174 116.956H93.8261C92.7192 116.956 91.6575 117.396 90.8747 118.179C90.092 118.961 89.6522 120.023 89.6522 121.13V123.913H86.8696V121.13C86.8696 119.285 87.6025 117.516 88.9071 116.211C90.2117 114.906 91.9812 114.174 93.8261 114.174H102.174C104.019 114.174 105.788 114.906 107.093 116.211C108.398 117.516 109.13 119.285 109.13 121.13V123.913ZM98.0001 111.391C96.9038 111.391 95.8183 111.175 94.8055 110.756C93.7927 110.336 92.8724 109.721 92.0973 108.946C91.3221 108.171 90.7072 107.251 90.2877 106.238C89.8682 105.225 89.6522 104.139 89.6522 103.043C89.6522 101.947 89.8682 100.861 90.2877 99.8486C90.7072 98.8358 91.3221 97.9155 92.0973 97.1403C92.8724 96.3652 93.7927 95.7503 94.8055 95.3308C95.8183 94.9112 96.9038 94.6953 98.0001 94.6953C100.214 94.6953 102.337 95.5748 103.903 97.1403C105.468 98.7059 106.348 100.829 106.348 103.043C106.348 105.257 105.468 107.38 103.903 108.946C102.337 110.511 100.214 111.391 98.0001 111.391ZM98.0001 108.608C99.4761 108.608 100.892 108.022 101.935 106.978C102.979 105.935 103.565 104.519 103.565 103.043C103.565 101.567 102.979 100.152 101.935 99.1079C100.892 98.0643 99.4761 97.4779 98.0001 97.4779C96.5241 97.4779 95.1085 98.0643 94.0649 99.1079C93.0212 100.152 92.4348 101.567 92.4348 103.043C92.4348 104.519 93.0212 105.935 94.0649 106.978C95.1085 108.022 96.5241 108.608 98.0001 108.608Z" fill="white"/>
<g filter="url(#filter3_d)">
<path d="M86 202.5C86 200.178 86 199.017 86.1203 198.041C87.0187 190.757 92.7575 185.019 100.041 184.12C101.017 184 102.178 184 104.5 184C106.822 184 107.983 184 108.959 184.12C116.243 185.019 121.981 190.757 122.88 198.041C123 199.017 123 200.178 123 202.5C123 204.822 123 205.983 122.88 206.959C121.981 214.243 116.243 219.981 108.959 220.88C107.983 221 106.822 221 104.5 221C102.178 221 101.017 221 100.041 220.88C92.7575 219.981 87.0187 214.243 86.1203 206.959C86 205.983 86 204.822 86 202.5Z" fill="#686C7A"/>
</g>
<path d="M77 198C77 191.482 77 188.224 77.9353 185.61C79.5492 181.099 83.0992 177.549 87.6098 175.935C90.2237 175 93.4825 175 100 175C106.518 175 109.776 175 112.39 175.935C116.901 177.549 120.451 181.099 122.065 185.61C123 188.224 123 191.482 123 198C123 204.518 123 207.776 122.065 210.39C120.451 214.901 116.901 218.451 112.39 220.065C109.776 221 106.518 221 100 221C93.4825 221 90.2237 221 87.6098 220.065C83.0992 218.451 79.5492 214.901 77.9353 210.39C77 207.776 77 204.518 77 198Z" fill="#686C7A"/>
<path d="M75 196C75 189.482 75 186.224 75.9353 183.61C77.5492 179.099 81.0992 175.549 85.6098 173.935C88.2237 173 91.4825 173 98 173C104.518 173 107.776 173 110.39 173.935C114.901 175.549 118.451 179.099 120.065 183.61C121 186.224 121 189.482 121 196C121 202.518 121 205.776 120.065 208.39C118.451 212.901 114.901 216.451 110.39 218.065C107.776 219 104.518 219 98 219C91.4825 219 88.2237 219 85.6098 218.065C81.0992 216.451 77.5492 212.901 75.9353 208.39C75 205.776 75 202.518 75 196Z" fill="#D4D7E4"/>
<path d="M106 206H104V204C104 203.204 103.684 202.441 103.121 201.879C102.559 201.316 101.796 201 101 201H95C94.2044 201 93.4413 201.316 92.8787 201.879C92.3161 202.441 92 203.204 92 204V206H90V204C90 202.674 90.5268 201.402 91.4645 200.464C92.4021 199.527 93.6739 199 95 199H101C102.326 199 103.598 199.527 104.536 200.464C105.473 201.402 106 202.674 106 204V206ZM98 197C97.2121 197 96.4319 196.845 95.7039 196.543C94.9759 196.242 94.3145 195.8 93.7574 195.243C93.2002 194.685 92.7583 194.024 92.4567 193.296C92.1552 192.568 92 191.788 92 191C92 190.212 92.1552 189.432 92.4567 188.704C92.7583 187.976 93.2002 187.315 93.7574 186.757C94.3145 186.2 94.9759 185.758 95.7039 185.457C96.4319 185.155 97.2121 185 98 185C99.5913 185 101.117 185.632 102.243 186.757C103.368 187.883 104 189.409 104 191C104 192.591 103.368 194.117 102.243 195.243C101.117 196.368 99.5913 197 98 197ZM98 195C99.0609 195 100.078 194.579 100.828 193.828C101.579 193.078 102 192.061 102 191C102 189.939 101.579 188.922 100.828 188.172C100.078 187.421 99.0609 187 98 187C96.9391 187 95.9217 187.421 95.1716 188.172C94.4214 188.922 94 189.939 94 191C94 192.061 94.4214 193.078 95.1716 193.828C95.9217 194.579 96.9391 195 98 195Z" fill="white"/>
<g filter="url(#filter4_d)">
<path d="M161 158.5C161 156.178 161 155.017 161.12 154.041C162.019 146.757 167.757 141.019 175.041 140.12C176.017 140 177.178 140 179.5 140C181.822 140 182.983 140 183.959 140.12C191.243 141.019 196.981 146.757 197.88 154.041C198 155.017 198 156.178 198 158.5C198 160.822 198 161.983 197.88 162.959C196.981 170.243 191.243 175.981 183.959 176.88C182.983 177 181.822 177 179.5 177C177.178 177 176.017 177 175.041 176.88C167.757 175.981 162.019 170.243 161.12 162.959C161 161.983 161 160.822 161 158.5Z" fill="#686C7A"/>
</g>
<path d="M152 154C152 147.482 152 144.224 152.935 141.61C154.549 137.099 158.099 133.549 162.61 131.935C165.224 131 168.482 131 175 131C181.518 131 184.776 131 187.39 131.935C191.901 133.549 195.451 137.099 197.065 141.61C198 144.224 198 147.482 198 154C198 160.518 198 163.776 197.065 166.39C195.451 170.901 191.901 174.451 187.39 176.065C184.776 177 181.518 177 175 177C168.482 177 165.224 177 162.61 176.065C158.099 174.451 154.549 170.901 152.935 166.39C152 163.776 152 160.518 152 154Z" fill="#686C7A"/>
<path d="M150 152C150 145.482 150 142.224 150.935 139.61C152.549 135.099 156.099 131.549 160.61 129.935C163.224 129 166.482 129 173 129C179.518 129 182.776 129 185.39 129.935C189.901 131.549 193.451 135.099 195.065 139.61C196 142.224 196 145.482 196 152C196 158.518 196 161.776 195.065 164.39C193.451 168.901 189.901 172.451 185.39 174.065C182.776 175 179.518 175 173 175C166.482 175 163.224 175 160.61 174.065C156.099 172.451 152.549 168.901 150.935 164.39C150 161.776 150 158.518 150 152Z" fill="#D4D7E4"/>
<path d="M181 162H179V160C179 159.204 178.684 158.441 178.121 157.879C177.559 157.316 176.796 157 176 157H170C169.204 157 168.441 157.316 167.879 157.879C167.316 158.441 167 159.204 167 160V162H165V160C165 158.674 165.527 157.402 166.464 156.464C167.402 155.527 168.674 155 170 155H176C177.326 155 178.598 155.527 179.536 156.464C180.473 157.402 181 158.674 181 160V162ZM173 153C172.212 153 171.432 152.845 170.704 152.543C169.976 152.242 169.315 151.8 168.757 151.243C168.2 150.685 167.758 150.024 167.457 149.296C167.155 148.568 167 147.788 167 147C167 146.212 167.155 145.432 167.457 144.704C167.758 143.976 168.2 143.315 168.757 142.757C169.315 142.2 169.976 141.758 170.704 141.457C171.432 141.155 172.212 141 173 141C174.591 141 176.117 141.632 177.243 142.757C178.368 143.883 179 145.409 179 147C179 148.591 178.368 150.117 177.243 151.243C176.117 152.368 174.591 153 173 153ZM173 151C174.061 151 175.078 150.579 175.828 149.828C176.579 149.078 177 148.061 177 147C177 145.939 176.579 144.922 175.828 144.172C175.078 143.421 174.061 143 173 143C171.939 143 170.922 143.421 170.172 144.172C169.421 144.922 169 145.939 169 147C169 148.061 169.421 149.078 170.172 149.828C170.922 150.579 171.939 151 173 151Z" fill="white"/>
<g filter="url(#filter5_d)">
<path d="M11 158.5C11 156.178 11 155.017 11.1203 154.041C12.0187 146.757 17.7575 141.019 25.0414 140.12C26.017 140 27.178 140 29.5 140C31.822 140 32.983 140 33.9586 140.12C41.2425 141.019 46.9813 146.757 47.8797 154.041C48 155.017 48 156.178 48 158.5C48 160.822 48 161.983 47.8797 162.959C46.9813 170.243 41.2425 175.981 33.9586 176.88C32.983 177 31.822 177 29.5 177C27.178 177 26.017 177 25.0414 176.88C17.7575 175.981 12.0187 170.243 11.1203 162.959C11 161.983 11 160.822 11 158.5Z" fill="#686C7A"/>
</g>
<path d="M2 154C2 147.482 2 144.224 2.93529 141.61C4.54919 137.099 8.09924 133.549 12.6098 131.935C15.2237 131 18.4825 131 25 131C31.5175 131 34.7763 131 37.3902 131.935C41.9008 133.549 45.4508 137.099 47.0647 141.61C48 144.224 48 147.482 48 154C48 160.518 48 163.776 47.0647 166.39C45.4508 170.901 41.9008 174.451 37.3902 176.065C34.7763 177 31.5175 177 25 177C18.4825 177 15.2237 177 12.6098 176.065C8.09924 174.451 4.54919 170.901 2.93529 166.39C2 163.776 2 160.518 2 154Z" fill="#686C7A"/>
<path d="M0 152C0 145.482 0 142.224 0.935295 139.61C2.54919 135.099 6.09924 131.549 10.6098 129.935C13.2237 129 16.4825 129 23 129C29.5175 129 32.7763 129 35.3902 129.935C39.9008 131.549 43.4508 135.099 45.0647 139.61C46 142.224 46 145.482 46 152C46 158.518 46 161.776 45.0647 164.39C43.4508 168.901 39.9008 172.451 35.3902 174.065C32.7763 175 29.5175 175 23 175C16.4825 175 13.2237 175 10.6098 174.065C6.09924 172.451 2.54919 168.901 0.935295 164.39C0 161.776 0 158.518 0 152Z" fill="#D4D7E4"/>
<path d="M31 162H29V160C29 159.204 28.6839 158.441 28.1213 157.879C27.5587 157.316 26.7956 157 26 157H20C19.2044 157 18.4413 157.316 17.8787 157.879C17.3161 158.441 17 159.204 17 160V162H15V160C15 158.674 15.5268 157.402 16.4645 156.464C17.4021 155.527 18.6739 155 20 155H26C27.3261 155 28.5979 155.527 29.5355 156.464C30.4732 157.402 31 158.674 31 160V162ZM23 153C22.2121 153 21.4319 152.845 20.7039 152.543C19.9759 152.242 19.3145 151.8 18.7574 151.243C18.2002 150.685 17.7583 150.024 17.4567 149.296C17.1552 148.568 17 147.788 17 147C17 146.212 17.1552 145.432 17.4567 144.704C17.7583 143.976 18.2002 143.315 18.7574 142.757C19.3145 142.2 19.9759 141.758 20.7039 141.457C21.4319 141.155 22.2121 141 23 141C24.5913 141 26.1174 141.632 27.2426 142.757C28.3679 143.883 29 145.409 29 147C29 148.591 28.3679 150.117 27.2426 151.243C26.1174 152.368 24.5913 153 23 153ZM23 151C24.0609 151 25.0783 150.579 25.8284 149.828C26.5786 149.078 27 148.061 27 147C27 145.939 26.5786 144.922 25.8284 144.172C25.0783 143.421 24.0609 143 23 143C21.9391 143 20.9217 143.421 20.1716 144.172C19.4214 144.922 19 145.939 19 147C19 148.061 19.4214 149.078 20.1716 149.828C20.9217 150.579 21.9391 151 23 151Z" fill="white"/>
<g filter="url(#filter6_d)">
<path d="M161 72.5C161 70.178 161 69.017 161.12 68.0414C162.019 60.7575 167.757 55.0187 175.041 54.1203C176.017 54 177.178 54 179.5 54C181.822 54 182.983 54 183.959 54.1203C191.243 55.0187 196.981 60.7575 197.88 68.0414C198 69.017 198 70.178 198 72.5C198 74.822 198 75.983 197.88 76.9586C196.981 84.2425 191.243 89.9813 183.959 90.8797C182.983 91 181.822 91 179.5 91C177.178 91 176.017 91 175.041 90.8797C167.757 89.9813 162.019 84.2425 161.12 76.9586C161 75.983 161 74.822 161 72.5Z" fill="#686C7A"/>
</g>
<path d="M152 68C152 61.4825 152 58.2237 152.935 55.6098C154.549 51.0992 158.099 47.5492 162.61 45.9353C165.224 45 168.482 45 175 45C181.518 45 184.776 45 187.39 45.9353C191.901 47.5492 195.451 51.0992 197.065 55.6098C198 58.2237 198 61.4825 198 68C198 74.5175 198 77.7763 197.065 80.3902C195.451 84.9008 191.901 88.4508 187.39 90.0647C184.776 91 181.518 91 175 91C168.482 91 165.224 91 162.61 90.0647C158.099 88.4508 154.549 84.9008 152.935 80.3902C152 77.7763 152 74.5175 152 68Z" fill="#686C7A"/>
<path d="M150 66C150 59.4825 150 56.2237 150.935 53.6098C152.549 49.0992 156.099 45.5492 160.61 43.9353C163.224 43 166.482 43 173 43C179.518 43 182.776 43 185.39 43.9353C189.901 45.5492 193.451 49.0992 195.065 53.6098C196 56.2237 196 59.4825 196 66C196 72.5175 196 75.7763 195.065 78.3902C193.451 82.9008 189.901 86.4508 185.39 88.0647C182.776 89 179.518 89 173 89C166.482 89 163.224 89 160.61 88.0647C156.099 86.4508 152.549 82.9008 150.935 78.3902C150 75.7763 150 72.5175 150 66Z" fill="#D4D7E4"/>
<path d="M181 76H179V74C179 73.2044 178.684 72.4413 178.121 71.8787C177.559 71.3161 176.796 71 176 71H170C169.204 71 168.441 71.3161 167.879 71.8787C167.316 72.4413 167 73.2044 167 74V76H165V74C165 72.6739 165.527 71.4021 166.464 70.4645C167.402 69.5268 168.674 69 170 69H176C177.326 69 178.598 69.5268 179.536 70.4645C180.473 71.4021 181 72.6739 181 74V76ZM173 67C172.212 67 171.432 66.8448 170.704 66.5433C169.976 66.2417 169.315 65.7998 168.757 65.2426C168.2 64.6855 167.758 64.0241 167.457 63.2961C167.155 62.5681 167 61.7879 167 61C167 60.2121 167.155 59.4319 167.457 58.7039C167.758 57.9759 168.2 57.3145 168.757 56.7574C169.315 56.2002 169.976 55.7583 170.704 55.4567C171.432 55.1552 172.212 55 173 55C174.591 55 176.117 55.6321 177.243 56.7574C178.368 57.8826 179 59.4087 179 61C179 62.5913 178.368 64.1174 177.243 65.2426C176.117 66.3679 174.591 67 173 67ZM173 65C174.061 65 175.078 64.5786 175.828 63.8284C176.579 63.0783 177 62.0609 177 61C177 59.9391 176.579 58.9217 175.828 58.1716C175.078 57.4214 174.061 57 173 57C171.939 57 170.922 57.4214 170.172 58.1716C169.421 58.9217 169 59.9391 169 61C169 62.0609 169.421 63.0783 170.172 63.8284C170.922 64.5786 171.939 65 173 65Z" fill="white"/>
<defs>
<filter id="filter0_d" x="1" y="48" width="57" height="57" filterUnits="userSpaceOnUse" color-interpolation-filters="sRGB">
<feFlood flood-opacity="0" result="BackgroundImageFix"/>
<feColorMatrix in="SourceAlpha" type="matrix" values="0 0 0 0 0 0 0 0 0 0 0 0 0 0 0 0 0 0 127 0"/>
<feOffset dy="4"/>
<feGaussianBlur stdDeviation="5"/>
<feColorMatrix type="matrix" values="0 0 0 0 0.725069 0 0 0 0 0.743025 0 0 0 0 0.820833 0 0 0 1 0"/>
<feBlend mode="normal" in2="BackgroundImageFix" result="effect1_dropShadow"/>
<feBlend mode="normal" in="SourceGraphic" in2="effect1_dropShadow" result="shape"/>
</filter>
<filter id="filter1_d" x="76" y="5" width="57" height="57" filterUnits="userSpaceOnUse" color-interpolation-filters="sRGB">
<feFlood flood-opacity="0" result="BackgroundImageFix"/>
<feColorMatrix in="SourceAlpha" type="matrix" values="0 0 0 0 0 0 0 0 0 0 0 0 0 0 0 0 0 0 127 0"/>
<feOffset dy="4"/>
<feGaussianBlur stdDeviation="5"/>
<feColorMatrix type="matrix" values="0 0 0 0 0.725069 0 0 0 0 0.743025 0 0 0 0 0.820833 0 0 0 1 0"/>
<feBlend mode="normal" in2="BackgroundImageFix" result="effect1_dropShadow"/>
<feBlend mode="normal" in="SourceGraphic" in2="effect1_dropShadow" result="shape"/>
</filter>
<filter id="filter2_d" x="67" y="79" width="83" height="83" filterUnits="userSpaceOnUse" color-interpolation-filters="sRGB">
<feFlood flood-opacity="0" result="BackgroundImageFix"/>
<feColorMatrix in="SourceAlpha" type="matrix" values="0 0 0 0 0 0 0 0 0 0 0 0 0 0 0 0 0 0 127 0"/>
<feOffset dx="4" dy="4"/>
<feGaussianBlur stdDeviation="7"/>
<feColorMatrix type="matrix" values="0 0 0 0 0.561458 0 0 0 0 0.673287 0 0 0 0 0.9625 0 0 0 1 0"/>
<feBlend mode="normal" in2="BackgroundImageFix" result="effect1_dropShadow"/>
<feBlend mode="normal" in="SourceGraphic" in2="effect1_dropShadow" result="shape"/>
</filter>
<filter id="filter3_d" x="76" y="178" width="57" height="57" filterUnits="userSpaceOnUse" color-interpolation-filters="sRGB">
<feFlood flood-opacity="0" result="BackgroundImageFix"/>
<feColorMatrix in="SourceAlpha" type="matrix" values="0 0 0 0 0 0 0 0 0 0 0 0 0 0 0 0 0 0 127 0"/>
<feOffset dy="4"/>
<feGaussianBlur stdDeviation="5"/>
<feColorMatrix type="matrix" values="0 0 0 0 0.725069 0 0 0 0 0.743025 0 0 0 0 0.820833 0 0 0 1 0"/>
<feBlend mode="normal" in2="BackgroundImageFix" result="effect1_dropShadow"/>
<feBlend mode="normal" in="SourceGraphic" in2="effect1_dropShadow" result="shape"/>
</filter>
<filter id="filter4_d" x="151" y="134" width="57" height="57" filterUnits="userSpaceOnUse" color-interpolation-filters="sRGB">
<feFlood flood-opacity="0" result="BackgroundImageFix"/>
<feColorMatrix in="SourceAlpha" type="matrix" values="0 0 0 0 0 0 0 0 0 0 0 0 0 0 0 0 0 0 127 0"/>
<feOffset dy="4"/>
<feGaussianBlur stdDeviation="5"/>
<feColorMatrix type="matrix" values="0 0 0 0 0.725069 0 0 0 0 0.743025 0 0 0 0 0.820833 0 0 0 1 0"/>
<feBlend mode="normal" in2="BackgroundImageFix" result="effect1_dropShadow"/>
<feBlend mode="normal" in="SourceGraphic" in2="effect1_dropShadow" result="shape"/>
</filter>
<filter id="filter5_d" x="1" y="134" width="57" height="57" filterUnits="userSpaceOnUse" color-interpolation-filters="sRGB">
<feFlood flood-opacity="0" result="BackgroundImageFix"/>
<feColorMatrix in="SourceAlpha" type="matrix" values="0 0 0 0 0 0 0 0 0 0 0 0 0 0 0 0 0 0 127 0"/>
<feOffset dy="4"/>
<feGaussianBlur stdDeviation="5"/>
<feColorMatrix type="matrix" values="0 0 0 0 0.725069 0 0 0 0 0.743025 0 0 0 0 0.820833 0 0 0 1 0"/>
<feBlend mode="normal" in2="BackgroundImageFix" result="effect1_dropShadow"/>
<feBlend mode="normal" in="SourceGraphic" in2="effect1_dropShadow" result="shape"/>
</filter>
<filter id="filter6_d" x="151" y="48" width="57" height="57" filterUnits="userSpaceOnUse" color-interpolation-filters="sRGB">
<feFlood flood-opacity="0" result="BackgroundImageFix"/>
<feColorMatrix in="SourceAlpha" type="matrix" values="0 0 0 0 0 0 0 0 0 0 0 0 0 0 0 0 0 0 127 0"/>
<feOffset dy="4"/>
<feGaussianBlur stdDeviation="5"/>
<feColorMatrix type="matrix" values="0 0 0 0 0.725069 0 0 0 0 0.743025 0 0 0 0 0.820833 0 0 0 1 0"/>
<feBlend mode="normal" in2="BackgroundImageFix" result="effect1_dropShadow"/>
<feBlend mode="normal" in="SourceGraphic" in2="effect1_dropShadow" result="shape"/>
</filter>
</defs>
</svg>
