<svg width="608" height="452" viewBox="0 0 608 452" fill="none" xmlns="http://www.w3.org/2000/svg">
<g filter="url(#filter0_d)">
<path d="M13 51.693C13 42.6996 13 38.2029 14.7502 34.7679C16.2898 31.7464 18.7464 29.2898 21.7679 27.7502C25.2029 26 29.6996 26 38.693 26L383.14 26C392.133 26 396.63 26 400.065 27.7502C403.086 29.2898 405.543 31.7464 407.083 34.7679C408.833 38.2029 408.833 42.6996 408.833 51.693V251.617C408.833 260.61 408.833 265.107 407.083 268.542C405.543 271.563 403.086 274.02 400.065 275.559C396.63 277.31 392.133 277.31 383.14 277.31H38.693C29.6996 277.31 25.2029 277.31 21.7679 275.559C18.7464 274.02 16.2898 271.563 14.7502 268.542C13 265.107 13 260.61 13 251.617L13 51.693Z" fill="url(#paint0_radial)"/>
</g>
<g filter="url(#filter1_i)">
<path d="M13 51.693C13 42.6996 13 38.2029 14.7502 34.7679C16.2898 31.7464 18.7464 29.2898 21.7679 27.7502C25.2029 26 29.6996 26 38.693 26L383.14 26C392.133 26 396.63 26 400.065 27.7502C403.086 29.2898 405.543 31.7464 407.083 34.7679C408.833 38.2029 408.833 42.6996 408.833 51.693V251.617C408.833 260.61 408.833 265.107 407.083 268.542C405.543 271.563 403.086 274.02 400.065 275.559C396.63 277.31 392.133 277.31 383.14 277.31H38.693C29.6996 277.31 25.2029 277.31 21.7679 275.559C18.7464 274.02 16.2898 271.563 14.7502 268.542C13 265.107 13 260.61 13 251.617L13 51.693Z" fill="#2F69FF"/>
<path d="M13 51.693C13 42.6996 13 38.2029 14.7502 34.7679C16.2898 31.7464 18.7464 29.2898 21.7679 27.7502C25.2029 26 29.6996 26 38.693 26L383.14 26C392.133 26 396.63 26 400.065 27.7502C403.086 29.2898 405.543 31.7464 407.083 34.7679C408.833 38.2029 408.833 42.6996 408.833 51.693V251.617C408.833 260.61 408.833 265.107 407.083 268.542C405.543 271.563 403.086 274.02 400.065 275.559C396.63 277.31 392.133 277.31 383.14 277.31H38.693C29.6996 277.31 25.2029 277.31 21.7679 275.559C18.7464 274.02 16.2898 271.563 14.7502 268.542C13 265.107 13 260.61 13 251.617L13 51.693Z" fill="url(#paint1_linear)"/>
</g>
<mask id="mask0" mask-type="alpha" maskUnits="userSpaceOnUse" x="13" y="26" width="396" height="252">
<path d="M13 51.693C13 42.6996 13 38.2029 14.7502 34.7679C16.2898 31.7464 18.7464 29.2898 21.7679 27.7502C25.2029 26 29.6996 26 38.693 26L383.14 26C392.133 26 396.63 26 400.065 27.7502C403.086 29.2898 405.543 31.7464 407.083 34.7679C408.833 38.2029 408.833 42.6996 408.833 51.693V251.617C408.833 260.61 408.833 265.107 407.083 268.542C405.543 271.563 403.086 274.02 400.065 275.559C396.63 277.31 392.133 277.31 383.14 277.31H38.693C29.6996 277.31 25.2029 277.31 21.7679 275.559C18.7464 274.02 16.2898 271.563 14.7502 268.542C13 265.107 13 260.61 13 251.617L13 51.693Z" fill="url(#paint2_radial)"/>
</mask>
<g mask="url(#mask0)">
<path fill-rule="evenodd" clip-rule="evenodd" d="M339.049 66.6755L342.778 71.9721L340.056 77.8501L336.326 72.5535L339.049 66.6755Z" fill="url(#paint3_radial)"/>
<path fill-rule="evenodd" clip-rule="evenodd" d="M349.229 71.3903L342.778 71.9717L340.055 77.8496L346.507 77.2683L349.229 71.3903Z" fill="url(#paint4_radial)"/>
<path fill-rule="evenodd" clip-rule="evenodd" d="M345.5 66.0937L349.229 71.3903L342.778 71.9717L339.048 66.6751L345.5 66.0937Z" fill="url(#paint5_radial)"/>
<g filter="url(#filter2_f)">
<path fill-rule="evenodd" clip-rule="evenodd" d="M71.5991 222.795L86.9867 244.649L75.7539 268.902L60.3664 247.048L71.5991 222.795Z" fill="url(#paint6_radial)"/>
<path fill-rule="evenodd" clip-rule="evenodd" d="M113.606 242.25L86.9862 244.649L75.7534 268.902L102.374 266.504L113.606 242.25Z" fill="url(#paint7_radial)"/>
<path fill-rule="evenodd" clip-rule="evenodd" d="M98.2207 220.397L113.608 242.251L86.988 244.65L71.6004 222.795L98.2207 220.397Z" fill="url(#paint8_radial)"/>
</g>
<path fill-rule="evenodd" clip-rule="evenodd" d="M58.1562 148.98L66.2394 147.636L71.4447 153.965L63.3616 155.308L58.1562 148.98Z" fill="url(#paint9_radial)"/>
<path fill-rule="evenodd" clip-rule="evenodd" d="M69.1162 139.964L66.2384 147.637L71.4437 153.965L74.3215 146.293L69.1162 139.964Z" fill="url(#paint10_radial)"/>
<path fill-rule="evenodd" clip-rule="evenodd" d="M61.0366 141.306L69.1197 139.963L66.2419 147.635L58.1588 148.978L61.0366 141.306Z" fill="url(#paint11_radial)"/>
<path fill-rule="evenodd" clip-rule="evenodd" d="M363.711 205.533L377.565 200.916L388.49 210.606L374.636 215.222L363.711 205.533Z" fill="url(#paint12_linear)"/>
<path fill-rule="evenodd" clip-rule="evenodd" d="M380.494 186.61L377.566 200.916L388.491 210.606L391.419 196.3L380.494 186.61Z" fill="url(#paint13_linear)"/>
<path fill-rule="evenodd" clip-rule="evenodd" d="M366.642 191.225L380.495 186.609L377.567 200.915L363.713 205.531L366.642 191.225Z" fill="url(#paint14_linear)"/>
<g filter="url(#filter3_f)">
<path fill-rule="evenodd" clip-rule="evenodd" d="M3.16846 36.5042L50.354 45.6626L66.0154 91.1058L18.8298 81.9473L3.16846 36.5042Z" fill="url(#paint15_linear)"/>
<path fill-rule="evenodd" clip-rule="evenodd" d="M81.8769 9.37879L50.3526 45.6635L66.0139 91.1066L97.5382 54.8219L81.8769 9.37879Z" fill="url(#paint16_linear)"/>
<path fill-rule="evenodd" clip-rule="evenodd" d="M34.6899 0.220834L81.8755 9.37931L50.3512 45.664L3.16562 36.5055L34.6899 0.220834Z" fill="url(#paint17_linear)"/>
</g>
</g>
<path fill-rule="evenodd" clip-rule="evenodd" d="M182.102 121.116L210.563 137.548V170.412L182.102 153.98V121.116Z" fill="url(#paint18_radial)"/>
<path fill-rule="evenodd" clip-rule="evenodd" d="M239.023 121.117L210.562 137.549V170.413L239.023 153.981V121.117Z" fill="url(#paint19_radial)"/>
<path fill-rule="evenodd" clip-rule="evenodd" d="M210.562 104.685L239.023 121.117L210.562 137.548L182.101 121.117L210.562 104.685Z" fill="url(#paint20_radial)"/>
<path fill-rule="evenodd" clip-rule="evenodd" d="M195.299 128.734L210.563 137.546V155.171L195.299 146.359V128.734Z" fill="url(#paint21_linear)"/>
<path fill-rule="evenodd" clip-rule="evenodd" d="M225.826 128.734L210.562 137.547V155.172L225.826 146.359V128.734Z" fill="url(#paint22_linear)"/>
<path fill-rule="evenodd" clip-rule="evenodd" d="M210.562 119.923L225.826 128.735L210.562 137.547L195.299 128.735L210.562 119.923Z" fill="url(#paint23_linear)"/>
<path d="M160.849 197.475C159.878 197.475 158.939 197.328 158.03 197.033C157.134 196.726 156.428 196.333 155.912 195.854L156.594 194.417C157.085 194.86 157.711 195.222 158.472 195.504C159.246 195.774 160.038 195.909 160.849 195.909C161.917 195.909 162.715 195.731 163.243 195.375C163.771 195.007 164.035 194.522 164.035 193.92C164.035 193.478 163.888 193.122 163.593 192.852C163.311 192.569 162.955 192.354 162.525 192.207C162.107 192.06 161.512 191.894 160.738 191.71C159.768 191.476 158.982 191.243 158.38 191.01C157.791 190.777 157.281 190.42 156.852 189.941C156.434 189.45 156.225 188.793 156.225 187.971C156.225 187.283 156.403 186.663 156.759 186.11C157.128 185.558 157.68 185.116 158.417 184.784C159.154 184.452 160.069 184.287 161.162 184.287C161.923 184.287 162.672 184.385 163.409 184.581C164.146 184.778 164.778 185.06 165.306 185.429L164.698 186.902C164.158 186.558 163.581 186.301 162.967 186.129C162.353 185.944 161.751 185.852 161.162 185.852C160.118 185.852 159.332 186.043 158.804 186.423C158.288 186.804 158.03 187.295 158.03 187.897C158.03 188.339 158.178 188.701 158.472 188.984C158.767 189.254 159.129 189.469 159.559 189.628C160.001 189.776 160.597 189.935 161.346 190.107C162.316 190.341 163.096 190.574 163.685 190.807C164.275 191.041 164.778 191.397 165.196 191.876C165.625 192.354 165.84 192.999 165.84 193.81C165.84 194.485 165.656 195.105 165.288 195.67C164.919 196.223 164.361 196.665 163.612 196.996C162.862 197.316 161.942 197.475 160.849 197.475Z" fill="#F1F5FF"/>
<path d="M184.041 184.434V197.328H182.199V191.581H174.794V197.328H172.952V184.434H174.794V189.978H182.199V184.434H184.041Z" fill="#F1F5FF"/>
<path d="M201.678 195.725V197.328H192.321V184.434H201.42V186.036H194.163V189.997H200.628V191.562H194.163V195.725H201.678Z" fill="#F1F5FF"/>
<path d="M209.081 184.434H210.923V195.725H217.904V197.328H209.081V184.434Z" fill="#F1F5FF"/>
<path d="M225.794 186.036H221.373V184.434H232.038V186.036H227.618V197.328H225.794V186.036Z" fill="#F1F5FF"/>
<path d="M247.822 195.725V197.328H238.465V184.434H247.565V186.036H240.307V189.997H246.773V191.562H240.307V195.725H247.822Z" fill="#F1F5FF"/>
<path d="M263.846 197.328L261.065 193.368C260.721 193.392 260.451 193.404 260.254 193.404H257.068V197.328H255.226V184.434H260.254C261.924 184.434 263.238 184.833 264.196 185.631C265.154 186.429 265.633 187.528 265.633 188.928C265.633 189.923 265.387 190.77 264.896 191.47C264.405 192.17 263.705 192.68 262.796 192.999L265.854 197.328H263.846ZM260.199 191.839C261.366 191.839 262.256 191.587 262.87 191.084C263.484 190.58 263.791 189.862 263.791 188.928C263.791 187.995 263.484 187.283 262.87 186.792C262.256 186.288 261.366 186.036 260.199 186.036H257.068V191.839H260.199Z" fill="#F1F5FF"/>
<path d="M198.028 244.23C199.176 244.23 200.075 244.504 200.726 245.052C201.377 245.6 201.702 246.354 201.702 247.313C201.702 248.272 201.377 249.026 200.726 249.574C200.075 250.114 199.176 250.383 198.028 250.383H195.613V253.222H194.662V244.23H198.028ZM198.002 249.548C198.893 249.548 199.574 249.356 200.045 248.97C200.516 248.576 200.751 248.024 200.751 247.313C200.751 246.585 200.516 246.028 200.045 245.643C199.574 245.249 198.893 245.052 198.002 245.052H195.613V249.548H198.002Z" fill="#F1F5FF"/>
<path d="M216.18 244.23V253.222H215.268V246.028L211.735 252.079H211.286L207.753 246.067V253.222H206.841V244.23H207.624L211.53 250.897L215.396 244.23H216.18Z" fill="#F1F5FF"/>
<path d="M224.673 253.3C224.005 253.3 223.362 253.192 222.746 252.978C222.138 252.764 221.667 252.482 221.333 252.131L221.705 251.398C222.031 251.724 222.463 251.989 223.003 252.195C223.542 252.392 224.099 252.49 224.673 252.49C225.478 252.49 226.081 252.345 226.484 252.053C226.887 251.754 227.088 251.368 227.088 250.897C227.088 250.538 226.976 250.251 226.754 250.037C226.54 249.822 226.274 249.66 225.957 249.548C225.64 249.428 225.199 249.3 224.634 249.163C223.958 248.992 223.418 248.829 223.015 248.675C222.613 248.512 222.266 248.268 221.975 247.943C221.692 247.617 221.551 247.176 221.551 246.619C221.551 246.165 221.671 245.754 221.911 245.386C222.15 245.009 222.519 244.71 223.015 244.487C223.512 244.264 224.129 244.153 224.865 244.153C225.379 244.153 225.88 244.226 226.368 244.371C226.865 244.508 227.293 244.701 227.653 244.949L227.332 245.707C226.955 245.459 226.553 245.275 226.124 245.155C225.696 245.026 225.276 244.962 224.865 244.962C224.077 244.962 223.482 245.116 223.08 245.425C222.686 245.724 222.489 246.114 222.489 246.594C222.489 246.953 222.596 247.245 222.81 247.467C223.033 247.681 223.307 247.848 223.632 247.968C223.966 248.08 224.411 248.204 224.968 248.341C225.628 248.504 226.159 248.666 226.561 248.829C226.972 248.983 227.319 249.223 227.602 249.548C227.884 249.865 228.026 250.298 228.026 250.846C228.026 251.3 227.901 251.715 227.653 252.092C227.413 252.46 227.041 252.756 226.535 252.978C226.03 253.192 225.409 253.3 224.673 253.3Z" fill="#F1F5FF"/>
<g filter="url(#filter4_d)">
<path d="M104.835 126.023C104.835 117.03 104.835 112.533 106.585 109.098C108.125 106.076 110.581 103.62 113.603 102.08C117.038 100.33 121.535 100.33 130.528 100.33L474.975 100.33C483.968 100.33 488.465 100.33 491.9 102.08C494.921 103.62 497.378 106.076 498.917 109.098C500.668 112.533 500.668 117.03 500.668 126.023V325.947C500.668 334.94 500.668 339.437 498.917 342.872C497.378 345.893 494.921 348.35 491.9 349.889C488.465 351.64 483.968 351.64 474.975 351.64H130.528C121.535 351.64 117.038 351.64 113.603 349.889C110.581 348.35 108.125 345.893 106.585 342.872C104.835 339.437 104.835 334.94 104.835 325.947L104.835 126.023Z" fill="url(#paint24_radial)"/>
</g>
<g filter="url(#filter5_i)">
<path d="M104.835 126.023C104.835 117.03 104.835 112.533 106.585 109.098C108.125 106.076 110.581 103.62 113.603 102.08C117.038 100.33 121.535 100.33 130.528 100.33L474.975 100.33C483.968 100.33 488.465 100.33 491.9 102.08C494.921 103.62 497.378 106.076 498.917 109.098C500.668 112.533 500.668 117.03 500.668 126.023V325.947C500.668 334.94 500.668 339.437 498.917 342.872C497.378 345.893 494.921 348.35 491.9 349.889C488.465 351.64 483.968 351.64 474.975 351.64H130.528C121.535 351.64 117.038 351.64 113.603 349.889C110.581 348.35 108.125 345.893 106.585 342.872C104.835 339.437 104.835 334.94 104.835 325.947L104.835 126.023Z" fill="#2F69FF"/>
<path d="M104.835 126.023C104.835 117.03 104.835 112.533 106.585 109.098C108.125 106.076 110.581 103.62 113.603 102.08C117.038 100.33 121.535 100.33 130.528 100.33L474.975 100.33C483.968 100.33 488.465 100.33 491.9 102.08C494.921 103.62 497.378 106.076 498.917 109.098C500.668 112.533 500.668 117.03 500.668 126.023V325.947C500.668 334.94 500.668 339.437 498.917 342.872C497.378 345.893 494.921 348.35 491.9 349.889C488.465 351.64 483.968 351.64 474.975 351.64H130.528C121.535 351.64 117.038 351.64 113.603 349.889C110.581 348.35 108.125 345.893 106.585 342.872C104.835 339.437 104.835 334.94 104.835 325.947L104.835 126.023Z" fill="url(#paint25_linear)"/>
</g>
<mask id="mask1" mask-type="alpha" maskUnits="userSpaceOnUse" x="104" y="100" width="397" height="252">
<path d="M104.835 126.023C104.835 117.03 104.835 112.533 106.585 109.098C108.125 106.076 110.581 103.62 113.603 102.08C117.038 100.33 121.535 100.33 130.528 100.33L474.975 100.33C483.968 100.33 488.465 100.33 491.9 102.08C494.921 103.62 497.378 106.076 498.917 109.098C500.668 112.533 500.668 117.03 500.668 126.023V325.947C500.668 334.94 500.668 339.437 498.917 342.872C497.378 345.893 494.921 348.35 491.9 349.889C488.465 351.64 483.968 351.64 474.975 351.64H130.528C121.535 351.64 117.038 351.64 113.603 349.889C110.581 348.35 108.125 345.893 106.585 342.872C104.835 339.437 104.835 334.94 104.835 325.947L104.835 126.023Z" fill="url(#paint26_radial)"/>
</mask>
<g mask="url(#mask1)">
<path fill-rule="evenodd" clip-rule="evenodd" d="M430.884 141.006L434.613 146.302L431.891 152.18L428.161 146.884L430.884 141.006Z" fill="url(#paint27_radial)"/>
<path fill-rule="evenodd" clip-rule="evenodd" d="M441.064 145.72L434.612 146.302L431.89 152.18L438.342 151.598L441.064 145.72Z" fill="url(#paint28_radial)"/>
<path fill-rule="evenodd" clip-rule="evenodd" d="M437.335 140.424L441.064 145.72L434.613 146.302L430.883 141.005L437.335 140.424Z" fill="url(#paint29_radial)"/>
<g filter="url(#filter6_f)">
<path fill-rule="evenodd" clip-rule="evenodd" d="M163.434 297.125L178.822 318.979L167.589 343.233L152.201 321.378L163.434 297.125Z" fill="url(#paint30_radial)"/>
<path fill-rule="evenodd" clip-rule="evenodd" d="M205.441 316.58L178.821 318.979L167.588 343.232L194.209 340.834L205.441 316.58Z" fill="url(#paint31_radial)"/>
<path fill-rule="evenodd" clip-rule="evenodd" d="M190.056 294.727L205.443 316.581L178.823 318.98L163.435 297.125L190.056 294.727Z" fill="url(#paint32_radial)"/>
</g>
<path fill-rule="evenodd" clip-rule="evenodd" d="M149.991 223.31L158.074 221.966L163.28 228.295L155.197 229.638L149.991 223.31Z" fill="url(#paint33_radial)"/>
<path fill-rule="evenodd" clip-rule="evenodd" d="M160.951 214.295L158.073 221.967L163.279 228.295L166.156 220.623L160.951 214.295Z" fill="url(#paint34_radial)"/>
<path fill-rule="evenodd" clip-rule="evenodd" d="M152.872 215.636L160.955 214.293L158.077 221.965L149.994 223.308L152.872 215.636Z" fill="url(#paint35_radial)"/>
<path fill-rule="evenodd" clip-rule="evenodd" d="M455.546 279.863L469.4 275.246L480.325 284.936L466.471 289.552L455.546 279.863Z" fill="url(#paint36_linear)"/>
<path fill-rule="evenodd" clip-rule="evenodd" d="M472.329 260.941L469.4 275.247L480.325 284.936L483.254 270.63L472.329 260.941Z" fill="url(#paint37_linear)"/>
<path fill-rule="evenodd" clip-rule="evenodd" d="M458.477 265.556L472.33 260.939L469.402 275.245L455.548 279.861L458.477 265.556Z" fill="url(#paint38_linear)"/>
<g filter="url(#filter7_f)">
<path fill-rule="evenodd" clip-rule="evenodd" d="M95.0034 110.834L142.189 119.993L157.85 165.436L110.665 156.277L95.0034 110.834Z" fill="url(#paint39_linear)"/>
<path fill-rule="evenodd" clip-rule="evenodd" d="M173.712 83.7089L142.188 119.994L157.849 165.437L189.373 129.152L173.712 83.7089Z" fill="url(#paint40_linear)"/>
<path fill-rule="evenodd" clip-rule="evenodd" d="M126.525 74.5509L173.71 83.7094L142.186 119.994L95.0006 110.836L126.525 74.5509Z" fill="url(#paint41_linear)"/>
</g>
</g>
<path fill-rule="evenodd" clip-rule="evenodd" d="M273.937 195.447L302.398 211.878V244.742L273.937 228.31V195.447Z" fill="url(#paint42_radial)"/>
<path fill-rule="evenodd" clip-rule="evenodd" d="M330.858 195.447L302.397 211.879V244.743L330.858 228.311V195.447Z" fill="url(#paint43_radial)"/>
<path fill-rule="evenodd" clip-rule="evenodd" d="M302.397 179.015L330.858 195.447L302.397 211.879L273.936 195.447L302.397 179.015Z" fill="url(#paint44_radial)"/>
<path fill-rule="evenodd" clip-rule="evenodd" d="M287.134 203.064L302.398 211.876V229.501L287.134 220.689V203.064Z" fill="url(#paint45_linear)"/>
<path fill-rule="evenodd" clip-rule="evenodd" d="M317.661 203.064L302.397 211.877V229.502L317.661 220.689V203.064Z" fill="url(#paint46_linear)"/>
<path fill-rule="evenodd" clip-rule="evenodd" d="M302.397 194.253L317.661 203.065L302.397 211.878L287.134 203.065L302.397 194.253Z" fill="url(#paint47_linear)"/>
<path d="M252.684 271.805C251.713 271.805 250.774 271.658 249.865 271.363C248.969 271.056 248.263 270.663 247.747 270.184L248.429 268.748C248.92 269.19 249.546 269.552 250.307 269.834C251.081 270.104 251.873 270.24 252.684 270.24C253.752 270.24 254.55 270.062 255.078 269.705C255.606 269.337 255.87 268.852 255.87 268.25C255.87 267.808 255.723 267.452 255.428 267.182C255.146 266.899 254.79 266.685 254.36 266.537C253.942 266.39 253.347 266.224 252.573 266.04C251.603 265.807 250.817 265.573 250.215 265.34C249.626 265.107 249.116 264.75 248.686 264.272C248.269 263.78 248.06 263.123 248.06 262.301C248.06 261.613 248.238 260.993 248.594 260.44C248.963 259.888 249.515 259.446 250.252 259.114C250.989 258.782 251.904 258.617 252.997 258.617C253.758 258.617 254.507 258.715 255.244 258.911C255.981 259.108 256.613 259.39 257.141 259.759L256.533 261.232C255.993 260.888 255.416 260.631 254.802 260.459C254.188 260.274 253.586 260.182 252.997 260.182C251.953 260.182 251.167 260.373 250.639 260.753C250.123 261.134 249.865 261.625 249.865 262.227C249.865 262.669 250.013 263.031 250.307 263.314C250.602 263.584 250.964 263.799 251.394 263.958C251.836 264.106 252.432 264.265 253.181 264.437C254.151 264.671 254.931 264.904 255.52 265.137C256.11 265.371 256.613 265.727 257.031 266.206C257.46 266.685 257.675 267.329 257.675 268.14C257.675 268.815 257.491 269.435 257.123 270C256.754 270.553 256.196 270.995 255.447 271.326C254.697 271.646 253.776 271.805 252.684 271.805Z" fill="#F1F5FF"/>
<path d="M275.876 258.764V271.658H274.034V265.911H266.629V271.658H264.787V258.764H266.629V264.308H274.034V258.764H275.876Z" fill="#F1F5FF"/>
<path d="M293.513 270.055V271.658H284.156V258.764H293.255V260.367H285.998V264.327H292.463V265.892H285.998V270.055H293.513Z" fill="#F1F5FF"/>
<path d="M300.916 258.764H302.758V270.055H309.739V271.658H300.916V258.764Z" fill="#F1F5FF"/>
<path d="M317.629 260.367H313.208V258.764H323.873V260.367H319.453V271.658H317.629V260.367Z" fill="#F1F5FF"/>
<path d="M339.657 270.055V271.658H330.3V258.764H339.4V260.367H332.142V264.327H338.608V265.892H332.142V270.055H339.657Z" fill="#F1F5FF"/>
<path d="M355.681 271.658L352.9 267.698C352.556 267.722 352.286 267.734 352.089 267.734H348.903V271.658H347.061V258.764H352.089C353.759 258.764 355.073 259.163 356.031 259.961C356.989 260.76 357.468 261.859 357.468 263.258C357.468 264.253 357.222 265.1 356.731 265.8C356.24 266.5 355.54 267.01 354.631 267.329L357.689 271.658H355.681ZM352.034 266.169C353.201 266.169 354.091 265.917 354.705 265.414C355.319 264.91 355.626 264.192 355.626 263.258C355.626 262.325 355.319 261.613 354.705 261.122C354.091 260.618 353.201 260.367 352.034 260.367H348.903V266.169H352.034Z" fill="#F1F5FF"/>
<path d="M289.863 318.56C291.01 318.56 291.91 318.834 292.561 319.382C293.212 319.93 293.537 320.684 293.537 321.643C293.537 322.602 293.212 323.356 292.561 323.904C291.91 324.444 291.01 324.713 289.863 324.713H287.448V327.553H286.497V318.56H289.863ZM289.837 323.878C290.728 323.878 291.409 323.686 291.88 323.3C292.351 322.906 292.586 322.354 292.586 321.643C292.586 320.915 292.351 320.358 291.88 319.973C291.409 319.579 290.728 319.382 289.837 319.382H287.448V323.878H289.837Z" fill="#F1F5FF"/>
<path d="M308.015 318.56V327.553H307.103V320.358L303.57 326.409H303.121L299.588 320.397V327.553H298.676V318.56H299.459L303.365 325.227L307.231 318.56H308.015Z" fill="#F1F5FF"/>
<path d="M316.508 327.63C315.84 327.63 315.197 327.523 314.581 327.308C313.973 327.094 313.502 326.812 313.168 326.461L313.54 325.728C313.865 326.054 314.298 326.319 314.838 326.525C315.377 326.722 315.934 326.82 316.508 326.82C317.313 326.82 317.916 326.675 318.319 326.384C318.721 326.084 318.923 325.698 318.923 325.227C318.923 324.868 318.811 324.581 318.589 324.367C318.375 324.152 318.109 323.99 317.792 323.878C317.475 323.759 317.034 323.63 316.469 323.493C315.792 323.322 315.253 323.159 314.85 323.005C314.448 322.842 314.101 322.598 313.81 322.273C313.527 321.947 313.386 321.506 313.386 320.949C313.386 320.496 313.506 320.084 313.746 319.716C313.985 319.339 314.354 319.04 314.85 318.817C315.347 318.594 315.964 318.483 316.7 318.483C317.214 318.483 317.715 318.556 318.203 318.701C318.7 318.838 319.128 319.031 319.488 319.279L319.167 320.037C318.79 319.789 318.387 319.605 317.959 319.485C317.531 319.356 317.111 319.292 316.7 319.292C315.912 319.292 315.317 319.446 314.915 319.755C314.521 320.054 314.324 320.444 314.324 320.924C314.324 321.283 314.431 321.575 314.645 321.797C314.868 322.011 315.142 322.178 315.467 322.298C315.801 322.41 316.246 322.534 316.803 322.671C317.463 322.834 317.994 322.996 318.396 323.159C318.807 323.313 319.154 323.553 319.437 323.878C319.719 324.195 319.861 324.628 319.861 325.176C319.861 325.63 319.736 326.045 319.488 326.422C319.248 326.79 318.876 327.086 318.37 327.308C317.865 327.523 317.244 327.63 316.508 327.63Z" fill="#F1F5FF"/>
<g filter="url(#filter8_d)">
<path d="M172.835 200.353C172.835 191.36 172.835 186.863 174.585 183.428C176.125 180.407 178.581 177.95 181.603 176.41C185.038 174.66 189.535 174.66 198.528 174.66L542.975 174.66C551.968 174.66 556.465 174.66 559.9 176.41C562.921 177.95 565.378 180.407 566.917 183.428C568.668 186.863 568.668 191.36 568.668 200.353V400.277C568.668 409.27 568.668 413.767 566.917 417.202C565.378 420.223 562.921 422.68 559.9 424.22C556.465 425.97 551.968 425.97 542.975 425.97H198.528C189.535 425.97 185.038 425.97 181.603 424.22C178.581 422.68 176.125 420.223 174.585 417.202C172.835 413.767 172.835 409.27 172.835 400.277V200.353Z" fill="url(#paint48_radial)"/>
</g>
<g filter="url(#filter9_i)">
<path d="M172.835 200.353C172.835 191.36 172.835 186.863 174.585 183.428C176.125 180.407 178.581 177.95 181.603 176.41C185.038 174.66 189.535 174.66 198.528 174.66L542.975 174.66C551.968 174.66 556.465 174.66 559.9 176.41C562.921 177.95 565.378 180.407 566.917 183.428C568.668 186.863 568.668 191.36 568.668 200.353V400.277C568.668 409.27 568.668 413.767 566.917 417.202C565.378 420.223 562.921 422.68 559.9 424.22C556.465 425.97 551.968 425.97 542.975 425.97H198.528C189.535 425.97 185.038 425.97 181.603 424.22C178.581 422.68 176.125 420.223 174.585 417.202C172.835 413.767 172.835 409.27 172.835 400.277V200.353Z" fill="#2F69FF"/>
<path d="M172.835 200.353C172.835 191.36 172.835 186.863 174.585 183.428C176.125 180.407 178.581 177.95 181.603 176.41C185.038 174.66 189.535 174.66 198.528 174.66L542.975 174.66C551.968 174.66 556.465 174.66 559.9 176.41C562.921 177.95 565.378 180.407 566.917 183.428C568.668 186.863 568.668 191.36 568.668 200.353V400.277C568.668 409.27 568.668 413.767 566.917 417.202C565.378 420.223 562.921 422.68 559.9 424.22C556.465 425.97 551.968 425.97 542.975 425.97H198.528C189.535 425.97 185.038 425.97 181.603 424.22C178.581 422.68 176.125 420.223 174.585 417.202C172.835 413.767 172.835 409.27 172.835 400.277V200.353Z" fill="url(#paint49_linear)"/>
</g>
<mask id="mask2" mask-type="alpha" maskUnits="userSpaceOnUse" x="172" y="174" width="397" height="252">
<path d="M172.835 200.353C172.835 191.36 172.835 186.863 174.585 183.428C176.125 180.407 178.581 177.95 181.603 176.41C185.038 174.66 189.535 174.66 198.528 174.66L542.975 174.66C551.968 174.66 556.465 174.66 559.9 176.41C562.921 177.95 565.378 180.407 566.917 183.428C568.668 186.863 568.668 191.36 568.668 200.353V400.277C568.668 409.27 568.668 413.767 566.917 417.202C565.378 420.223 562.921 422.68 559.9 424.22C556.465 425.97 551.968 425.97 542.975 425.97H198.528C189.535 425.97 185.038 425.97 181.603 424.22C178.581 422.68 176.125 420.223 174.585 417.202C172.835 413.767 172.835 409.27 172.835 400.277V200.353Z" fill="url(#paint50_radial)"/>
</mask>
<g mask="url(#mask2)">
<path fill-rule="evenodd" clip-rule="evenodd" d="M498.884 215.336L502.613 220.632L499.891 226.51L496.161 221.214L498.884 215.336Z" fill="url(#paint51_radial)"/>
<path fill-rule="evenodd" clip-rule="evenodd" d="M509.064 220.05L502.612 220.632L499.89 226.51L506.342 225.928L509.064 220.05Z" fill="url(#paint52_radial)"/>
<path fill-rule="evenodd" clip-rule="evenodd" d="M505.335 214.754L509.064 220.05L502.613 220.632L498.883 215.335L505.335 214.754Z" fill="url(#paint53_radial)"/>
<g filter="url(#filter10_f)">
<path fill-rule="evenodd" clip-rule="evenodd" d="M231.434 371.455L246.822 393.309L235.589 417.563L220.201 395.708L231.434 371.455Z" fill="url(#paint54_radial)"/>
<path fill-rule="evenodd" clip-rule="evenodd" d="M273.441 390.91L246.821 393.309L235.588 417.563L262.209 415.164L273.441 390.91Z" fill="url(#paint55_radial)"/>
<path fill-rule="evenodd" clip-rule="evenodd" d="M258.056 369.057L273.443 390.911L246.823 393.31L231.435 371.455L258.056 369.057Z" fill="url(#paint56_radial)"/>
</g>
<path fill-rule="evenodd" clip-rule="evenodd" d="M217.991 297.64L226.074 296.296L231.28 302.625L223.197 303.968L217.991 297.64Z" fill="url(#paint57_radial)"/>
<path fill-rule="evenodd" clip-rule="evenodd" d="M228.951 288.625L226.073 296.297L231.279 302.625L234.156 294.953L228.951 288.625Z" fill="url(#paint58_radial)"/>
<path fill-rule="evenodd" clip-rule="evenodd" d="M220.872 289.966L228.955 288.623L226.077 296.295L217.994 297.639L220.872 289.966Z" fill="url(#paint59_radial)"/>
<path fill-rule="evenodd" clip-rule="evenodd" d="M523.546 354.193L537.4 349.576L548.325 359.266L534.471 363.882L523.546 354.193Z" fill="url(#paint60_linear)"/>
<path fill-rule="evenodd" clip-rule="evenodd" d="M540.329 335.271L537.4 349.577L548.325 359.266L551.254 344.96L540.329 335.271Z" fill="url(#paint61_linear)"/>
<path fill-rule="evenodd" clip-rule="evenodd" d="M526.477 339.886L540.33 335.269L537.402 349.575L523.548 354.192L526.477 339.886Z" fill="url(#paint62_linear)"/>
<g filter="url(#filter11_f)">
<path fill-rule="evenodd" clip-rule="evenodd" d="M163.003 185.164L210.189 194.323L225.85 239.766L178.665 230.607L163.003 185.164Z" fill="url(#paint63_linear)"/>
<path fill-rule="evenodd" clip-rule="evenodd" d="M241.712 158.039L210.188 194.324L225.849 239.767L257.373 203.482L241.712 158.039Z" fill="url(#paint64_linear)"/>
<path fill-rule="evenodd" clip-rule="evenodd" d="M194.525 148.881L241.71 158.039L210.186 194.324L163.001 185.166L194.525 148.881Z" fill="url(#paint65_linear)"/>
</g>
</g>
<path fill-rule="evenodd" clip-rule="evenodd" d="M341.937 269.777L370.398 286.208V319.072L341.937 302.64V269.777Z" fill="url(#paint66_radial)"/>
<path fill-rule="evenodd" clip-rule="evenodd" d="M398.858 269.777L370.397 286.209V319.073L398.858 302.641V269.777Z" fill="url(#paint67_radial)"/>
<path fill-rule="evenodd" clip-rule="evenodd" d="M370.397 253.345L398.858 269.777L370.397 286.209L341.936 269.777L370.397 253.345Z" fill="url(#paint68_radial)"/>
<path fill-rule="evenodd" clip-rule="evenodd" d="M355.134 277.394L370.398 286.206V303.831L355.134 295.019V277.394Z" fill="url(#paint69_linear)"/>
<path fill-rule="evenodd" clip-rule="evenodd" d="M385.661 277.395L370.397 286.207V303.832L385.661 295.019V277.395Z" fill="url(#paint70_linear)"/>
<path fill-rule="evenodd" clip-rule="evenodd" d="M370.397 268.583L385.661 277.395L370.397 286.208L355.134 277.395L370.397 268.583Z" fill="url(#paint71_linear)"/>
<path d="M320.684 346.135C319.713 346.135 318.774 345.988 317.865 345.693C316.969 345.386 316.263 344.993 315.747 344.514L316.429 343.078C316.92 343.52 317.546 343.882 318.307 344.164C319.081 344.435 319.873 344.57 320.684 344.57C321.752 344.57 322.55 344.392 323.078 344.035C323.606 343.667 323.87 343.182 323.87 342.58C323.87 342.138 323.723 341.782 323.428 341.512C323.146 341.23 322.79 341.015 322.36 340.867C321.942 340.72 321.347 340.554 320.573 340.37C319.603 340.137 318.817 339.903 318.215 339.67C317.626 339.437 317.116 339.081 316.686 338.602C316.269 338.11 316.06 337.453 316.06 336.631C316.06 335.943 316.238 335.323 316.594 334.77C316.963 334.218 317.515 333.776 318.252 333.444C318.989 333.113 319.904 332.947 320.997 332.947C321.758 332.947 322.507 333.045 323.244 333.241C323.981 333.438 324.613 333.72 325.141 334.089L324.533 335.562C323.993 335.219 323.416 334.961 322.802 334.789C322.188 334.605 321.586 334.512 320.997 334.512C319.953 334.512 319.167 334.703 318.639 335.083C318.123 335.464 317.865 335.955 317.865 336.557C317.865 336.999 318.013 337.361 318.307 337.644C318.602 337.914 318.964 338.129 319.394 338.289C319.836 338.436 320.432 338.595 321.181 338.767C322.151 339.001 322.931 339.234 323.52 339.467C324.11 339.701 324.613 340.057 325.031 340.536C325.46 341.015 325.675 341.659 325.675 342.47C325.675 343.145 325.491 343.765 325.123 344.33C324.754 344.883 324.196 345.325 323.447 345.656C322.697 345.976 321.776 346.135 320.684 346.135Z" fill="#F1F5FF"/>
<path d="M343.876 333.094V345.988H342.034V340.241H334.629V345.988H332.787V333.094H334.629V338.638H342.034V333.094H343.876Z" fill="#F1F5FF"/>
<path d="M361.513 344.385V345.988H352.156V333.094H361.255V334.697H353.998V338.657H360.463V340.223H353.998V344.385H361.513Z" fill="#F1F5FF"/>
<path d="M368.916 333.094H370.758V344.385H377.739V345.988H368.916V333.094Z" fill="#F1F5FF"/>
<path d="M385.629 334.697H381.208V333.094H391.873V334.697H387.453V345.988H385.629V334.697Z" fill="#F1F5FF"/>
<path d="M407.657 344.385V345.988H398.3V333.094H407.4V334.697H400.142V338.657H406.608V340.223H400.142V344.385H407.657Z" fill="#F1F5FF"/>
<path d="M423.681 345.988L420.9 342.028C420.556 342.052 420.286 342.065 420.089 342.065H416.903V345.988H415.061V333.094H420.089C421.759 333.094 423.073 333.493 424.031 334.291C424.989 335.09 425.468 336.189 425.468 337.589C425.468 338.583 425.222 339.431 424.731 340.13C424.24 340.83 423.54 341.34 422.631 341.659L425.689 345.988H423.681ZM420.034 340.499C421.201 340.499 422.091 340.247 422.705 339.744C423.319 339.24 423.626 338.522 423.626 337.589C423.626 336.655 423.319 335.943 422.705 335.452C422.091 334.948 421.201 334.697 420.034 334.697H416.903V340.499H420.034Z" fill="#F1F5FF"/>
<path d="M357.863 392.89C359.01 392.89 359.91 393.164 360.561 393.712C361.212 394.26 361.537 395.014 361.537 395.973C361.537 396.932 361.212 397.686 360.561 398.234C359.91 398.774 359.01 399.044 357.863 399.044H355.448V401.883H354.497V392.89H357.863ZM357.837 398.209C358.728 398.209 359.409 398.016 359.88 397.63C360.351 397.236 360.586 396.684 360.586 395.973C360.586 395.245 360.351 394.689 359.88 394.303C359.409 393.909 358.728 393.712 357.837 393.712H355.448V398.209H357.837Z" fill="#F1F5FF"/>
<path d="M376.015 392.89V401.883H375.103V394.689L371.57 400.739H371.121L367.588 394.727V401.883H366.676V392.89H367.459L371.365 399.557L375.231 392.89H376.015Z" fill="#F1F5FF"/>
<path d="M384.508 401.96C383.84 401.96 383.197 401.853 382.581 401.639C381.973 401.424 381.502 401.142 381.168 400.791L381.54 400.058C381.865 400.384 382.298 400.649 382.838 400.855C383.377 401.052 383.934 401.15 384.508 401.15C385.313 401.15 385.916 401.005 386.319 400.714C386.721 400.414 386.923 400.028 386.923 399.557C386.923 399.198 386.811 398.911 386.589 398.697C386.375 398.483 386.109 398.32 385.792 398.209C385.475 398.089 385.034 397.96 384.469 397.823C383.792 397.652 383.253 397.489 382.85 397.335C382.448 397.172 382.101 396.928 381.81 396.603C381.527 396.277 381.386 395.836 381.386 395.28C381.386 394.826 381.506 394.415 381.746 394.046C381.985 393.669 382.354 393.37 382.85 393.147C383.347 392.924 383.964 392.813 384.7 392.813C385.214 392.813 385.715 392.886 386.203 393.031C386.7 393.168 387.128 393.361 387.488 393.609L387.167 394.367C386.79 394.119 386.387 393.935 385.959 393.815C385.531 393.687 385.111 393.622 384.7 393.622C383.912 393.622 383.317 393.776 382.915 394.085C382.521 394.385 382.324 394.774 382.324 395.254C382.324 395.614 382.431 395.905 382.645 396.127C382.868 396.341 383.142 396.508 383.467 396.628C383.801 396.74 384.246 396.864 384.803 397.001C385.463 397.164 385.994 397.326 386.396 397.489C386.807 397.643 387.154 397.883 387.437 398.209C387.719 398.525 387.861 398.958 387.861 399.506C387.861 399.96 387.736 400.375 387.488 400.752C387.248 401.12 386.876 401.416 386.37 401.639C385.865 401.853 385.244 401.96 384.508 401.96Z" fill="#F1F5FF"/>
<defs>
<filter id="filter0_d" x="0.148989" y="0.297977" width="447.237" height="302.714" filterUnits="userSpaceOnUse" color-interpolation-filters="sRGB">
<feFlood flood-opacity="0" result="BackgroundImageFix"/>
<feColorMatrix in="SourceAlpha" type="matrix" values="0 0 0 0 0 0 0 0 0 0 0 0 0 0 0 0 0 0 127 0"/>
<feOffset dx="12.851"/>
<feGaussianBlur stdDeviation="12.851"/>
<feColorMatrix type="matrix" values="0 0 0 0 0.0541667 0 0 0 0 0.160743 0 0 0 0 0.433333 0 0 0 0.26 0"/>
<feBlend mode="normal" in2="BackgroundImageFix" result="effect1_dropShadow"/>
<feBlend mode="normal" in="SourceGraphic" in2="effect1_dropShadow" result="shape"/>
</filter>
<filter id="filter1_i" x="11" y="24" width="397.833" height="253.31" filterUnits="userSpaceOnUse" color-interpolation-filters="sRGB">
<feFlood flood-opacity="0" result="BackgroundImageFix"/>
<feBlend mode="normal" in="SourceGraphic" in2="BackgroundImageFix" result="shape"/>
<feColorMatrix in="SourceAlpha" type="matrix" values="0 0 0 0 0 0 0 0 0 0 0 0 0 0 0 0 0 0 127 0" result="hardAlpha"/>
<feOffset dx="-2" dy="-2"/>
<feGaussianBlur stdDeviation="1.5"/>
<feComposite in2="hardAlpha" operator="arithmetic" k2="-1" k3="1"/>
<feColorMatrix type="matrix" values="0 0 0 0 0.202066 0 0 0 0 0.265654 0 0 0 0 0.429167 0 0 0 0.34 0"/>
<feBlend mode="normal" in2="shape" result="effect1_innerShadow"/>
</filter>
<filter id="filter2_f" x="52.3371" y="212.367" width="69.3004" height="64.5641" filterUnits="userSpaceOnUse" color-interpolation-filters="sRGB">
<feFlood flood-opacity="0" result="BackgroundImageFix"/>
<feBlend mode="normal" in="SourceGraphic" in2="BackgroundImageFix" result="shape"/>
<feGaussianBlur stdDeviation="4.01453" result="effect1_foregroundBlur"/>
</filter>
<filter id="filter3_f" x="-15.9057" y="-24.583" width="132.515" height="140.493" filterUnits="userSpaceOnUse" color-interpolation-filters="sRGB">
<feFlood flood-opacity="0" result="BackgroundImageFix"/>
<feBlend mode="normal" in="SourceGraphic" in2="BackgroundImageFix" result="shape"/>
<feGaussianBlur stdDeviation="5.62034" result="effect1_foregroundBlur"/>
</filter>
<filter id="filter4_d" x="91.9839" y="74.6281" width="447.237" height="302.714" filterUnits="userSpaceOnUse" color-interpolation-filters="sRGB">
<feFlood flood-opacity="0" result="BackgroundImageFix"/>
<feColorMatrix in="SourceAlpha" type="matrix" values="0 0 0 0 0 0 0 0 0 0 0 0 0 0 0 0 0 0 127 0"/>
<feOffset dx="12.851"/>
<feGaussianBlur stdDeviation="12.851"/>
<feColorMatrix type="matrix" values="0 0 0 0 0.0541667 0 0 0 0 0.160743 0 0 0 0 0.433333 0 0 0 0.26 0"/>
<feBlend mode="normal" in2="BackgroundImageFix" result="effect1_dropShadow"/>
<feBlend mode="normal" in="SourceGraphic" in2="effect1_dropShadow" result="shape"/>
</filter>
<filter id="filter5_i" x="102.835" y="98.3301" width="397.833" height="253.31" filterUnits="userSpaceOnUse" color-interpolation-filters="sRGB">
<feFlood flood-opacity="0" result="BackgroundImageFix"/>
<feBlend mode="normal" in="SourceGraphic" in2="BackgroundImageFix" result="shape"/>
<feColorMatrix in="SourceAlpha" type="matrix" values="0 0 0 0 0 0 0 0 0 0 0 0 0 0 0 0 0 0 127 0" result="hardAlpha"/>
<feOffset dx="-2" dy="-2"/>
<feGaussianBlur stdDeviation="1.5"/>
<feComposite in2="hardAlpha" operator="arithmetic" k2="-1" k3="1"/>
<feColorMatrix type="matrix" values="0 0 0 0 0.202066 0 0 0 0 0.265654 0 0 0 0 0.429167 0 0 0 0.34 0"/>
<feBlend mode="normal" in2="shape" result="effect1_innerShadow"/>
</filter>
<filter id="filter6_f" x="144.172" y="286.698" width="69.3004" height="64.5641" filterUnits="userSpaceOnUse" color-interpolation-filters="sRGB">
<feFlood flood-opacity="0" result="BackgroundImageFix"/>
<feBlend mode="normal" in="SourceGraphic" in2="BackgroundImageFix" result="shape"/>
<feGaussianBlur stdDeviation="4.01453" result="effect1_foregroundBlur"/>
</filter>
<filter id="filter7_f" x="75.9292" y="49.7471" width="132.515" height="140.493" filterUnits="userSpaceOnUse" color-interpolation-filters="sRGB">
<feFlood flood-opacity="0" result="BackgroundImageFix"/>
<feBlend mode="normal" in="SourceGraphic" in2="BackgroundImageFix" result="shape"/>
<feGaussianBlur stdDeviation="5.62034" result="effect1_foregroundBlur"/>
</filter>
<filter id="filter8_d" x="159.984" y="148.958" width="447.237" height="302.714" filterUnits="userSpaceOnUse" color-interpolation-filters="sRGB">
<feFlood flood-opacity="0" result="BackgroundImageFix"/>
<feColorMatrix in="SourceAlpha" type="matrix" values="0 0 0 0 0 0 0 0 0 0 0 0 0 0 0 0 0 0 127 0"/>
<feOffset dx="12.851"/>
<feGaussianBlur stdDeviation="12.851"/>
<feColorMatrix type="matrix" values="0 0 0 0 0.0541667 0 0 0 0 0.160743 0 0 0 0 0.433333 0 0 0 0.26 0"/>
<feBlend mode="normal" in2="BackgroundImageFix" result="effect1_dropShadow"/>
<feBlend mode="normal" in="SourceGraphic" in2="effect1_dropShadow" result="shape"/>
</filter>
<filter id="filter9_i" x="170.835" y="172.66" width="397.833" height="253.31" filterUnits="userSpaceOnUse" color-interpolation-filters="sRGB">
<feFlood flood-opacity="0" result="BackgroundImageFix"/>
<feBlend mode="normal" in="SourceGraphic" in2="BackgroundImageFix" result="shape"/>
<feColorMatrix in="SourceAlpha" type="matrix" values="0 0 0 0 0 0 0 0 0 0 0 0 0 0 0 0 0 0 127 0" result="hardAlpha"/>
<feOffset dx="-2" dy="-2"/>
<feGaussianBlur stdDeviation="1.5"/>
<feComposite in2="hardAlpha" operator="arithmetic" k2="-1" k3="1"/>
<feColorMatrix type="matrix" values="0 0 0 0 0.202066 0 0 0 0 0.265654 0 0 0 0 0.429167 0 0 0 0.34 0"/>
<feBlend mode="normal" in2="shape" result="effect1_innerShadow"/>
</filter>
<filter id="filter10_f" x="212.172" y="361.028" width="69.3004" height="64.5641" filterUnits="userSpaceOnUse" color-interpolation-filters="sRGB">
<feFlood flood-opacity="0" result="BackgroundImageFix"/>
<feBlend mode="normal" in="SourceGraphic" in2="BackgroundImageFix" result="shape"/>
<feGaussianBlur stdDeviation="4.01453" result="effect1_foregroundBlur"/>
</filter>
<filter id="filter11_f" x="143.929" y="124.077" width="132.515" height="140.493" filterUnits="userSpaceOnUse" color-interpolation-filters="sRGB">
<feFlood flood-opacity="0" result="BackgroundImageFix"/>
<feBlend mode="normal" in="SourceGraphic" in2="BackgroundImageFix" result="shape"/>
<feGaussianBlur stdDeviation="5.62034" result="effect1_foregroundBlur"/>
</filter>
<radialGradient id="paint0_radial" cx="0" cy="0" r="1" gradientUnits="userSpaceOnUse" gradientTransform="translate(403.212 271.288) rotate(-141.402) scale(231.663 330.144)">
<stop stop-color="#6691FF"/>
<stop offset="1" stop-color="#2F69FF"/>
</radialGradient>
<linearGradient id="paint1_linear" x1="-40.1672" y1="288.444" x2="414.519" y2="53.273" gradientUnits="userSpaceOnUse">
<stop stop-color="white" stop-opacity="0.42"/>
<stop offset="1" stop-color="white" stop-opacity="0"/>
</linearGradient>
<radialGradient id="paint2_radial" cx="0" cy="0" r="1" gradientUnits="userSpaceOnUse" gradientTransform="translate(403.212 271.288) rotate(-141.402) scale(231.663 330.144)">
<stop stop-color="#6691FF"/>
<stop offset="1" stop-color="#2F69FF"/>
</radialGradient>
<radialGradient id="paint3_radial" cx="0" cy="0" r="1" gradientUnits="userSpaceOnUse" gradientTransform="translate(342.773 71.9827) rotate(172.429) scale(6.64589 3.85078)">
<stop stop-color="#E394FF"/>
<stop offset="1" stop-color="#C92FFF"/>
</radialGradient>
<radialGradient id="paint4_radial" cx="0" cy="0" r="1" gradientUnits="userSpaceOnUse" gradientTransform="translate(342.796 71.9317) rotate(51.9621) scale(9.77371 4.4001)">
<stop stop-color="#F3CEFF"/>
<stop offset="1" stop-color="#DF83FF"/>
</radialGradient>
<radialGradient id="paint5_radial" cx="0" cy="0" r="1" gradientUnits="userSpaceOnUse" gradientTransform="translate(342.778 71.9717) rotate(-65.1491) scale(6.47777 5.02522)">
<stop stop-color="#E18DFF"/>
<stop offset="1" stop-color="#9F11D1"/>
</radialGradient>
<radialGradient id="paint6_radial" cx="0" cy="0" r="1" gradientUnits="userSpaceOnUse" gradientTransform="translate(86.9665 244.693) rotate(172.429) scale(27.4219 15.8889)">
<stop stop-color="#E394FF"/>
<stop offset="1" stop-color="#C92FFF"/>
</radialGradient>
<radialGradient id="paint7_radial" cx="0" cy="0" r="1" gradientUnits="userSpaceOnUse" gradientTransform="translate(87.0625 244.484) rotate(51.9621) scale(40.3277 18.1555)">
<stop stop-color="#F3CEFF"/>
<stop offset="1" stop-color="#DF83FF"/>
</radialGradient>
<radialGradient id="paint8_radial" cx="0" cy="0" r="1" gradientUnits="userSpaceOnUse" gradientTransform="translate(86.988 244.65) rotate(-65.1491) scale(26.7282 20.7348)">
<stop stop-color="#E18DFF"/>
<stop offset="1" stop-color="#9F11D1"/>
</radialGradient>
<radialGradient id="paint9_radial" cx="0" cy="0" r="1" gradientUnits="userSpaceOnUse" gradientTransform="translate(66.2487 147.648) rotate(108.139) scale(8.40672 4.87105)">
<stop stop-color="white"/>
<stop offset="1" stop-color="#C8D7FF"/>
</radialGradient>
<radialGradient id="paint10_radial" cx="0" cy="0" r="1" gradientUnits="userSpaceOnUse" gradientTransform="translate(66.203 147.594) rotate(-12.3277) scale(12.3633 5.56591)">
<stop stop-color="#F9FAFF"/>
<stop offset="1" stop-color="#ACC3FF"/>
</radialGradient>
<radialGradient id="paint11_radial" cx="0" cy="0" r="1" gradientUnits="userSpaceOnUse" gradientTransform="translate(61.0366 141.306) rotate(50.5612) scale(8.17925 14.1669)">
<stop stop-color="#D5E0FF"/>
<stop offset="1" stop-color="white"/>
</radialGradient>
<linearGradient id="paint12_linear" x1="373.369" y1="214.016" x2="378.225" y2="201.589" gradientUnits="userSpaceOnUse">
<stop stop-color="#C60F0F"/>
<stop offset="1" stop-color="#FF6161"/>
</linearGradient>
<linearGradient id="paint13_linear" x1="391.94" y1="196.8" x2="377.301" y2="200.77" gradientUnits="userSpaceOnUse">
<stop stop-color="#FF2C2C"/>
<stop offset="1" stop-color="#FF8A8A"/>
</linearGradient>
<linearGradient id="paint14_linear" x1="366.642" y1="191.225" x2="377.567" y2="200.915" gradientUnits="userSpaceOnUse">
<stop stop-color="#FF7171"/>
<stop offset="1" stop-color="#FFBEBE"/>
</linearGradient>
<linearGradient id="paint15_linear" x1="19.3904" y1="83.574" x2="50.3829" y2="45.7465" gradientUnits="userSpaceOnUse">
<stop stop-color="#FF9E2C"/>
<stop offset="1" stop-color="#FFC98A"/>
</linearGradient>
<linearGradient id="paint16_linear" x1="50.6856" y1="46.6296" x2="97.4907" y2="54.6839" gradientUnits="userSpaceOnUse">
<stop stop-color="#FFB55F"/>
<stop offset="1" stop-color="#C6720F"/>
</linearGradient>
<linearGradient id="paint17_linear" x1="34.6899" y1="0.220834" x2="50.3512" y2="45.664" gradientUnits="userSpaceOnUse">
<stop stop-color="#FFBE71"/>
<stop offset="1" stop-color="#FFE1BE"/>
</linearGradient>
<radialGradient id="paint18_radial" cx="0" cy="0" r="1" gradientUnits="userSpaceOnUse" gradientTransform="translate(210.563 137.607) rotate(147.578) scale(33.7165 19.5361)">
<stop stop-color="white"/>
<stop offset="1" stop-color="#C8D7FF"/>
</radialGradient>
<radialGradient id="paint19_radial" cx="0" cy="0" r="1" gradientUnits="userSpaceOnUse" gradientTransform="translate(210.562 137.326) rotate(27.1111) scale(49.5849 22.323)">
<stop stop-color="#F9FAFF"/>
<stop offset="1" stop-color="#ACC3FF"/>
</radialGradient>
<radialGradient id="paint20_radial" cx="0" cy="0" r="1" gradientUnits="userSpaceOnUse" gradientTransform="translate(210.562 104.685) rotate(90) scale(32.8042 56.8186)">
<stop stop-color="#D5E0FF"/>
<stop offset="1" stop-color="white"/>
</radialGradient>
<linearGradient id="paint21_linear" x1="195.299" y1="146.99" x2="210.563" y2="137.579" gradientUnits="userSpaceOnUse">
<stop stop-color="#FF9E2C"/>
<stop offset="1" stop-color="#FFC98A"/>
</linearGradient>
<linearGradient id="paint22_linear" x1="210.562" y1="137.922" x2="225.826" y2="146.306" gradientUnits="userSpaceOnUse">
<stop stop-color="#FFB55F"/>
<stop offset="1" stop-color="#C6720F"/>
</linearGradient>
<linearGradient id="paint23_linear" x1="210.562" y1="119.923" x2="210.562" y2="137.547" gradientUnits="userSpaceOnUse">
<stop stop-color="#FFBE71"/>
<stop offset="1" stop-color="#FFE1BE"/>
</linearGradient>
<radialGradient id="paint24_radial" cx="0" cy="0" r="1" gradientUnits="userSpaceOnUse" gradientTransform="translate(495.047 345.618) rotate(-141.402) scale(231.663 330.144)">
<stop stop-color="#6691FF"/>
<stop offset="1" stop-color="#2F69FF"/>
</radialGradient>
<linearGradient id="paint25_linear" x1="51.6678" y1="362.774" x2="506.354" y2="127.603" gradientUnits="userSpaceOnUse">
<stop stop-color="white" stop-opacity="0.42"/>
<stop offset="1" stop-color="white" stop-opacity="0"/>
</linearGradient>
<radialGradient id="paint26_radial" cx="0" cy="0" r="1" gradientUnits="userSpaceOnUse" gradientTransform="translate(495.047 345.618) rotate(-141.402) scale(231.663 330.144)">
<stop stop-color="#6691FF"/>
<stop offset="1" stop-color="#2F69FF"/>
</radialGradient>
<radialGradient id="paint27_radial" cx="0" cy="0" r="1" gradientUnits="userSpaceOnUse" gradientTransform="translate(434.608 146.313) rotate(172.429) scale(6.64589 3.85078)">
<stop stop-color="#E394FF"/>
<stop offset="1" stop-color="#C92FFF"/>
</radialGradient>
<radialGradient id="paint28_radial" cx="0" cy="0" r="1" gradientUnits="userSpaceOnUse" gradientTransform="translate(434.631 146.262) rotate(51.9621) scale(9.77371 4.4001)">
<stop stop-color="#F3CEFF"/>
<stop offset="1" stop-color="#DF83FF"/>
</radialGradient>
<radialGradient id="paint29_radial" cx="0" cy="0" r="1" gradientUnits="userSpaceOnUse" gradientTransform="translate(434.613 146.302) rotate(-65.1491) scale(6.47777 5.02522)">
<stop stop-color="#E18DFF"/>
<stop offset="1" stop-color="#9F11D1"/>
</radialGradient>
<radialGradient id="paint30_radial" cx="0" cy="0" r="1" gradientUnits="userSpaceOnUse" gradientTransform="translate(178.801 319.023) rotate(172.429) scale(27.4219 15.8889)">
<stop stop-color="#E394FF"/>
<stop offset="1" stop-color="#C92FFF"/>
</radialGradient>
<radialGradient id="paint31_radial" cx="0" cy="0" r="1" gradientUnits="userSpaceOnUse" gradientTransform="translate(178.897 318.814) rotate(51.9621) scale(40.3277 18.1555)">
<stop stop-color="#F3CEFF"/>
<stop offset="1" stop-color="#DF83FF"/>
</radialGradient>
<radialGradient id="paint32_radial" cx="0" cy="0" r="1" gradientUnits="userSpaceOnUse" gradientTransform="translate(178.823 318.98) rotate(-65.1491) scale(26.7282 20.7348)">
<stop stop-color="#E18DFF"/>
<stop offset="1" stop-color="#9F11D1"/>
</radialGradient>
<radialGradient id="paint33_radial" cx="0" cy="0" r="1" gradientUnits="userSpaceOnUse" gradientTransform="translate(158.084 221.978) rotate(108.139) scale(8.40672 4.87105)">
<stop stop-color="white"/>
<stop offset="1" stop-color="#C8D7FF"/>
</radialGradient>
<radialGradient id="paint34_radial" cx="0" cy="0" r="1" gradientUnits="userSpaceOnUse" gradientTransform="translate(158.038 221.924) rotate(-12.3277) scale(12.3633 5.56591)">
<stop stop-color="#F9FAFF"/>
<stop offset="1" stop-color="#ACC3FF"/>
</radialGradient>
<radialGradient id="paint35_radial" cx="0" cy="0" r="1" gradientUnits="userSpaceOnUse" gradientTransform="translate(152.872 215.636) rotate(50.5612) scale(8.17925 14.1669)">
<stop stop-color="#D5E0FF"/>
<stop offset="1" stop-color="white"/>
</radialGradient>
<linearGradient id="paint36_linear" x1="465.204" y1="288.346" x2="470.06" y2="275.92" gradientUnits="userSpaceOnUse">
<stop stop-color="#C60F0F"/>
<stop offset="1" stop-color="#FF6161"/>
</linearGradient>
<linearGradient id="paint37_linear" x1="483.775" y1="271.13" x2="469.136" y2="275.1" gradientUnits="userSpaceOnUse">
<stop stop-color="#FF2C2C"/>
<stop offset="1" stop-color="#FF8A8A"/>
</linearGradient>
<linearGradient id="paint38_linear" x1="458.477" y1="265.556" x2="469.402" y2="275.245" gradientUnits="userSpaceOnUse">
<stop stop-color="#FF7171"/>
<stop offset="1" stop-color="#FFBEBE"/>
</linearGradient>
<linearGradient id="paint39_linear" x1="111.225" y1="157.904" x2="142.218" y2="120.077" gradientUnits="userSpaceOnUse">
<stop stop-color="#FF9E2C"/>
<stop offset="1" stop-color="#FFC98A"/>
</linearGradient>
<linearGradient id="paint40_linear" x1="142.521" y1="120.96" x2="189.326" y2="129.014" gradientUnits="userSpaceOnUse">
<stop stop-color="#FFB55F"/>
<stop offset="1" stop-color="#C6720F"/>
</linearGradient>
<linearGradient id="paint41_linear" x1="126.525" y1="74.5509" x2="142.186" y2="119.994" gradientUnits="userSpaceOnUse">
<stop stop-color="#FFBE71"/>
<stop offset="1" stop-color="#FFE1BE"/>
</linearGradient>
<radialGradient id="paint42_radial" cx="0" cy="0" r="1" gradientUnits="userSpaceOnUse" gradientTransform="translate(302.398 211.937) rotate(147.578) scale(33.7165 19.5361)">
<stop stop-color="white"/>
<stop offset="1" stop-color="#C8D7FF"/>
</radialGradient>
<radialGradient id="paint43_radial" cx="0" cy="0" r="1" gradientUnits="userSpaceOnUse" gradientTransform="translate(302.397 211.656) rotate(27.1111) scale(49.5849 22.323)">
<stop stop-color="#F9FAFF"/>
<stop offset="1" stop-color="#ACC3FF"/>
</radialGradient>
<radialGradient id="paint44_radial" cx="0" cy="0" r="1" gradientUnits="userSpaceOnUse" gradientTransform="translate(302.397 179.015) rotate(90) scale(32.8042 56.8186)">
<stop stop-color="#D5E0FF"/>
<stop offset="1" stop-color="white"/>
</radialGradient>
<linearGradient id="paint45_linear" x1="287.134" y1="221.32" x2="302.398" y2="211.909" gradientUnits="userSpaceOnUse">
<stop stop-color="#FF9E2C"/>
<stop offset="1" stop-color="#FFC98A"/>
</linearGradient>
<linearGradient id="paint46_linear" x1="302.397" y1="212.252" x2="317.661" y2="220.636" gradientUnits="userSpaceOnUse">
<stop stop-color="#FFB55F"/>
<stop offset="1" stop-color="#C6720F"/>
</linearGradient>
<linearGradient id="paint47_linear" x1="302.397" y1="194.253" x2="302.397" y2="211.878" gradientUnits="userSpaceOnUse">
<stop stop-color="#FFBE71"/>
<stop offset="1" stop-color="#FFE1BE"/>
</linearGradient>
<radialGradient id="paint48_radial" cx="0" cy="0" r="1" gradientUnits="userSpaceOnUse" gradientTransform="translate(563.047 419.948) rotate(-141.402) scale(231.663 330.144)">
<stop stop-color="#6691FF"/>
<stop offset="1" stop-color="#2F69FF"/>
</radialGradient>
<linearGradient id="paint49_linear" x1="119.668" y1="437.104" x2="574.354" y2="201.933" gradientUnits="userSpaceOnUse">
<stop stop-color="white" stop-opacity="0.42"/>
<stop offset="1" stop-color="white" stop-opacity="0"/>
</linearGradient>
<radialGradient id="paint50_radial" cx="0" cy="0" r="1" gradientUnits="userSpaceOnUse" gradientTransform="translate(563.047 419.948) rotate(-141.402) scale(231.663 330.144)">
<stop stop-color="#6691FF"/>
<stop offset="1" stop-color="#2F69FF"/>
</radialGradient>
<radialGradient id="paint51_radial" cx="0" cy="0" r="1" gradientUnits="userSpaceOnUse" gradientTransform="translate(502.608 220.643) rotate(172.429) scale(6.64589 3.85078)">
<stop stop-color="#E394FF"/>
<stop offset="1" stop-color="#C92FFF"/>
</radialGradient>
<radialGradient id="paint52_radial" cx="0" cy="0" r="1" gradientUnits="userSpaceOnUse" gradientTransform="translate(502.631 220.592) rotate(51.9621) scale(9.77371 4.4001)">
<stop stop-color="#F3CEFF"/>
<stop offset="1" stop-color="#DF83FF"/>
</radialGradient>
<radialGradient id="paint53_radial" cx="0" cy="0" r="1" gradientUnits="userSpaceOnUse" gradientTransform="translate(502.613 220.632) rotate(-65.1491) scale(6.47777 5.02522)">
<stop stop-color="#E18DFF"/>
<stop offset="1" stop-color="#9F11D1"/>
</radialGradient>
<radialGradient id="paint54_radial" cx="0" cy="0" r="1" gradientUnits="userSpaceOnUse" gradientTransform="translate(246.801 393.353) rotate(172.429) scale(27.4219 15.8889)">
<stop stop-color="#E394FF"/>
<stop offset="1" stop-color="#C92FFF"/>
</radialGradient>
<radialGradient id="paint55_radial" cx="0" cy="0" r="1" gradientUnits="userSpaceOnUse" gradientTransform="translate(246.897 393.144) rotate(51.9621) scale(40.3277 18.1555)">
<stop stop-color="#F3CEFF"/>
<stop offset="1" stop-color="#DF83FF"/>
</radialGradient>
<radialGradient id="paint56_radial" cx="0" cy="0" r="1" gradientUnits="userSpaceOnUse" gradientTransform="translate(246.823 393.31) rotate(-65.1491) scale(26.7282 20.7348)">
<stop stop-color="#E18DFF"/>
<stop offset="1" stop-color="#9F11D1"/>
</radialGradient>
<radialGradient id="paint57_radial" cx="0" cy="0" r="1" gradientUnits="userSpaceOnUse" gradientTransform="translate(226.084 296.308) rotate(108.139) scale(8.40672 4.87105)">
<stop stop-color="white"/>
<stop offset="1" stop-color="#C8D7FF"/>
</radialGradient>
<radialGradient id="paint58_radial" cx="0" cy="0" r="1" gradientUnits="userSpaceOnUse" gradientTransform="translate(226.038 296.254) rotate(-12.3277) scale(12.3633 5.56591)">
<stop stop-color="#F9FAFF"/>
<stop offset="1" stop-color="#ACC3FF"/>
</radialGradient>
<radialGradient id="paint59_radial" cx="0" cy="0" r="1" gradientUnits="userSpaceOnUse" gradientTransform="translate(220.872 289.966) rotate(50.5612) scale(8.17925 14.1669)">
<stop stop-color="#D5E0FF"/>
<stop offset="1" stop-color="white"/>
</radialGradient>
<linearGradient id="paint60_linear" x1="533.204" y1="362.676" x2="538.06" y2="350.25" gradientUnits="userSpaceOnUse">
<stop stop-color="#C60F0F"/>
<stop offset="1" stop-color="#FF6161"/>
</linearGradient>
<linearGradient id="paint61_linear" x1="551.775" y1="345.46" x2="537.136" y2="349.43" gradientUnits="userSpaceOnUse">
<stop stop-color="#FF2C2C"/>
<stop offset="1" stop-color="#FF8A8A"/>
</linearGradient>
<linearGradient id="paint62_linear" x1="526.477" y1="339.886" x2="537.402" y2="349.575" gradientUnits="userSpaceOnUse">
<stop stop-color="#FF7171"/>
<stop offset="1" stop-color="#FFBEBE"/>
</linearGradient>
<linearGradient id="paint63_linear" x1="179.225" y1="232.234" x2="210.218" y2="194.407" gradientUnits="userSpaceOnUse">
<stop stop-color="#FF9E2C"/>
<stop offset="1" stop-color="#FFC98A"/>
</linearGradient>
<linearGradient id="paint64_linear" x1="210.521" y1="195.29" x2="257.326" y2="203.344" gradientUnits="userSpaceOnUse">
<stop stop-color="#FFB55F"/>
<stop offset="1" stop-color="#C6720F"/>
</linearGradient>
<linearGradient id="paint65_linear" x1="194.525" y1="148.881" x2="210.186" y2="194.324" gradientUnits="userSpaceOnUse">
<stop stop-color="#FFBE71"/>
<stop offset="1" stop-color="#FFE1BE"/>
</linearGradient>
<radialGradient id="paint66_radial" cx="0" cy="0" r="1" gradientUnits="userSpaceOnUse" gradientTransform="translate(370.398 286.267) rotate(147.578) scale(33.7165 19.5361)">
<stop stop-color="white"/>
<stop offset="1" stop-color="#C8D7FF"/>
</radialGradient>
<radialGradient id="paint67_radial" cx="0" cy="0" r="1" gradientUnits="userSpaceOnUse" gradientTransform="translate(370.397 285.986) rotate(27.1111) scale(49.5849 22.323)">
<stop stop-color="#F9FAFF"/>
<stop offset="1" stop-color="#ACC3FF"/>
</radialGradient>
<radialGradient id="paint68_radial" cx="0" cy="0" r="1" gradientUnits="userSpaceOnUse" gradientTransform="translate(370.397 253.345) rotate(90) scale(32.8042 56.8186)">
<stop stop-color="#D5E0FF"/>
<stop offset="1" stop-color="white"/>
</radialGradient>
<linearGradient id="paint69_linear" x1="355.134" y1="295.65" x2="370.398" y2="286.239" gradientUnits="userSpaceOnUse">
<stop stop-color="#FF9E2C"/>
<stop offset="1" stop-color="#FFC98A"/>
</linearGradient>
<linearGradient id="paint70_linear" x1="370.397" y1="286.582" x2="385.661" y2="294.966" gradientUnits="userSpaceOnUse">
<stop stop-color="#FFB55F"/>
<stop offset="1" stop-color="#C6720F"/>
</linearGradient>
<linearGradient id="paint71_linear" x1="370.397" y1="268.583" x2="370.397" y2="286.208" gradientUnits="userSpaceOnUse">
<stop stop-color="#FFBE71"/>
<stop offset="1" stop-color="#FFE1BE"/>
</linearGradient>
</defs>
</svg>
