<svg width="20" height="21" viewBox="0 0 20 21" fill="none" xmlns="http://www.w3.org/2000/svg">
<path fill-rule="evenodd" clip-rule="evenodd" d="M19.5 10V15.0018C19.4996 16.2554 19.071 17.4714 18.2854 18.4483C17.5937 19.3083 16.6618 19.9376 15.6133 20.2596L15.2967 19.31C15.746 19.1747 16.1725 18.9698 16.5602 18.7015C17.108 18.3226 17.5649 17.8268 17.898 17.25L18.3311 16.5H15C14.6022 16.5 14.2206 16.342 13.9393 16.0607C13.658 15.7794 13.5 15.3978 13.5 15V11C13.5 10.6022 13.658 10.2206 13.9393 9.93934C14.2206 9.65804 14.6022 9.5 15 9.5H18.5051L18.4341 8.93738C18.1748 6.88347 17.1749 4.99476 15.6221 3.62564C14.0693 2.25651 12.0702 1.50108 10 1.50108C7.92979 1.50108 5.93073 2.25651 4.3779 3.62564C2.82508 4.99476 1.82522 6.88347 1.56594 8.93738L1.49491 9.5H5C5.39782 9.5 5.77936 9.65804 6.06066 9.93934C6.34196 10.2206 6.5 10.6022 6.5 11V15C6.5 15.3978 6.34196 15.7794 6.06066 16.0607C5.77936 16.342 5.39782 16.5 5 16.5H2C1.60218 16.5 1.22064 16.342 0.93934 16.0607C0.658035 15.7794 0.5 15.3978 0.5 15V10C0.5 4.75314 4.75314 0.5 10 0.5C15.2469 0.5 19.5 4.75314 19.5 10ZM18.5 15.5V10.5H14.5V15.5H18.5ZM1.5 10.5V15.5H5.5V10.5H1.5Z" fill="#23234E"/>
</svg>
