<svg width="143" height="34" viewBox="0 0 143 34" fill="none" xmlns="http://www.w3.org/2000/svg">
<path fill-rule="evenodd" clip-rule="evenodd" d="M0 9.19386L14.3218 17.4626V34L0 25.7313V9.19386Z" fill="url(#paint0_radial)"/>
<path fill-rule="evenodd" clip-rule="evenodd" d="M28.6436 9.19386L14.3218 17.4626V34L28.6436 25.7313V9.19386Z" fill="url(#paint1_radial)"/>
<path fill-rule="evenodd" clip-rule="evenodd" d="M14.3218 0.924927L28.6437 9.19364L14.3218 17.4624L0 9.19364L14.3218 0.924927Z" fill="url(#paint2_radial)"/>
<path fill-rule="evenodd" clip-rule="evenodd" d="M14.3219 26.3307L14.3219 17.4616L6.64111 13.0271L6.64111 21.8961L14.3219 26.3307Z" fill="url(#paint3_linear)"/>
<path fill-rule="evenodd" clip-rule="evenodd" d="M6.64111 13.0271L14.3219 17.4616L22.0028 13.0271L14.3219 8.59258L6.64111 13.0271Z" fill="url(#paint4_linear)"/>
<path fill-rule="evenodd" clip-rule="evenodd" d="M22.0031 21.8961L22.0031 13.0271L14.3223 17.4616L14.3223 26.3307L22.0031 21.8961Z" fill="url(#paint5_linear)"/>
<path d="M44.4129 23.5455C43.5067 23.5455 42.6292 23.4078 41.7804 23.1325C40.9431 22.8458 40.2835 22.4787 39.8018 22.0314L40.4384 20.6893C40.8972 21.1023 41.4822 21.4406 42.1933 21.7045C42.916 21.9568 43.6558 22.083 44.4129 22.083C45.4108 22.083 46.1564 21.9167 46.6496 21.584C47.1428 21.2399 47.3894 20.7868 47.3894 20.2248C47.3894 19.8118 47.2518 19.4792 46.9765 19.2269C46.7127 18.963 46.38 18.7623 45.9786 18.6247C45.5886 18.487 45.0323 18.3322 44.3096 18.1601C43.4035 17.9422 42.6694 17.7242 42.1073 17.5063C41.5567 17.2884 41.0807 16.9557 40.6792 16.5084C40.2892 16.0496 40.0943 15.4359 40.0943 14.6674C40.0943 14.025 40.2606 13.4458 40.5932 12.9296C40.9373 12.4134 41.4535 12.0005 42.1417 11.6908C42.8299 11.3811 43.6845 11.2262 44.7054 11.2262C45.4165 11.2262 46.1162 11.318 46.8044 11.5015C47.4927 11.6851 48.0834 11.9489 48.5766 12.293L48.0088 13.6694C47.5041 13.3483 46.965 13.1074 46.3915 12.9468C45.818 12.7748 45.2559 12.6887 44.7054 12.6887C43.7304 12.6887 42.9963 12.8665 42.503 13.2221C42.0213 13.5777 41.7804 14.0365 41.7804 14.5985C41.7804 15.0115 41.918 15.3499 42.1933 15.6137C42.4686 15.866 42.807 16.0668 43.2085 16.2159C43.6214 16.3535 44.1777 16.5026 44.8774 16.6632C45.7836 16.8812 46.5119 17.0991 47.0625 17.317C47.6131 17.535 48.0834 17.8676 48.4734 18.315C48.8748 18.7623 49.0756 19.3645 49.0756 20.1215C49.0756 20.7524 48.9035 21.3317 48.5594 21.8593C48.2153 22.3755 47.6934 22.7884 46.9937 23.0981C46.294 23.3963 45.4337 23.5455 44.4129 23.5455Z" fill="#2F69FF"/>
<path d="M66.0763 11.3639V23.4078H64.3558V18.0397H57.4391V23.4078H55.7186V11.3639H57.4391V16.5428H64.3558V11.3639H66.0763Z" fill="#2F69FF"/>
<path d="M82.5511 21.9109V23.4078H73.8106V11.3639H82.3102V12.8608H75.5312V16.56H81.5704V18.0225H75.5312V21.9109H82.5511Z" fill="#2F69FF"/>
<path d="M89.4664 11.3639H91.187V21.9109H97.7079V23.4078H89.4664V11.3639Z" fill="#2F69FF"/>
<path d="M105.077 12.8608H100.948V11.3639H110.91V12.8608H106.781V23.4078H105.077V12.8608Z" fill="#2F69FF"/>
<path d="M125.654 21.9109V23.4078H116.913V11.3639H125.413V12.8608H118.634V16.56H124.673V18.0225H118.634V21.9109H125.654Z" fill="#2F69FF"/>
<path d="M140.621 23.4078L138.023 19.7086C137.702 19.7316 137.45 19.743 137.266 19.743H134.29V23.4078H132.569V11.3639H137.266C138.826 11.3639 140.054 11.7367 140.948 12.4823C141.843 13.2278 142.29 14.2544 142.29 15.5621C142.29 16.4912 142.061 17.2826 141.602 17.9364C141.143 18.5902 140.489 19.0663 139.641 19.3645L142.497 23.4078H140.621ZM137.215 18.2805C138.304 18.2805 139.136 18.0454 139.709 17.5751C140.283 17.1048 140.57 16.4338 140.57 15.5621C140.57 14.6903 140.283 14.025 139.709 13.5662C139.136 13.0959 138.304 12.8608 137.215 12.8608H134.29V18.2805H137.215Z" fill="#2F69FF"/>
<defs>
<radialGradient id="paint0_radial" cx="0" cy="0" r="1" gradientUnits="userSpaceOnUse" gradientTransform="translate(14.3218 17.4923) rotate(147.578) scale(16.9666 9.83085)">
<stop stop-color="#7BA0FF"/>
<stop offset="1" stop-color="#2F69FF"/>
</radialGradient>
<radialGradient id="paint1_radial" cx="0" cy="0" r="1" gradientUnits="userSpaceOnUse" gradientTransform="translate(14.3218 17.3501) rotate(27.1111) scale(24.9518 11.2333)">
<stop stop-color="#D2DFFF"/>
<stop offset="1" stop-color="#84A6FF"/>
</radialGradient>
<radialGradient id="paint2_radial" cx="0" cy="0" r="1" gradientUnits="userSpaceOnUse" gradientTransform="translate(14.3218 17.4624) rotate(-90) scale(16.5374 12.8291)">
<stop stop-color="#85A7FF"/>
<stop offset="1" stop-color="#0C40C4"/>
</radialGradient>
<linearGradient id="paint3_linear" x1="6.36616" y1="21.7375" x2="14.3078" y2="17.4535" gradientUnits="userSpaceOnUse">
<stop stop-color="#FF9E2C"/>
<stop offset="1" stop-color="#FFC98A"/>
</linearGradient>
<linearGradient id="paint4_linear" x1="14.4853" y1="17.3674" x2="14.2986" y2="8.6061" gradientUnits="userSpaceOnUse">
<stop stop-color="#FFB55F"/>
<stop offset="1" stop-color="#C6720F"/>
</linearGradient>
<linearGradient id="paint5_linear" x1="22.0031" y1="21.8963" x2="14.3223" y2="17.4618" gradientUnits="userSpaceOnUse">
<stop stop-color="#FFBE71"/>
<stop offset="1" stop-color="#FFE1BE"/>
</linearGradient>
</defs>
</svg>
