<svg width="159" height="184" viewBox="0 0 159 184" fill="none" xmlns="http://www.w3.org/2000/svg">
<path fill-rule="evenodd" clip-rule="evenodd" d="M0.600746 46.2903L79.6628 91.9368V183.23L0.600746 137.583V46.2903Z" fill="url(#paint0_radial)"/>
<path fill-rule="evenodd" clip-rule="evenodd" d="M158.725 46.2903L79.6632 91.9368V183.23L158.725 137.583V46.2903Z" fill="url(#paint1_radial)"/>
<path fill-rule="evenodd" clip-rule="evenodd" d="M79.6625 0.643066L158.725 46.2896L79.6625 91.9361L0.60043 46.2896L79.6625 0.643066Z" fill="url(#paint2_radial)"/>
<path fill-rule="evenodd" clip-rule="evenodd" d="M37.2621 67.4512L79.6633 91.9315V140.892L37.2621 116.412V67.4512Z" fill="url(#paint3_linear)"/>
<path fill-rule="evenodd" clip-rule="evenodd" d="M122.065 67.4512L79.6635 91.9315V140.892L122.065 116.412V67.4512Z" fill="url(#paint4_linear)"/>
<path fill-rule="evenodd" clip-rule="evenodd" d="M79.6638 42.9724L122.065 67.4527L79.6638 91.9331L37.2627 67.4527L79.6638 42.9724Z" fill="url(#paint5_linear)"/>
<defs>
<radialGradient id="paint0_radial" cx="0" cy="0" r="1" gradientUnits="userSpaceOnUse" gradientTransform="translate(79.6628 92.1007) rotate(147.578) scale(93.6624 54.2701)">
<stop stop-color="white"/>
<stop offset="1" stop-color="#C8D7FF"/>
</radialGradient>
<radialGradient id="paint1_radial" cx="0" cy="0" r="1" gradientUnits="userSpaceOnUse" gradientTransform="translate(79.6632 91.316) rotate(27.1111) scale(137.744 62.0119)">
<stop stop-color="#F9FAFF"/>
<stop offset="1" stop-color="#ACC3FF"/>
</radialGradient>
<radialGradient id="paint2_radial" cx="0" cy="0" r="1" gradientUnits="userSpaceOnUse" gradientTransform="translate(79.6625 0.643066) rotate(90) scale(91.128 157.838)">
<stop stop-color="#D5E0FF"/>
<stop offset="1" stop-color="white"/>
</radialGradient>
<linearGradient id="paint3_linear" x1="37.2621" y1="118.164" x2="79.6633" y2="92.0218" gradientUnits="userSpaceOnUse">
<stop stop-color="#FF9E2C"/>
<stop offset="1" stop-color="#FFC98A"/>
</linearGradient>
<linearGradient id="paint4_linear" x1="79.6635" y1="92.9725" x2="122.065" y2="116.263" gradientUnits="userSpaceOnUse">
<stop stop-color="#FFB55F"/>
<stop offset="1" stop-color="#C6720F"/>
</linearGradient>
<linearGradient id="paint5_linear" x1="79.6638" y1="42.9724" x2="79.6638" y2="91.9331" gradientUnits="userSpaceOnUse">
<stop stop-color="#FFBE71"/>
<stop offset="1" stop-color="#FFE1BE"/>
</linearGradient>
</defs>
</svg>
