<svg width="18" height="22" viewBox="0 0 18 22" fill="none" xmlns="http://www.w3.org/2000/svg">
<path fill-rule="evenodd" clip-rule="evenodd" d="M9 12.4999C8.07175 12.4999 7.18151 12.1312 6.52513 11.4748C5.86875 10.8184 5.5 9.92818 5.5 8.99992C5.5 8.07166 5.86875 7.18143 6.52513 6.52505C7.18151 5.86867 8.07175 5.49992 9 5.49992C9.92826 5.49992 10.8185 5.86867 11.4749 6.52505C12.1313 7.18143 12.5 8.07166 12.5 8.99992C12.5 9.92818 12.1313 10.8184 11.4749 11.4748C10.8185 12.1312 9.92826 12.4999 9 12.4999ZM9 11.4999C9.66305 11.4999 10.2989 11.2365 10.7678 10.7677C11.2366 10.2988 11.5 9.66296 11.5 8.99992C11.5 8.33688 11.2366 7.701 10.7678 7.23216C10.2989 6.76331 9.66305 6.49992 9 6.49992C8.33696 6.49992 7.70108 6.76331 7.23224 7.23216C6.7634 7.701 6.5 8.33688 6.5 8.99992C6.5 9.66296 6.7634 10.2988 7.23224 10.7677C7.70108 11.2365 8.33696 11.4999 9 11.4999Z" fill="#23234E"/>
<path fill-rule="evenodd" clip-rule="evenodd" d="M9 21.0208L2.98956 15.0104C1.80082 13.8216 0.991287 12.3071 0.663321 10.6582C0.335355 9.00939 0.50369 7.30033 1.14704 5.74717C1.79039 4.194 2.87985 2.86649 4.27767 1.9325C5.67548 0.998514 7.31887 0.5 9 0.5C10.6811 0.5 12.3245 0.998514 13.7223 1.9325C15.1202 2.86649 16.2096 4.194 16.853 5.74717C17.4963 7.30033 17.6647 9.00939 17.3367 10.6582C17.0087 12.3071 16.1992 13.8216 15.0104 15.0104L9 21.0208ZM9 19.607L14.3036 14.3035C15.3524 13.2546 16.0666 11.9182 16.3559 10.4633C16.6453 9.00849 16.4967 7.50053 15.929 6.13012C15.3613 4.75972 14.4001 3.58843 13.1667 2.76435C11.9333 1.94028 10.4833 1.50043 9 1.50043C7.51668 1.50043 6.06666 1.94028 4.83331 2.76435C3.59995 3.58843 2.63866 4.75972 2.07098 6.13012C1.5033 7.50053 1.35473 9.00849 1.64406 10.4633C1.93339 11.9182 2.64761 13.2545 3.69643 14.3035L9 19.607Z" fill="#23234E"/>
</svg>
