<svg width="1027" height="716" viewBox="0 0 1027 716" fill="none" xmlns="http://www.w3.org/2000/svg">
<path opacity="0.3" d="M966.5 360C1029.49 363.216 1038.54 230.826 1012 189.5C981.319 141.733 930.369 117.6 875.5 113C835.293 109.63 798.362 116.521 761 153.267C723.637 190.013 677.72 256.947 734 309C780.005 351.549 911.992 357.218 966.5 360Z" fill="#FF9E2C"/>
<path opacity="0.3" d="M541 225.5C481.955 135.995 419.5 84 254 105.5C170.829 116.305 30.532 305.338 79.5003 385.114C115.383 443.572 233.448 462.794 321.405 476.95C409.362 491.105 572.15 461.947 573.751 385.114C575.352 308.28 592.093 302.951 541 225.5Z" fill="#2F69FF"/>
<path opacity="0.3" d="M955.5 347.5C965.019 240.697 879.777 248.116 796.674 240C713.201 231.849 756.998 294.955 745.651 387.871C737.335 455.957 657.482 574.162 717.5 640C777.518 705.838 888 741.5 966.5 605.5C1018.34 515.684 947.262 439.918 955.5 347.5Z" fill="#C65DF7"/>
<path opacity="0.3" d="M337.375 441.418C230.163 439.609 175.375 423.418 129.875 537.918C83.5142 654.584 172.883 700.286 266.375 704.918C334.883 708.311 537.527 669.518 598.875 604.918C660.223 540.317 707.767 443.059 582.111 477.635C508.015 498.024 430.146 442.983 337.375 441.418Z" fill="#F75D5D"/>
<g filter="url(#filter0_i)">
<path d="M589.662 670.79C727.558 780.956 876.261 677.729 981.046 458.443C1104.57 214.869 867.121 164.536 695.023 140.248C573.33 123.074 287.796 136.453 173.989 248.178C60.1827 359.903 69.5724 686.388 296.699 632.254C430.63 600.333 459.776 567.024 589.662 670.79Z" fill="#2F69FF"/>
</g>
<g filter="url(#filter1_i)">
<path d="M586.882 644.349C712.296 744.544 847.539 650.661 942.84 451.223C1055.18 229.696 839.227 183.919 682.706 161.83C572.028 146.21 312.339 158.378 208.834 259.99C105.328 361.603 113.868 658.536 320.436 609.302C442.245 580.27 468.752 549.975 586.882 644.349Z" fill="#2F69FF"/>
</g>
<g filter="url(#filter2_i)">
<path d="M584.079 621.895C696.913 712.038 818.589 627.573 904.329 448.142C1005.4 248.838 811.11 207.653 670.291 187.78C570.716 173.727 337.078 184.675 243.956 276.094C150.834 367.512 158.517 634.658 344.363 590.363C453.952 564.243 477.8 536.988 584.079 621.895Z" fill="url(#paint0_linear)"/>
</g>
<path fill-rule="evenodd" clip-rule="evenodd" d="M289.604 350.29L368.666 395.937V487.23L289.604 441.583V350.29Z" fill="url(#paint1_radial)"/>
<path fill-rule="evenodd" clip-rule="evenodd" d="M447.729 350.29L368.667 395.937V487.23L447.729 441.583V350.29Z" fill="url(#paint2_radial)"/>
<path fill-rule="evenodd" clip-rule="evenodd" d="M368.666 304.643L447.728 350.29L368.666 395.936L289.604 350.29L368.666 304.643Z" fill="url(#paint3_radial)"/>
<path fill-rule="evenodd" clip-rule="evenodd" d="M326.265 371.451L368.666 395.932V444.892L326.265 420.412V371.451Z" fill="url(#paint4_linear)"/>
<path fill-rule="evenodd" clip-rule="evenodd" d="M411.068 371.451L368.667 395.932V444.892L411.068 420.412V371.451Z" fill="url(#paint5_linear)"/>
<path fill-rule="evenodd" clip-rule="evenodd" d="M368.667 346.973L411.068 371.453L368.667 395.933L326.266 371.453L368.667 346.973Z" fill="url(#paint6_linear)"/>
<g clip-path="url(#clip0)">
<path d="M636.347 327.468C634.983 327.468 633.663 327.261 632.386 326.847C631.126 326.415 630.133 325.863 629.409 325.19L630.366 323.171C631.057 323.792 631.937 324.301 633.007 324.698C634.094 325.078 635.207 325.268 636.347 325.268C637.848 325.268 638.97 325.017 639.712 324.517C640.454 323.999 640.825 323.318 640.825 322.472C640.825 321.851 640.618 321.35 640.204 320.97C639.807 320.573 639.306 320.271 638.702 320.064C638.116 319.857 637.278 319.624 636.191 319.365C634.828 319.037 633.723 318.709 632.878 318.382C632.049 318.054 631.333 317.553 630.729 316.88C630.142 316.19 629.849 315.266 629.849 314.11C629.849 313.144 630.099 312.272 630.599 311.495C631.117 310.719 631.894 310.097 632.929 309.632C633.965 309.166 635.251 308.933 636.787 308.933C637.857 308.933 638.909 309.071 639.945 309.347C640.98 309.623 641.869 310.02 642.611 310.538L641.757 312.609C640.998 312.125 640.187 311.763 639.324 311.521C638.461 311.262 637.615 311.133 636.787 311.133C635.32 311.133 634.215 311.401 633.473 311.936C632.748 312.471 632.386 313.161 632.386 314.007C632.386 314.628 632.593 315.137 633.007 315.534C633.421 315.914 633.93 316.216 634.534 316.44C635.156 316.647 635.993 316.871 637.045 317.113C638.409 317.441 639.505 317.769 640.333 318.097C641.162 318.425 641.869 318.925 642.456 319.598C643.06 320.271 643.362 321.177 643.362 322.317C643.362 323.266 643.103 324.137 642.585 324.931C642.068 325.708 641.282 326.329 640.23 326.795C639.177 327.244 637.883 327.468 636.347 327.468ZM668.942 309.14V327.261H666.353V319.184H655.946V327.261H653.357V309.14H655.946V316.932H666.353V309.14H668.942ZM693.73 325.009V327.261H680.579V309.14H693.367V311.392H683.168V316.958H692.254V319.158H683.168V325.009H693.73ZM704.135 309.14H706.724V325.009H716.535V327.261H704.135V309.14ZM727.623 311.392H721.41V309.14H736.399V311.392H730.186V327.261H727.623V311.392ZM758.583 325.009V327.261H745.432V309.14H758.22V311.392H748.021V316.958H757.107V319.158H748.021V325.009H758.583ZM781.103 327.261L777.194 321.695C776.711 321.73 776.331 321.747 776.055 321.747H771.577V327.261H768.988V309.14H776.055C778.402 309.14 780.249 309.701 781.595 310.822C782.941 311.944 783.614 313.489 783.614 315.456C783.614 316.854 783.269 318.045 782.579 319.029C781.889 320.013 780.905 320.729 779.628 321.177L783.925 327.261H781.103ZM775.977 319.547C777.617 319.547 778.868 319.193 779.731 318.485C780.594 317.778 781.026 316.768 781.026 315.456C781.026 314.145 780.594 313.144 779.731 312.453C778.868 311.746 777.617 311.392 775.977 311.392H771.577V319.547H775.977Z" fill="#FAFAFF"/>
<path d="M542.665 368.479C551.854 368.479 559.083 370.675 564.353 375.066C569.622 379.458 572.257 385.505 572.257 393.207C572.257 400.909 569.622 406.955 564.353 411.347C559.083 415.738 551.854 417.934 542.665 417.934H525.133V439.419H514.999V368.479H542.665ZM542.361 409.117C548.78 409.117 553.678 407.766 557.056 405.064C560.434 402.294 562.123 398.341 562.123 393.207C562.123 388.072 560.434 384.153 557.056 381.451C553.678 378.681 548.78 377.296 542.361 377.296H525.133V409.117H542.361ZM677.239 439.419L677.138 387.734L651.498 430.805H646.837L621.197 388.038V439.419H611.468V368.479H619.778L649.37 418.339L678.557 368.479H686.867L686.968 439.419H677.239ZM753.254 440.229C747.917 440.229 742.748 439.419 737.749 437.797C732.817 436.108 728.932 433.946 726.094 431.311L729.844 423.407C732.546 425.839 735.992 427.832 740.181 429.386C744.437 430.872 748.795 431.615 753.254 431.615C759.132 431.615 763.523 430.636 766.429 428.676C769.334 426.65 770.786 423.981 770.786 420.67C770.786 418.238 769.976 416.279 768.354 414.792C766.8 413.239 764.841 412.056 762.476 411.246C760.179 410.435 756.902 409.523 752.646 408.509C747.309 407.226 742.985 405.942 739.674 404.658C736.431 403.375 733.627 401.415 731.263 398.78C728.966 396.078 727.817 392.463 727.817 387.937C727.817 384.153 728.797 380.741 730.756 377.701C732.783 374.661 735.823 372.229 739.877 370.405C743.931 368.58 748.964 367.668 754.977 367.668C759.166 367.668 763.287 368.209 767.341 369.29C771.394 370.371 774.874 371.925 777.779 373.951L774.435 382.059C771.462 380.167 768.287 378.748 764.908 377.803C761.53 376.789 758.22 376.282 754.977 376.282C749.234 376.282 744.91 377.33 742.005 379.424C739.167 381.518 737.749 384.221 737.749 387.531C737.749 389.964 738.559 391.957 740.181 393.511C741.802 394.997 743.795 396.179 746.16 397.058C748.592 397.868 751.869 398.747 755.99 399.692C761.328 400.976 765.618 402.26 768.861 403.543C772.104 404.827 774.874 406.786 777.171 409.421C779.536 412.056 780.718 415.603 780.718 420.062C780.718 423.778 779.704 427.19 777.678 430.298C775.651 433.338 772.577 435.77 768.455 437.595C764.334 439.351 759.267 440.229 753.254 440.229Z" fill="#FAFAFF"/>
</g>
<defs>
<filter id="filter0_i" x="102.606" y="134.068" width="912.687" height="581.22" filterUnits="userSpaceOnUse" color-interpolation-filters="sRGB">
<feFlood flood-opacity="0" result="BackgroundImageFix"/>
<feBlend mode="normal" in="SourceGraphic" in2="BackgroundImageFix" result="shape"/>
<feColorMatrix in="SourceAlpha" type="matrix" values="0 0 0 0 0 0 0 0 0 0 0 0 0 0 0 0 0 0 127 0" result="hardAlpha"/>
<feOffset/>
<feGaussianBlur stdDeviation="23.5941"/>
<feComposite in2="hardAlpha" operator="arithmetic" k2="-1" k3="1"/>
<feColorMatrix type="matrix" values="0 0 0 0 0 0 0 0 0 0 0 0 0 0 0 0 0 0 0.25 0"/>
<feBlend mode="normal" in2="shape" result="effect1_innerShadow"/>
</filter>
<filter id="filter1_i" x="143.912" y="156.209" width="830.075" height="528.611" filterUnits="userSpaceOnUse" color-interpolation-filters="sRGB">
<feFlood flood-opacity="0" result="BackgroundImageFix"/>
<feBlend mode="normal" in="SourceGraphic" in2="BackgroundImageFix" result="shape"/>
<feColorMatrix in="SourceAlpha" type="matrix" values="0 0 0 0 0 0 0 0 0 0 0 0 0 0 0 0 0 0 127 0" result="hardAlpha"/>
<feOffset/>
<feGaussianBlur stdDeviation="21.4585"/>
<feComposite in2="hardAlpha" operator="arithmetic" k2="-1" k3="1"/>
<feColorMatrix type="matrix" values="0 0 0 0 0 0 0 0 0 0 0 0 0 0 0 0 0 0 0.25 0"/>
<feBlend mode="normal" in2="shape" result="effect1_innerShadow"/>
</filter>
<filter id="filter2_i" x="185.547" y="182.723" width="746.805" height="475.582" filterUnits="userSpaceOnUse" color-interpolation-filters="sRGB">
<feFlood flood-opacity="0" result="BackgroundImageFix"/>
<feBlend mode="normal" in="SourceGraphic" in2="BackgroundImageFix" result="shape"/>
<feColorMatrix in="SourceAlpha" type="matrix" values="0 0 0 0 0 0 0 0 0 0 0 0 0 0 0 0 0 0 127 0" result="hardAlpha"/>
<feOffset/>
<feGaussianBlur stdDeviation="19.3058"/>
<feComposite in2="hardAlpha" operator="arithmetic" k2="-1" k3="1"/>
<feColorMatrix type="matrix" values="0 0 0 0 0 0 0 0 0 0 0 0 0 0 0 0 0 0 0.25 0"/>
<feBlend mode="normal" in2="shape" result="effect1_innerShadow"/>
</filter>
<linearGradient id="paint0_linear" x1="732.496" y1="645.439" x2="373.033" y2="222.133" gradientUnits="userSpaceOnUse">
<stop stop-color="#1B51DC"/>
<stop offset="1" stop-color="#3D73FF"/>
</linearGradient>
<radialGradient id="paint1_radial" cx="0" cy="0" r="1" gradientUnits="userSpaceOnUse" gradientTransform="translate(368.666 396.101) rotate(147.578) scale(93.6624 54.2701)">
<stop stop-color="white"/>
<stop offset="1" stop-color="#C8D7FF"/>
</radialGradient>
<radialGradient id="paint2_radial" cx="0" cy="0" r="1" gradientUnits="userSpaceOnUse" gradientTransform="translate(368.667 395.316) rotate(27.1111) scale(137.744 62.0119)">
<stop stop-color="#F9FAFF"/>
<stop offset="1" stop-color="#ACC3FF"/>
</radialGradient>
<radialGradient id="paint3_radial" cx="0" cy="0" r="1" gradientUnits="userSpaceOnUse" gradientTransform="translate(368.666 304.643) rotate(90) scale(91.128 157.838)">
<stop stop-color="#D5E0FF"/>
<stop offset="1" stop-color="white"/>
</radialGradient>
<linearGradient id="paint4_linear" x1="326.265" y1="422.165" x2="368.666" y2="396.022" gradientUnits="userSpaceOnUse">
<stop stop-color="#FF9E2C"/>
<stop offset="1" stop-color="#FFC98A"/>
</linearGradient>
<linearGradient id="paint5_linear" x1="368.667" y1="396.973" x2="411.068" y2="420.263" gradientUnits="userSpaceOnUse">
<stop stop-color="#FFB55F"/>
<stop offset="1" stop-color="#C6720F"/>
</linearGradient>
<linearGradient id="paint6_linear" x1="368.667" y1="346.973" x2="368.667" y2="395.933" gradientUnits="userSpaceOnUse">
<stop stop-color="#FFBE71"/>
<stop offset="1" stop-color="#FFE1BE"/>
</linearGradient>
<clipPath id="clip0">
<rect width="280.721" height="143.192" fill="white" transform="translate(504.358 306.261)"/>
</clipPath>
</defs>
</svg>
