<svg width="449" height="304" viewBox="0 0 449 304" fill="none" xmlns="http://www.w3.org/2000/svg">
<g filter="url(#filter0_d)">
<path d="M13.835 52.3532C13.835 43.3598 13.835 38.8631 15.5852 35.428C17.1247 32.4065 19.5813 29.9499 22.6028 28.4104C26.0379 26.6602 30.5346 26.6602 39.528 26.6602L383.975 26.6602C392.968 26.6602 397.465 26.6602 400.9 28.4104C403.921 29.9499 406.378 32.4065 407.917 35.428C409.668 38.8631 409.668 43.3598 409.668 52.3532V252.277C409.668 261.27 409.668 265.767 407.917 269.202C406.378 272.223 403.921 274.68 400.9 276.22C397.465 277.97 392.968 277.97 383.975 277.97H39.5279C30.5346 277.97 26.0379 277.97 22.6028 276.22C19.5813 274.68 17.1247 272.223 15.5852 269.202C13.835 265.767 13.835 261.27 13.835 252.277L13.835 52.3532Z" fill="url(#paint0_radial)"/>
</g>
<g filter="url(#filter1_i)">
<path d="M13.835 52.3532C13.835 43.3598 13.835 38.8631 15.5852 35.428C17.1247 32.4065 19.5813 29.9499 22.6028 28.4104C26.0379 26.6602 30.5346 26.6602 39.528 26.6602L383.975 26.6602C392.968 26.6602 397.465 26.6602 400.9 28.4104C403.921 29.9499 406.378 32.4065 407.917 35.428C409.668 38.8631 409.668 43.3598 409.668 52.3532V252.277C409.668 261.27 409.668 265.767 407.917 269.202C406.378 272.223 403.921 274.68 400.9 276.22C397.465 277.97 392.968 277.97 383.975 277.97H39.5279C30.5346 277.97 26.0379 277.97 22.6028 276.22C19.5813 274.68 17.1247 272.223 15.5852 269.202C13.835 265.767 13.835 261.27 13.835 252.277L13.835 52.3532Z" fill="#2F69FF"/>
<path d="M13.835 52.3532C13.835 43.3598 13.835 38.8631 15.5852 35.428C17.1247 32.4065 19.5813 29.9499 22.6028 28.4104C26.0379 26.6602 30.5346 26.6602 39.528 26.6602L383.975 26.6602C392.968 26.6602 397.465 26.6602 400.9 28.4104C403.921 29.9499 406.378 32.4065 407.917 35.428C409.668 38.8631 409.668 43.3598 409.668 52.3532V252.277C409.668 261.27 409.668 265.767 407.917 269.202C406.378 272.223 403.921 274.68 400.9 276.22C397.465 277.97 392.968 277.97 383.975 277.97H39.5279C30.5346 277.97 26.0379 277.97 22.6028 276.22C19.5813 274.68 17.1247 272.223 15.5852 269.202C13.835 265.767 13.835 261.27 13.835 252.277L13.835 52.3532Z" fill="url(#paint1_linear)"/>
</g>
<mask id="mask0" mask-type="alpha" maskUnits="userSpaceOnUse" x="13" y="26" width="397" height="252">
<path d="M13.835 52.3532C13.835 43.3598 13.835 38.8631 15.5852 35.428C17.1247 32.4065 19.5813 29.9499 22.6028 28.4104C26.0379 26.6602 30.5346 26.6602 39.528 26.6602L383.975 26.6602C392.968 26.6602 397.465 26.6602 400.9 28.4104C403.921 29.9499 406.378 32.4065 407.917 35.428C409.668 38.8631 409.668 43.3598 409.668 52.3532V252.277C409.668 261.27 409.668 265.767 407.917 269.202C406.378 272.223 403.921 274.68 400.9 276.22C397.465 277.97 392.968 277.97 383.975 277.97H39.5279C30.5346 277.97 26.0379 277.97 22.6028 276.22C19.5813 274.68 17.1247 272.223 15.5852 269.202C13.835 265.767 13.835 261.27 13.835 252.277L13.835 52.3532Z" fill="url(#paint2_radial)"/>
</mask>
<g mask="url(#mask0)">
<path fill-rule="evenodd" clip-rule="evenodd" d="M339.884 67.3357L343.613 72.6323L340.891 78.5102L337.161 73.2136L339.884 67.3357Z" fill="url(#paint3_radial)"/>
<path fill-rule="evenodd" clip-rule="evenodd" d="M350.064 72.0505L343.612 72.6318L340.89 78.5098L347.342 77.9284L350.064 72.0505Z" fill="url(#paint4_radial)"/>
<path fill-rule="evenodd" clip-rule="evenodd" d="M346.335 66.7539L350.064 72.0505L343.613 72.6318L339.883 67.3352L346.335 66.7539Z" fill="url(#paint5_radial)"/>
<g filter="url(#filter2_f)">
<path fill-rule="evenodd" clip-rule="evenodd" d="M72.4341 223.455L87.8217 245.309L76.5889 269.563L61.2013 247.708L72.4341 223.455Z" fill="url(#paint6_radial)"/>
<path fill-rule="evenodd" clip-rule="evenodd" d="M114.441 242.91L87.8211 245.309L76.5884 269.563L103.209 267.164L114.441 242.91Z" fill="url(#paint7_radial)"/>
<path fill-rule="evenodd" clip-rule="evenodd" d="M99.0557 221.057L114.443 242.911L87.8229 245.31L72.4354 223.455L99.0557 221.057Z" fill="url(#paint8_radial)"/>
</g>
<path fill-rule="evenodd" clip-rule="evenodd" d="M58.9912 149.64L67.0743 148.296L72.2796 154.625L64.1965 155.968L58.9912 149.64Z" fill="url(#paint9_radial)"/>
<path fill-rule="evenodd" clip-rule="evenodd" d="M69.9512 140.625L67.0734 148.297L72.2787 154.625L75.1565 146.953L69.9512 140.625Z" fill="url(#paint10_radial)"/>
<path fill-rule="evenodd" clip-rule="evenodd" d="M61.8716 141.966L69.9547 140.623L67.0769 148.295L58.9938 149.639L61.8716 141.966Z" fill="url(#paint11_radial)"/>
<path fill-rule="evenodd" clip-rule="evenodd" d="M364.546 206.193L378.4 201.576L389.325 211.266L375.471 215.882L364.546 206.193Z" fill="url(#paint12_linear)"/>
<path fill-rule="evenodd" clip-rule="evenodd" d="M381.329 187.271L378.4 201.577L389.325 211.266L392.254 196.96L381.329 187.271Z" fill="url(#paint13_linear)"/>
<path fill-rule="evenodd" clip-rule="evenodd" d="M367.477 191.886L381.33 187.269L378.402 201.575L364.548 206.192L367.477 191.886Z" fill="url(#paint14_linear)"/>
<g filter="url(#filter3_f)">
<path fill-rule="evenodd" clip-rule="evenodd" d="M4.00342 37.1643L51.189 46.3228L66.8503 91.7659L19.6647 82.6075L4.00342 37.1643Z" fill="url(#paint15_linear)"/>
<path fill-rule="evenodd" clip-rule="evenodd" d="M82.7119 10.0389L51.1876 46.3236L66.8489 91.7668L98.3732 55.4821L82.7119 10.0389Z" fill="url(#paint16_linear)"/>
<path fill-rule="evenodd" clip-rule="evenodd" d="M35.5249 0.88099L82.7104 10.0395L51.1862 46.3241L4.00058 37.1657L35.5249 0.88099Z" fill="url(#paint17_linear)"/>
</g>
</g>
<path fill-rule="evenodd" clip-rule="evenodd" d="M182.937 121.777L211.398 138.208V171.072L182.937 154.64V121.777Z" fill="url(#paint18_radial)"/>
<path fill-rule="evenodd" clip-rule="evenodd" d="M239.858 121.777L211.397 138.209V171.073L239.858 154.641V121.777Z" fill="url(#paint19_radial)"/>
<path fill-rule="evenodd" clip-rule="evenodd" d="M211.397 105.345L239.858 121.777L211.397 138.209L182.936 121.777L211.397 105.345Z" fill="url(#paint20_radial)"/>
<path fill-rule="evenodd" clip-rule="evenodd" d="M196.134 129.394L211.398 138.206V155.831L196.134 147.019V129.394Z" fill="url(#paint21_linear)"/>
<path fill-rule="evenodd" clip-rule="evenodd" d="M226.661 129.395L211.397 138.207V155.832L226.661 147.019V129.395Z" fill="url(#paint22_linear)"/>
<path fill-rule="evenodd" clip-rule="evenodd" d="M211.397 120.583L226.661 129.395L211.397 138.208L196.134 129.395L211.397 120.583Z" fill="url(#paint23_linear)"/>
<path d="M161.684 198.135C160.713 198.135 159.774 197.988 158.865 197.693C157.969 197.386 157.263 196.993 156.747 196.514L157.429 195.078C157.92 195.52 158.546 195.882 159.307 196.164C160.081 196.435 160.873 196.57 161.684 196.57C162.752 196.57 163.55 196.392 164.078 196.035C164.606 195.667 164.87 195.182 164.87 194.58C164.87 194.138 164.723 193.782 164.428 193.512C164.146 193.23 163.79 193.015 163.36 192.867C162.942 192.72 162.347 192.554 161.573 192.37C160.603 192.137 159.817 191.903 159.215 191.67C158.626 191.437 158.116 191.081 157.686 190.602C157.269 190.11 157.06 189.453 157.06 188.631C157.06 187.943 157.238 187.323 157.594 186.77C157.963 186.218 158.515 185.776 159.252 185.444C159.989 185.113 160.904 184.947 161.997 184.947C162.758 184.947 163.507 185.045 164.244 185.241C164.981 185.438 165.613 185.72 166.141 186.089L165.533 187.562C164.993 187.219 164.416 186.961 163.802 186.789C163.188 186.605 162.586 186.512 161.997 186.512C160.953 186.512 160.167 186.703 159.639 187.083C159.123 187.464 158.865 187.955 158.865 188.557C158.865 188.999 159.013 189.361 159.307 189.644C159.602 189.914 159.964 190.129 160.394 190.289C160.836 190.436 161.432 190.595 162.181 190.767C163.151 191.001 163.931 191.234 164.52 191.467C165.11 191.701 165.613 192.057 166.031 192.536C166.46 193.015 166.675 193.659 166.675 194.47C166.675 195.145 166.491 195.765 166.123 196.33C165.754 196.883 165.196 197.325 164.447 197.656C163.697 197.976 162.776 198.135 161.684 198.135Z" fill="#F1F5FF"/>
<path d="M184.876 185.094V197.988H183.034V192.241H175.629V197.988H173.787V185.094H175.629V190.638H183.034V185.094H184.876Z" fill="#F1F5FF"/>
<path d="M202.513 196.385V197.988H193.156V185.094H202.255V186.697H194.998V190.657H201.463V192.223H194.998V196.385H202.513Z" fill="#F1F5FF"/>
<path d="M209.916 185.094H211.758V196.385H218.739V197.988H209.916V185.094Z" fill="#F1F5FF"/>
<path d="M226.629 186.697H222.208V185.094H232.873V186.697H228.453V197.988H226.629V186.697Z" fill="#F1F5FF"/>
<path d="M248.657 196.385V197.988H239.3V185.094H248.4V186.697H241.142V190.657H247.608V192.223H241.142V196.385H248.657Z" fill="#F1F5FF"/>
<path d="M264.681 197.988L261.9 194.028C261.556 194.052 261.286 194.065 261.089 194.065H257.903V197.988H256.061V185.094H261.089C262.759 185.094 264.073 185.493 265.031 186.291C265.989 187.09 266.468 188.189 266.468 189.589C266.468 190.583 266.222 191.431 265.731 192.13C265.24 192.83 264.54 193.34 263.631 193.659L266.689 197.988H264.681ZM261.034 192.499C262.201 192.499 263.091 192.247 263.705 191.744C264.319 191.24 264.626 190.522 264.626 189.589C264.626 188.655 264.319 187.943 263.705 187.452C263.091 186.948 262.201 186.697 261.034 186.697H257.903V192.499H261.034Z" fill="#F1F5FF"/>
<path d="M198.863 244.89C200.01 244.89 200.91 245.164 201.561 245.712C202.212 246.26 202.537 247.014 202.537 247.973C202.537 248.932 202.212 249.686 201.561 250.234C200.91 250.774 200.01 251.044 198.863 251.044H196.448V253.883H195.497V244.89H198.863ZM198.837 250.209C199.728 250.209 200.409 250.016 200.88 249.63C201.351 249.236 201.586 248.684 201.586 247.973C201.586 247.245 201.351 246.689 200.88 246.303C200.409 245.909 199.728 245.712 198.837 245.712H196.448V250.209H198.837Z" fill="#F1F5FF"/>
<path d="M217.015 244.89V253.883H216.103V246.689L212.57 252.739H212.121L208.588 246.727V253.883H207.676V244.89H208.459L212.365 251.557L216.231 244.89H217.015Z" fill="#F1F5FF"/>
<path d="M225.508 253.96C224.84 253.96 224.197 253.853 223.581 253.639C222.973 253.424 222.502 253.142 222.168 252.791L222.54 252.058C222.865 252.384 223.298 252.649 223.838 252.855C224.377 253.052 224.934 253.15 225.508 253.15C226.313 253.15 226.916 253.005 227.319 252.714C227.721 252.414 227.923 252.028 227.923 251.557C227.923 251.198 227.811 250.911 227.589 250.697C227.375 250.483 227.109 250.32 226.792 250.209C226.475 250.089 226.034 249.96 225.469 249.823C224.792 249.652 224.253 249.489 223.85 249.335C223.448 249.172 223.101 248.928 222.81 248.603C222.527 248.277 222.386 247.836 222.386 247.28C222.386 246.826 222.506 246.415 222.746 246.046C222.985 245.669 223.354 245.37 223.85 245.147C224.347 244.924 224.964 244.813 225.7 244.813C226.214 244.813 226.715 244.886 227.203 245.031C227.7 245.168 228.128 245.361 228.488 245.609L228.167 246.367C227.79 246.119 227.387 245.935 226.959 245.815C226.531 245.687 226.111 245.622 225.7 245.622C224.912 245.622 224.317 245.776 223.915 246.085C223.521 246.385 223.324 246.774 223.324 247.254C223.324 247.614 223.431 247.905 223.645 248.127C223.868 248.341 224.142 248.508 224.467 248.628C224.801 248.74 225.246 248.864 225.803 249.001C226.463 249.164 226.994 249.326 227.396 249.489C227.807 249.643 228.154 249.883 228.437 250.209C228.719 250.525 228.861 250.958 228.861 251.506C228.861 251.96 228.736 252.375 228.488 252.752C228.248 253.12 227.876 253.416 227.37 253.639C226.865 253.853 226.244 253.96 225.508 253.96Z" fill="#F1F5FF"/>
<defs>
<filter id="filter0_d" x="0.98395" y="0.958134" width="447.237" height="302.714" filterUnits="userSpaceOnUse" color-interpolation-filters="sRGB">
<feFlood flood-opacity="0" result="BackgroundImageFix"/>
<feColorMatrix in="SourceAlpha" type="matrix" values="0 0 0 0 0 0 0 0 0 0 0 0 0 0 0 0 0 0 127 0"/>
<feOffset dx="12.851"/>
<feGaussianBlur stdDeviation="12.851"/>
<feColorMatrix type="matrix" values="0 0 0 0 0.0541667 0 0 0 0 0.160743 0 0 0 0 0.433333 0 0 0 0.26 0"/>
<feBlend mode="normal" in2="BackgroundImageFix" result="effect1_dropShadow"/>
<feBlend mode="normal" in="SourceGraphic" in2="effect1_dropShadow" result="shape"/>
</filter>
<filter id="filter1_i" x="11.835" y="24.6602" width="397.833" height="253.31" filterUnits="userSpaceOnUse" color-interpolation-filters="sRGB">
<feFlood flood-opacity="0" result="BackgroundImageFix"/>
<feBlend mode="normal" in="SourceGraphic" in2="BackgroundImageFix" result="shape"/>
<feColorMatrix in="SourceAlpha" type="matrix" values="0 0 0 0 0 0 0 0 0 0 0 0 0 0 0 0 0 0 127 0" result="hardAlpha"/>
<feOffset dx="-2" dy="-2"/>
<feGaussianBlur stdDeviation="1.5"/>
<feComposite in2="hardAlpha" operator="arithmetic" k2="-1" k3="1"/>
<feColorMatrix type="matrix" values="0 0 0 0 0.202066 0 0 0 0 0.265654 0 0 0 0 0.429167 0 0 0 0.34 0"/>
<feBlend mode="normal" in2="shape" result="effect1_innerShadow"/>
</filter>
<filter id="filter2_f" x="47.5559" y="203.3" width="80.5327" height="84.0197" filterUnits="userSpaceOnUse" color-interpolation-filters="sRGB">
<feFlood flood-opacity="0" result="BackgroundImageFix"/>
<feBlend mode="normal" in="SourceGraphic" in2="BackgroundImageFix" result="shape"/>
<feGaussianBlur stdDeviation="4.01453" result="effect1_foregroundBlur"/>
</filter>
<filter id="filter3_f" x="-7.2402" y="-10.3596" width="116.854" height="113.367" filterUnits="userSpaceOnUse" color-interpolation-filters="sRGB">
<feFlood flood-opacity="0" result="BackgroundImageFix"/>
<feBlend mode="normal" in="SourceGraphic" in2="BackgroundImageFix" result="shape"/>
<feGaussianBlur stdDeviation="5.62034" result="effect1_foregroundBlur"/>
</filter>
<radialGradient id="paint0_radial" cx="0" cy="0" r="1" gradientUnits="userSpaceOnUse" gradientTransform="translate(404.047 271.948) rotate(-141.402) scale(231.663 330.144)">
<stop stop-color="#6691FF"/>
<stop offset="1" stop-color="#2F69FF"/>
</radialGradient>
<linearGradient id="paint1_linear" x1="-39.3322" y1="289.104" x2="415.354" y2="53.9331" gradientUnits="userSpaceOnUse">
<stop stop-color="white" stop-opacity="0.42"/>
<stop offset="1" stop-color="white" stop-opacity="0"/>
</linearGradient>
<radialGradient id="paint2_radial" cx="0" cy="0" r="1" gradientUnits="userSpaceOnUse" gradientTransform="translate(404.047 271.948) rotate(-141.402) scale(231.663 330.144)">
<stop stop-color="#6691FF"/>
<stop offset="1" stop-color="#2F69FF"/>
</radialGradient>
<radialGradient id="paint3_radial" cx="0" cy="0" r="1" gradientUnits="userSpaceOnUse" gradientTransform="translate(343.608 72.6428) rotate(172.429) scale(6.64589 3.85078)">
<stop stop-color="#E394FF"/>
<stop offset="1" stop-color="#C92FFF"/>
</radialGradient>
<radialGradient id="paint4_radial" cx="0" cy="0" r="1" gradientUnits="userSpaceOnUse" gradientTransform="translate(343.631 72.5919) rotate(51.9621) scale(9.77371 4.4001)">
<stop stop-color="#F3CEFF"/>
<stop offset="1" stop-color="#DF83FF"/>
</radialGradient>
<radialGradient id="paint5_radial" cx="0" cy="0" r="1" gradientUnits="userSpaceOnUse" gradientTransform="translate(343.613 72.6318) rotate(-65.1491) scale(6.47777 5.02522)">
<stop stop-color="#E18DFF"/>
<stop offset="1" stop-color="#9F11D1"/>
</radialGradient>
<radialGradient id="paint6_radial" cx="0" cy="0" r="1" gradientUnits="userSpaceOnUse" gradientTransform="translate(87.8015 245.353) rotate(172.429) scale(27.4219 15.8889)">
<stop stop-color="#E394FF"/>
<stop offset="1" stop-color="#C92FFF"/>
</radialGradient>
<radialGradient id="paint7_radial" cx="0" cy="0" r="1" gradientUnits="userSpaceOnUse" gradientTransform="translate(87.8975 245.144) rotate(51.9621) scale(40.3277 18.1555)">
<stop stop-color="#F3CEFF"/>
<stop offset="1" stop-color="#DF83FF"/>
</radialGradient>
<radialGradient id="paint8_radial" cx="0" cy="0" r="1" gradientUnits="userSpaceOnUse" gradientTransform="translate(87.8229 245.31) rotate(-65.1491) scale(26.7282 20.7348)">
<stop stop-color="#E18DFF"/>
<stop offset="1" stop-color="#9F11D1"/>
</radialGradient>
<radialGradient id="paint9_radial" cx="0" cy="0" r="1" gradientUnits="userSpaceOnUse" gradientTransform="translate(67.0837 148.308) rotate(108.139) scale(8.40672 4.87105)">
<stop stop-color="white"/>
<stop offset="1" stop-color="#C8D7FF"/>
</radialGradient>
<radialGradient id="paint10_radial" cx="0" cy="0" r="1" gradientUnits="userSpaceOnUse" gradientTransform="translate(67.038 148.254) rotate(-12.3277) scale(12.3633 5.56591)">
<stop stop-color="#F9FAFF"/>
<stop offset="1" stop-color="#ACC3FF"/>
</radialGradient>
<radialGradient id="paint11_radial" cx="0" cy="0" r="1" gradientUnits="userSpaceOnUse" gradientTransform="translate(61.8716 141.966) rotate(50.5612) scale(8.17925 14.1669)">
<stop stop-color="#D5E0FF"/>
<stop offset="1" stop-color="white"/>
</radialGradient>
<linearGradient id="paint12_linear" x1="374.204" y1="214.676" x2="379.06" y2="202.25" gradientUnits="userSpaceOnUse">
<stop stop-color="#C60F0F"/>
<stop offset="1" stop-color="#FF6161"/>
</linearGradient>
<linearGradient id="paint13_linear" x1="392.775" y1="197.46" x2="378.136" y2="201.43" gradientUnits="userSpaceOnUse">
<stop stop-color="#FF2C2C"/>
<stop offset="1" stop-color="#FF8A8A"/>
</linearGradient>
<linearGradient id="paint14_linear" x1="367.477" y1="191.886" x2="378.402" y2="201.575" gradientUnits="userSpaceOnUse">
<stop stop-color="#FF7171"/>
<stop offset="1" stop-color="#FFBEBE"/>
</linearGradient>
<linearGradient id="paint15_linear" x1="20.2253" y1="84.2341" x2="51.2179" y2="46.4066" gradientUnits="userSpaceOnUse">
<stop stop-color="#FF9E2C"/>
<stop offset="1" stop-color="#FFC98A"/>
</linearGradient>
<linearGradient id="paint16_linear" x1="51.5206" y1="47.2898" x2="98.3256" y2="55.3441" gradientUnits="userSpaceOnUse">
<stop stop-color="#FFB55F"/>
<stop offset="1" stop-color="#C6720F"/>
</linearGradient>
<linearGradient id="paint17_linear" x1="35.5249" y1="0.88099" x2="51.1862" y2="46.3241" gradientUnits="userSpaceOnUse">
<stop stop-color="#FFBE71"/>
<stop offset="1" stop-color="#FFE1BE"/>
</linearGradient>
<radialGradient id="paint18_radial" cx="0" cy="0" r="1" gradientUnits="userSpaceOnUse" gradientTransform="translate(211.398 138.267) rotate(147.578) scale(33.7165 19.5361)">
<stop stop-color="white"/>
<stop offset="1" stop-color="#C8D7FF"/>
</radialGradient>
<radialGradient id="paint19_radial" cx="0" cy="0" r="1" gradientUnits="userSpaceOnUse" gradientTransform="translate(211.397 137.986) rotate(27.1111) scale(49.5849 22.323)">
<stop stop-color="#F9FAFF"/>
<stop offset="1" stop-color="#ACC3FF"/>
</radialGradient>
<radialGradient id="paint20_radial" cx="0" cy="0" r="1" gradientUnits="userSpaceOnUse" gradientTransform="translate(211.397 105.345) rotate(90) scale(32.8042 56.8186)">
<stop stop-color="#D5E0FF"/>
<stop offset="1" stop-color="white"/>
</radialGradient>
<linearGradient id="paint21_linear" x1="196.134" y1="147.65" x2="211.398" y2="138.239" gradientUnits="userSpaceOnUse">
<stop stop-color="#FF9E2C"/>
<stop offset="1" stop-color="#FFC98A"/>
</linearGradient>
<linearGradient id="paint22_linear" x1="211.397" y1="138.582" x2="226.661" y2="146.966" gradientUnits="userSpaceOnUse">
<stop stop-color="#FFB55F"/>
<stop offset="1" stop-color="#C6720F"/>
</linearGradient>
<linearGradient id="paint23_linear" x1="211.397" y1="120.583" x2="211.397" y2="138.208" gradientUnits="userSpaceOnUse">
<stop stop-color="#FFBE71"/>
<stop offset="1" stop-color="#FFE1BE"/>
</linearGradient>
</defs>
</svg>
