<svg width="22" height="21" viewBox="0 0 22 21" fill="none" xmlns="http://www.w3.org/2000/svg">
<path d="M8.55143 11.5C8.64875 11.9767 8.88397 12.4186 9.23316 12.7678C9.702 13.2366 10.3379 13.5 11.0009 13.5C11.664 13.5 12.2999 13.2366 12.7687 12.7678C13.1179 12.4186 13.3531 11.9767 13.4504 11.5H14.465C14.3578 12.2434 14.0132 12.9375 13.4758 13.4749C12.8194 14.1313 11.9292 14.5 11.0009 14.5C10.0727 14.5 9.18243 14.1313 8.52606 13.4749C7.98869 12.9375 7.6441 12.2434 7.53681 11.5H8.55143Z" fill="#23234E"/>
<path fill-rule="evenodd" clip-rule="evenodd" d="M21.5712 8.06579L17.334 13.5579L17.5331 20.4912L11.0009 18.1591L4.46872 20.4912L4.66785 13.5579L0.430664 8.06579L7.087 6.11251L11.0009 0.38609L14.9149 6.11251L21.5712 8.06579ZM5.67796 13.2291L5.50893 19.0568L11.0009 17.0969L16.4918 19.0568L16.3239 13.2291L19.8858 8.61312L14.291 6.97246L11.4138 2.7619L11.0009 2.16066L10.5881 2.7619L7.71087 6.97245L2.11489 8.61312L5.67796 13.2291Z" fill="#23234E"/>
</svg>
