<svg width="32" height="32" viewBox="0 0 32 32" fill="none" xmlns="http://www.w3.org/2000/svg">
<path fill-rule="evenodd" clip-rule="evenodd" d="M0.871948 4.36808C0 6.07937 0 8.31958 0 12.8V19.2C0 23.6804 0 25.9206 0.871948 27.6319C1.63893 29.1372 2.86278 30.3611 4.36808 31.1281C6.07937 32 8.31958 32 12.8 32H19.2C23.6804 32 25.9206 32 27.6319 31.1281C29.1372 30.3611 30.3611 29.1372 31.1281 27.6319C32 25.9206 32 23.6804 32 19.2V12.8C32 8.31958 32 6.07937 31.1281 4.36808C30.3611 2.86278 29.1372 1.63893 27.6319 0.871948C25.9206 0 23.6804 0 19.2 0H12.8C8.31958 0 6.07937 0 4.36808 0.871948C2.86278 1.63893 1.63893 2.86278 0.871948 4.36808ZM13.6162 23.0122L13.9338 18.5451L22.1156 11.1987C22.4716 10.8835 22.0388 10.7091 21.5628 11.0243L11.4482 17.3531L7.09366 15.9987C6.14644 15.7051 6.12884 15.0571 7.29127 14.6059L24.3237 8.08512C25.1125 7.79153 25.8021 8.25952 25.5453 9.45632L25.5445 9.45712L22.6468 23.0346C22.4284 23.993 21.858 24.2306 21.0484 23.7794L16.6339 20.5467L14.5034 22.5827C14.2674 22.817 14.0706 23.0122 13.6162 23.0122Z" fill="#FAFAFF"/>
</svg>
