<svg width="448" height="485" viewBox="0 0 448 485" fill="none" xmlns="http://www.w3.org/2000/svg">
<g filter="url(#filter0_d)">
<path d="M13 51.693C13 42.6996 13 38.2029 14.7502 34.7679C16.2898 31.7464 18.7464 29.2898 21.7679 27.7502C25.2029 26 29.6996 26 38.693 26L383.14 26C392.133 26 396.63 26 400.065 27.7502C403.086 29.2898 405.543 31.7464 407.083 34.7679C408.833 38.2029 408.833 42.6996 408.833 51.693V251.617C408.833 260.61 408.833 265.107 407.083 268.542C405.543 271.563 403.086 274.02 400.065 275.559C396.63 277.31 392.133 277.31 383.14 277.31H38.693C29.6996 277.31 25.2029 277.31 21.7679 275.559C18.7464 274.02 16.2898 271.563 14.7502 268.542C13 265.107 13 260.61 13 251.617L13 51.693Z" fill="url(#paint0_radial)"/>
</g>
<g filter="url(#filter1_i)">
<path d="M13 51.693C13 42.6996 13 38.2029 14.7502 34.7679C16.2898 31.7464 18.7464 29.2898 21.7679 27.7502C25.2029 26 29.6996 26 38.693 26L383.14 26C392.133 26 396.63 26 400.065 27.7502C403.086 29.2898 405.543 31.7464 407.083 34.7679C408.833 38.2029 408.833 42.6996 408.833 51.693V251.617C408.833 260.61 408.833 265.107 407.083 268.542C405.543 271.563 403.086 274.02 400.065 275.559C396.63 277.31 392.133 277.31 383.14 277.31H38.693C29.6996 277.31 25.2029 277.31 21.7679 275.559C18.7464 274.02 16.2898 271.563 14.7502 268.542C13 265.107 13 260.61 13 251.617L13 51.693Z" fill="#2F69FF"/>
<path d="M13 51.693C13 42.6996 13 38.2029 14.7502 34.7679C16.2898 31.7464 18.7464 29.2898 21.7679 27.7502C25.2029 26 29.6996 26 38.693 26L383.14 26C392.133 26 396.63 26 400.065 27.7502C403.086 29.2898 405.543 31.7464 407.083 34.7679C408.833 38.2029 408.833 42.6996 408.833 51.693V251.617C408.833 260.61 408.833 265.107 407.083 268.542C405.543 271.563 403.086 274.02 400.065 275.559C396.63 277.31 392.133 277.31 383.14 277.31H38.693C29.6996 277.31 25.2029 277.31 21.7679 275.559C18.7464 274.02 16.2898 271.563 14.7502 268.542C13 265.107 13 260.61 13 251.617L13 51.693Z" fill="url(#paint1_linear)"/>
</g>
<mask id="mask0" mask-type="alpha" maskUnits="userSpaceOnUse" x="13" y="26" width="396" height="252">
<path d="M13 51.693C13 42.6996 13 38.2029 14.7502 34.7679C16.2898 31.7464 18.7464 29.2898 21.7679 27.7502C25.2029 26 29.6996 26 38.693 26L383.14 26C392.133 26 396.63 26 400.065 27.7502C403.086 29.2898 405.543 31.7464 407.083 34.7679C408.833 38.2029 408.833 42.6996 408.833 51.693V251.617C408.833 260.61 408.833 265.107 407.083 268.542C405.543 271.563 403.086 274.02 400.065 275.559C396.63 277.31 392.133 277.31 383.14 277.31H38.693C29.6996 277.31 25.2029 277.31 21.7679 275.559C18.7464 274.02 16.2898 271.563 14.7502 268.542C13 265.107 13 260.61 13 251.617L13 51.693Z" fill="url(#paint2_radial)"/>
</mask>
<g mask="url(#mask0)">
<path fill-rule="evenodd" clip-rule="evenodd" d="M338.657 66.5769L342.382 71.8607L339.662 77.7244L335.938 72.4406L338.657 66.5769Z" fill="url(#paint3_radial)"/>
<path fill-rule="evenodd" clip-rule="evenodd" d="M348.825 71.2804L342.381 71.8603L339.662 77.724L346.106 77.1441L348.825 71.2804Z" fill="url(#paint4_radial)"/>
<path fill-rule="evenodd" clip-rule="evenodd" d="M345.1 65.9966L348.825 71.2804L342.381 71.8603L338.657 66.5766L345.1 65.9966Z" fill="url(#paint5_radial)"/>
<g filter="url(#filter2_f)">
<path fill-rule="evenodd" clip-rule="evenodd" d="M71.5287 222.317L86.8978 244.119L75.6785 268.313L60.3094 246.512L71.5287 222.317Z" fill="url(#paint6_radial)"/>
<path fill-rule="evenodd" clip-rule="evenodd" d="M113.486 241.726L86.8974 244.119L75.6782 268.313L102.267 265.92L113.486 241.726Z" fill="url(#paint7_radial)"/>
<path fill-rule="evenodd" clip-rule="evenodd" d="M98.1185 219.925L113.488 241.727L86.8992 244.12L71.5301 222.318L98.1185 219.925Z" fill="url(#paint8_radial)"/>
</g>
<path fill-rule="evenodd" clip-rule="evenodd" d="M58.1016 148.682L66.175 147.341L71.374 153.654L63.3006 154.995L58.1016 148.682Z" fill="url(#paint9_radial)"/>
<path fill-rule="evenodd" clip-rule="evenodd" d="M69.0488 139.688L66.1745 147.342L71.3735 153.655L74.2479 146.001L69.0488 139.688Z" fill="url(#paint10_radial)"/>
<path fill-rule="evenodd" clip-rule="evenodd" d="M60.9788 141.027L69.0522 139.686L66.1778 147.34L58.1044 148.68L60.9788 141.027Z" fill="url(#paint11_radial)"/>
<path fill-rule="evenodd" clip-rule="evenodd" d="M363.29 205.098L377.127 200.492L388.038 210.158L374.201 214.763L363.29 205.098Z" fill="url(#paint12_linear)"/>
<path fill-rule="evenodd" clip-rule="evenodd" d="M380.052 186.221L377.127 200.492L388.039 210.158L390.964 195.887L380.052 186.221Z" fill="url(#paint13_linear)"/>
<path fill-rule="evenodd" clip-rule="evenodd" d="M366.216 190.825L380.053 186.219L377.128 200.491L363.291 205.096L366.216 190.825Z" fill="url(#paint14_linear)"/>
<g filter="url(#filter3_f)">
<path fill-rule="evenodd" clip-rule="evenodd" d="M3.18018 36.4789L50.3091 45.6151L65.9516 90.9481L18.8227 81.8118L3.18018 36.4789Z" fill="url(#paint15_linear)"/>
<path fill-rule="evenodd" clip-rule="evenodd" d="M81.7942 9.41916L50.3078 45.6159L65.9503 90.9488L97.4367 54.7521L81.7942 9.41916Z" fill="url(#paint16_linear)"/>
<path fill-rule="evenodd" clip-rule="evenodd" d="M34.6639 0.283412L81.7927 9.41968L50.3064 45.6164L3.17745 36.4801L34.6639 0.283412Z" fill="url(#paint17_linear)"/>
</g>
</g>
<path fill-rule="evenodd" clip-rule="evenodd" d="M181.899 120.886L210.325 137.278V170.062L181.899 153.67V120.886Z" fill="url(#paint18_radial)"/>
<path fill-rule="evenodd" clip-rule="evenodd" d="M238.751 120.887L210.325 137.279V170.062L238.751 153.671V120.887Z" fill="url(#paint19_radial)"/>
<path fill-rule="evenodd" clip-rule="evenodd" d="M210.324 104.494L238.751 120.886L210.324 137.278L181.898 120.886L210.324 104.494Z" fill="url(#paint20_radial)"/>
<path fill-rule="evenodd" clip-rule="evenodd" d="M195.08 128.485L210.325 137.276V154.858L195.08 146.067V128.485Z" fill="url(#paint21_linear)"/>
<path fill-rule="evenodd" clip-rule="evenodd" d="M225.57 128.485L210.324 137.276V154.859L225.57 146.068V128.485Z" fill="url(#paint22_linear)"/>
<path fill-rule="evenodd" clip-rule="evenodd" d="M210.325 119.695L225.57 128.486L210.325 137.277L195.08 128.486L210.325 119.695Z" fill="url(#paint23_linear)"/>
<path d="M160.671 197.06C159.702 197.06 158.764 196.913 157.856 196.619C156.961 196.312 156.255 195.92 155.74 195.443L156.421 194.009C156.912 194.45 157.537 194.812 158.298 195.093C159.07 195.363 159.861 195.498 160.671 195.498C161.738 195.498 162.535 195.32 163.062 194.965C163.59 194.597 163.854 194.113 163.854 193.513C163.854 193.072 163.706 192.717 163.412 192.447C163.13 192.166 162.774 191.951 162.345 191.804C161.928 191.657 161.333 191.492 160.56 191.308C159.591 191.075 158.807 190.843 158.206 190.61C157.617 190.377 157.108 190.022 156.679 189.544C156.262 189.054 156.053 188.399 156.053 187.578C156.053 186.892 156.231 186.273 156.587 185.722C156.954 185.171 157.506 184.73 158.242 184.399C158.978 184.068 159.892 183.903 160.984 183.903C161.744 183.903 162.492 184.001 163.228 184.197C163.964 184.393 164.596 184.675 165.123 185.042L164.516 186.512C163.976 186.169 163.4 185.912 162.787 185.74C162.173 185.557 161.572 185.465 160.984 185.465C159.941 185.465 159.156 185.655 158.629 186.034C158.114 186.414 157.856 186.904 157.856 187.504C157.856 187.945 158.003 188.307 158.298 188.589C158.592 188.858 158.954 189.072 159.383 189.232C159.825 189.379 160.419 189.538 161.168 189.709C162.136 189.942 162.915 190.175 163.504 190.408C164.093 190.64 164.596 190.996 165.013 191.473C165.442 191.951 165.657 192.594 165.657 193.403C165.657 194.077 165.473 194.695 165.105 195.259C164.737 195.81 164.179 196.251 163.43 196.582C162.682 196.9 161.762 197.06 160.671 197.06Z" fill="#F1F5FF"/>
<path d="M183.835 184.05V196.913H181.995V191.179H174.6V196.913H172.76V184.05H174.6V189.581H181.995V184.05H183.835Z" fill="#F1F5FF"/>
<path d="M201.451 195.314V196.913H192.105V184.05H201.194V185.649H193.945V189.599H200.403V191.161H193.945V195.314H201.451Z" fill="#F1F5FF"/>
<path d="M208.846 184.05H210.685V195.314H217.658V196.913H208.846V184.05Z" fill="#F1F5FF"/>
<path d="M225.538 185.649H221.123V184.05H231.775V185.649H227.36V196.913H225.538V185.649Z" fill="#F1F5FF"/>
<path d="M247.54 195.314V196.913H238.194V184.05H247.283V185.649H240.034V189.599H246.491V191.161H240.034V195.314H247.54Z" fill="#F1F5FF"/>
<path d="M263.545 196.913L260.767 192.962C260.423 192.986 260.153 192.999 259.957 192.999H256.774V196.913H254.935V184.05H259.957C261.625 184.05 262.938 184.448 263.894 185.244C264.851 186.041 265.329 187.137 265.329 188.533C265.329 189.526 265.084 190.371 264.593 191.069C264.103 191.767 263.404 192.276 262.496 192.594L265.55 196.913H263.545ZM259.902 191.437C261.067 191.437 261.956 191.186 262.57 190.683C263.183 190.181 263.489 189.464 263.489 188.533C263.489 187.602 263.183 186.892 262.57 186.402C261.956 185.9 261.067 185.649 259.902 185.649H256.774V191.437H259.902Z" fill="#F1F5FF"/>
<path d="M197.806 243.701C198.952 243.701 199.85 243.974 200.5 244.521C201.15 245.068 201.475 245.819 201.475 246.776C201.475 247.733 201.15 248.485 200.5 249.032C199.85 249.57 198.952 249.839 197.806 249.839H195.393V252.671H194.444V243.701H197.806ZM197.78 249.006C198.67 249.006 199.35 248.814 199.82 248.43C200.291 248.037 200.526 247.485 200.526 246.776C200.526 246.05 200.291 245.495 199.82 245.11C199.35 244.717 198.67 244.521 197.78 244.521H195.393V249.006H197.78Z" fill="#F1F5FF"/>
<path d="M215.936 243.701V252.671H215.025V245.495L211.496 251.531H211.047L207.519 245.533V252.671H206.608V243.701H207.39L211.291 250.352L215.153 243.701H215.936Z" fill="#F1F5FF"/>
<path d="M224.418 252.748C223.751 252.748 223.11 252.641 222.494 252.428C221.886 252.214 221.416 251.932 221.082 251.582L221.454 250.852C221.779 251.176 222.211 251.441 222.75 251.646C223.289 251.843 223.845 251.941 224.418 251.941C225.222 251.941 225.825 251.796 226.227 251.505C226.63 251.206 226.831 250.822 226.831 250.352C226.831 249.993 226.719 249.707 226.497 249.493C226.283 249.28 226.018 249.117 225.701 249.006C225.385 248.887 224.944 248.758 224.38 248.622C223.704 248.451 223.165 248.289 222.763 248.135C222.361 247.972 222.015 247.729 221.724 247.404C221.441 247.08 221.3 246.64 221.3 246.084C221.3 245.632 221.42 245.221 221.66 244.854C221.899 244.478 222.267 244.179 222.763 243.957C223.259 243.735 223.875 243.624 224.611 243.624C225.124 243.624 225.624 243.696 226.112 243.842C226.608 243.978 227.036 244.171 227.395 244.418L227.074 245.174C226.698 244.927 226.296 244.743 225.868 244.623C225.441 244.495 225.021 244.431 224.611 244.431C223.824 244.431 223.229 244.585 222.827 244.892C222.434 245.192 222.237 245.58 222.237 246.059C222.237 246.418 222.344 246.708 222.558 246.93C222.78 247.144 223.054 247.31 223.379 247.43C223.713 247.541 224.157 247.665 224.713 247.802C225.372 247.964 225.902 248.126 226.304 248.289C226.715 248.442 227.062 248.682 227.344 249.006C227.626 249.322 227.767 249.754 227.767 250.301C227.767 250.753 227.643 251.168 227.395 251.544C227.156 251.911 226.783 252.206 226.279 252.428C225.774 252.641 225.154 252.748 224.418 252.748Z" fill="#F1F5FF"/>
<g filter="url(#filter4_d)">
<path d="M13 142.393C13 133.4 13 128.903 14.7502 125.468C16.2898 122.447 18.7464 119.99 21.7679 118.451C25.2029 116.7 29.6996 116.7 38.693 116.7L383.14 116.7C392.133 116.7 396.63 116.7 400.065 118.451C403.086 119.99 405.543 122.447 407.083 125.468C408.833 128.903 408.833 133.4 408.833 142.393V342.317C408.833 351.31 408.833 355.807 407.083 359.242C405.543 362.264 403.086 364.72 400.065 366.26C396.63 368.01 392.133 368.01 383.14 368.01H38.693C29.6996 368.01 25.2029 368.01 21.7679 366.26C18.7464 364.72 16.2898 362.264 14.7502 359.242C13 355.807 13 351.31 13 342.317L13 142.393Z" fill="url(#paint24_radial)"/>
</g>
<g filter="url(#filter5_i)">
<path d="M13 142.393C13 133.4 13 128.903 14.7502 125.468C16.2898 122.447 18.7464 119.99 21.7679 118.451C25.2029 116.7 29.6996 116.7 38.693 116.7L383.14 116.7C392.133 116.7 396.63 116.7 400.065 118.451C403.086 119.99 405.543 122.447 407.083 125.468C408.833 128.903 408.833 133.4 408.833 142.393V342.317C408.833 351.31 408.833 355.807 407.083 359.242C405.543 362.264 403.086 364.72 400.065 366.26C396.63 368.01 392.133 368.01 383.14 368.01H38.693C29.6996 368.01 25.2029 368.01 21.7679 366.26C18.7464 364.72 16.2898 362.264 14.7502 359.242C13 355.807 13 351.31 13 342.317L13 142.393Z" fill="#2F69FF"/>
<path d="M13 142.393C13 133.4 13 128.903 14.7502 125.468C16.2898 122.447 18.7464 119.99 21.7679 118.451C25.2029 116.7 29.6996 116.7 38.693 116.7L383.14 116.7C392.133 116.7 396.63 116.7 400.065 118.451C403.086 119.99 405.543 122.447 407.083 125.468C408.833 128.903 408.833 133.4 408.833 142.393V342.317C408.833 351.31 408.833 355.807 407.083 359.242C405.543 362.264 403.086 364.72 400.065 366.26C396.63 368.01 392.133 368.01 383.14 368.01H38.693C29.6996 368.01 25.2029 368.01 21.7679 366.26C18.7464 364.72 16.2898 362.264 14.7502 359.242C13 355.807 13 351.31 13 342.317L13 142.393Z" fill="url(#paint25_linear)"/>
</g>
<mask id="mask1" mask-type="alpha" maskUnits="userSpaceOnUse" x="13" y="116" width="396" height="253">
<path d="M13 142.393C13 133.4 13 128.903 14.7502 125.468C16.2898 122.447 18.7464 119.99 21.7679 118.451C25.2029 116.7 29.6996 116.7 38.693 116.7L383.14 116.7C392.133 116.7 396.63 116.7 400.065 118.451C403.086 119.99 405.543 122.447 407.083 125.468C408.833 128.903 408.833 133.4 408.833 142.393V342.317C408.833 351.31 408.833 355.807 407.083 359.242C405.543 362.264 403.086 364.72 400.065 366.26C396.63 368.01 392.133 368.01 383.14 368.01H38.693C29.6996 368.01 25.2029 368.01 21.7679 366.26C18.7464 364.72 16.2898 362.264 14.7502 359.242C13 355.807 13 351.31 13 342.317L13 142.393Z" fill="url(#paint26_radial)"/>
</mask>
<g mask="url(#mask1)">
<path fill-rule="evenodd" clip-rule="evenodd" d="M338.657 157.277L342.382 162.561L339.662 168.425L335.938 163.141L338.657 157.277Z" fill="url(#paint27_radial)"/>
<path fill-rule="evenodd" clip-rule="evenodd" d="M348.825 161.981L342.381 162.561L339.662 168.424L346.106 167.844L348.825 161.981Z" fill="url(#paint28_radial)"/>
<path fill-rule="evenodd" clip-rule="evenodd" d="M345.1 156.697L348.825 161.981L342.381 162.561L338.657 157.277L345.1 156.697Z" fill="url(#paint29_radial)"/>
<g filter="url(#filter6_f)">
<path fill-rule="evenodd" clip-rule="evenodd" d="M71.5287 313.018L86.8978 334.819L75.6785 359.014L60.3094 337.212L71.5287 313.018Z" fill="url(#paint30_radial)"/>
<path fill-rule="evenodd" clip-rule="evenodd" d="M113.486 332.426L86.8974 334.819L75.6782 359.014L102.267 356.621L113.486 332.426Z" fill="url(#paint31_radial)"/>
<path fill-rule="evenodd" clip-rule="evenodd" d="M98.1185 310.625L113.488 332.427L86.8992 334.82L71.5301 313.018L98.1185 310.625Z" fill="url(#paint32_radial)"/>
</g>
<path fill-rule="evenodd" clip-rule="evenodd" d="M58.1016 239.382L66.175 238.042L71.374 244.355L63.3006 245.695L58.1016 239.382Z" fill="url(#paint33_radial)"/>
<path fill-rule="evenodd" clip-rule="evenodd" d="M69.0488 230.389L66.1745 238.042L71.3735 244.355L74.2479 236.702L69.0488 230.389Z" fill="url(#paint34_radial)"/>
<path fill-rule="evenodd" clip-rule="evenodd" d="M60.9788 231.727L69.0522 230.387L66.1778 238.04L58.1044 239.381L60.9788 231.727Z" fill="url(#paint35_radial)"/>
<path fill-rule="evenodd" clip-rule="evenodd" d="M363.29 295.798L377.127 291.192L388.038 300.858L374.201 305.464L363.29 295.798Z" fill="url(#paint36_linear)"/>
<path fill-rule="evenodd" clip-rule="evenodd" d="M380.052 276.921L377.127 291.193L388.039 300.859L390.964 286.587L380.052 276.921Z" fill="url(#paint37_linear)"/>
<path fill-rule="evenodd" clip-rule="evenodd" d="M366.216 281.525L380.053 276.92L377.128 291.191L363.291 295.797L366.216 281.525Z" fill="url(#paint38_linear)"/>
<g filter="url(#filter7_f)">
<path fill-rule="evenodd" clip-rule="evenodd" d="M3.18018 127.179L50.3091 136.315L65.9516 181.648L18.8227 172.512L3.18018 127.179Z" fill="url(#paint39_linear)"/>
<path fill-rule="evenodd" clip-rule="evenodd" d="M81.7942 100.119L50.3078 136.316L65.9503 181.649L97.4367 145.452L81.7942 100.119Z" fill="url(#paint40_linear)"/>
<path fill-rule="evenodd" clip-rule="evenodd" d="M34.6639 90.9837L81.7927 100.12L50.3064 136.317L3.17745 127.18L34.6639 90.9837Z" fill="url(#paint41_linear)"/>
</g>
</g>
<path fill-rule="evenodd" clip-rule="evenodd" d="M181.899 211.586L210.325 227.978V260.762L181.899 244.37V211.586Z" fill="url(#paint42_radial)"/>
<path fill-rule="evenodd" clip-rule="evenodd" d="M238.751 211.587L210.325 227.979V260.763L238.751 244.371V211.587Z" fill="url(#paint43_radial)"/>
<path fill-rule="evenodd" clip-rule="evenodd" d="M210.324 195.194L238.751 211.586L210.324 227.978L181.898 211.586L210.324 195.194Z" fill="url(#paint44_radial)"/>
<path fill-rule="evenodd" clip-rule="evenodd" d="M195.08 219.185L210.325 227.976V245.558L195.08 236.767V219.185Z" fill="url(#paint45_linear)"/>
<path fill-rule="evenodd" clip-rule="evenodd" d="M225.57 219.186L210.324 227.977V245.559L225.57 236.768V219.186Z" fill="url(#paint46_linear)"/>
<path fill-rule="evenodd" clip-rule="evenodd" d="M210.325 210.395L225.57 219.186L210.325 227.977L195.08 219.186L210.325 210.395Z" fill="url(#paint47_linear)"/>
<path d="M160.671 287.76C159.702 287.76 158.764 287.613 157.856 287.319C156.961 287.013 156.255 286.621 155.74 286.143L156.421 284.71C156.912 285.151 157.537 285.512 158.298 285.794C159.07 286.063 159.861 286.198 160.671 286.198C161.738 286.198 162.535 286.02 163.062 285.665C163.59 285.298 163.854 284.814 163.854 284.213C163.854 283.772 163.706 283.417 163.412 283.148C163.13 282.866 162.774 282.652 162.345 282.505C161.928 282.358 161.333 282.192 160.56 282.008C159.591 281.776 158.807 281.543 158.206 281.31C157.617 281.077 157.108 280.722 156.679 280.244C156.262 279.754 156.053 279.099 156.053 278.278C156.053 277.592 156.231 276.974 156.587 276.422C156.954 275.871 157.506 275.43 158.242 275.099C158.978 274.769 159.892 274.603 160.984 274.603C161.744 274.603 162.492 274.701 163.228 274.897C163.964 275.093 164.596 275.375 165.123 275.743L164.516 277.213C163.976 276.87 163.4 276.612 162.787 276.441C162.173 276.257 161.572 276.165 160.984 276.165C159.941 276.165 159.156 276.355 158.629 276.735C158.114 277.115 157.856 277.605 157.856 278.205C157.856 278.646 158.003 279.007 158.298 279.289C158.592 279.558 158.954 279.773 159.383 279.932C159.825 280.079 160.419 280.238 161.168 280.41C162.136 280.643 162.915 280.875 163.504 281.108C164.093 281.341 164.596 281.696 165.013 282.174C165.442 282.652 165.657 283.295 165.657 284.103C165.657 284.777 165.473 285.396 165.105 285.959C164.737 286.51 164.179 286.951 163.43 287.282C162.682 287.601 161.762 287.76 160.671 287.76Z" fill="#F1F5FF"/>
<path d="M183.835 274.75V287.613H181.995V281.88H174.6V287.613H172.76V274.75H174.6V280.281H181.995V274.75H183.835Z" fill="#F1F5FF"/>
<path d="M201.451 286.014V287.613H192.105V274.75H201.194V276.349H193.945V280.3H200.403V281.861H193.945V286.014H201.451Z" fill="#F1F5FF"/>
<path d="M208.846 274.75H210.685V286.014H217.658V287.613H208.846V274.75Z" fill="#F1F5FF"/>
<path d="M225.538 276.349H221.123V274.75H231.775V276.349H227.36V287.613H225.538V276.349Z" fill="#F1F5FF"/>
<path d="M247.54 286.014V287.613H238.194V274.75H247.283V276.349H240.034V280.3H246.491V281.861H240.034V286.014H247.54Z" fill="#F1F5FF"/>
<path d="M263.545 287.613L260.767 283.662C260.423 283.687 260.153 283.699 259.957 283.699H256.774V287.613H254.935V274.75H259.957C261.625 274.75 262.938 275.148 263.894 275.945C264.851 276.741 265.329 277.837 265.329 279.234C265.329 280.226 265.084 281.071 264.593 281.77C264.103 282.468 263.404 282.976 262.496 283.295L265.55 287.613H263.545ZM259.902 282.137C261.067 282.137 261.956 281.886 262.57 281.384C263.183 280.881 263.489 280.165 263.489 279.234C263.489 278.303 263.183 277.592 262.57 277.102C261.956 276.6 261.067 276.349 259.902 276.349H256.774V282.137H259.902Z" fill="#F1F5FF"/>
<path d="M197.806 334.401C198.952 334.401 199.85 334.674 200.5 335.221C201.15 335.768 201.475 336.52 201.475 337.477C201.475 338.434 201.15 339.185 200.5 339.732C199.85 340.27 198.952 340.54 197.806 340.54H195.393V343.372H194.444V334.401H197.806ZM197.78 339.707C198.67 339.707 199.35 339.514 199.82 339.13C200.291 338.737 200.526 338.186 200.526 337.477C200.526 336.75 200.291 336.195 199.82 335.811C199.35 335.418 198.67 335.221 197.78 335.221H195.393V339.707H197.78Z" fill="#F1F5FF"/>
<path d="M215.936 334.401V343.372H215.025V336.195L211.496 342.231H211.047L207.519 336.234V343.372H206.608V334.401H207.39L211.291 341.052L215.153 334.401H215.936Z" fill="#F1F5FF"/>
<path d="M224.418 343.449C223.751 343.449 223.11 343.342 222.494 343.128C221.886 342.915 221.416 342.633 221.082 342.282L221.454 341.552C221.779 341.877 222.211 342.141 222.75 342.346C223.289 342.543 223.845 342.641 224.418 342.641C225.222 342.641 225.825 342.496 226.227 342.206C226.63 341.906 226.831 341.522 226.831 341.052C226.831 340.693 226.719 340.407 226.497 340.194C226.283 339.98 226.018 339.818 225.701 339.707C225.385 339.587 224.944 339.459 224.38 339.322C223.704 339.151 223.165 338.989 222.763 338.835C222.361 338.673 222.015 338.429 221.724 338.105C221.441 337.78 221.3 337.34 221.3 336.785C221.3 336.332 221.42 335.922 221.66 335.554C221.899 335.178 222.267 334.879 222.763 334.657C223.259 334.435 223.875 334.324 224.611 334.324C225.124 334.324 225.624 334.397 226.112 334.542C226.608 334.679 227.036 334.871 227.395 335.119L227.074 335.875C226.698 335.627 226.296 335.443 225.868 335.324C225.441 335.196 225.021 335.131 224.611 335.131C223.824 335.131 223.229 335.285 222.827 335.593C222.434 335.892 222.237 336.281 222.237 336.759C222.237 337.118 222.344 337.408 222.558 337.63C222.78 337.844 223.054 338.011 223.379 338.13C223.713 338.241 224.157 338.365 224.713 338.502C225.372 338.664 225.902 338.827 226.304 338.989C226.715 339.143 227.062 339.382 227.344 339.707C227.626 340.023 227.767 340.454 227.767 341.001C227.767 341.454 227.643 341.868 227.395 342.244C227.156 342.611 226.783 342.906 226.279 343.128C225.774 343.342 225.154 343.449 224.418 343.449Z" fill="#F1F5FF"/>
<g filter="url(#filter8_d)">
<path d="M13 233.094C13 224.1 13 219.604 14.7502 216.169C16.2898 213.147 18.7464 210.69 21.7679 209.151C25.2029 207.401 29.6996 207.401 38.693 207.401L383.14 207.401C392.133 207.401 396.63 207.401 400.065 209.151C403.086 210.69 405.543 213.147 407.083 216.169C408.833 219.604 408.833 224.1 408.833 233.094V433.017C408.833 442.011 408.833 446.507 407.083 449.942C405.543 452.964 403.086 455.421 400.065 456.96C396.63 458.71 392.133 458.71 383.14 458.71H38.693C29.6996 458.71 25.2029 458.71 21.7679 456.96C18.7464 455.421 16.2898 452.964 14.7502 449.942C13 446.507 13 442.011 13 433.017L13 233.094Z" fill="url(#paint48_radial)"/>
</g>
<g filter="url(#filter9_i)">
<path d="M13 233.094C13 224.1 13 219.604 14.7502 216.169C16.2898 213.147 18.7464 210.69 21.7679 209.151C25.2029 207.401 29.6996 207.401 38.693 207.401L383.14 207.401C392.133 207.401 396.63 207.401 400.065 209.151C403.086 210.69 405.543 213.147 407.083 216.169C408.833 219.604 408.833 224.1 408.833 233.094V433.017C408.833 442.011 408.833 446.507 407.083 449.942C405.543 452.964 403.086 455.421 400.065 456.96C396.63 458.71 392.133 458.71 383.14 458.71H38.693C29.6996 458.71 25.2029 458.71 21.7679 456.96C18.7464 455.421 16.2898 452.964 14.7502 449.942C13 446.507 13 442.011 13 433.017L13 233.094Z" fill="#2F69FF"/>
<path d="M13 233.094C13 224.1 13 219.604 14.7502 216.169C16.2898 213.147 18.7464 210.69 21.7679 209.151C25.2029 207.401 29.6996 207.401 38.693 207.401L383.14 207.401C392.133 207.401 396.63 207.401 400.065 209.151C403.086 210.69 405.543 213.147 407.083 216.169C408.833 219.604 408.833 224.1 408.833 233.094V433.017C408.833 442.011 408.833 446.507 407.083 449.942C405.543 452.964 403.086 455.421 400.065 456.96C396.63 458.71 392.133 458.71 383.14 458.71H38.693C29.6996 458.71 25.2029 458.71 21.7679 456.96C18.7464 455.421 16.2898 452.964 14.7502 449.942C13 446.507 13 442.011 13 433.017L13 233.094Z" fill="url(#paint49_linear)"/>
</g>
<mask id="mask2" mask-type="alpha" maskUnits="userSpaceOnUse" x="13" y="207" width="396" height="252">
<path d="M13 233.094C13 224.1 13 219.604 14.7502 216.169C16.2898 213.147 18.7464 210.69 21.7679 209.151C25.2029 207.401 29.6996 207.401 38.693 207.401L383.14 207.401C392.133 207.401 396.63 207.401 400.065 209.151C403.086 210.69 405.543 213.147 407.083 216.169C408.833 219.604 408.833 224.1 408.833 233.094V433.017C408.833 442.011 408.833 446.507 407.083 449.942C405.543 452.964 403.086 455.421 400.065 456.96C396.63 458.71 392.133 458.71 383.14 458.71H38.693C29.6996 458.71 25.2029 458.71 21.7679 456.96C18.7464 455.421 16.2898 452.964 14.7502 449.942C13 446.507 13 442.011 13 433.017L13 233.094Z" fill="url(#paint50_radial)"/>
</mask>
<g mask="url(#mask2)">
<path fill-rule="evenodd" clip-rule="evenodd" d="M338.657 247.978L342.382 253.261L339.662 259.125L335.938 253.841L338.657 247.978Z" fill="url(#paint51_radial)"/>
<path fill-rule="evenodd" clip-rule="evenodd" d="M348.825 252.681L342.381 253.261L339.662 259.125L346.106 258.545L348.825 252.681Z" fill="url(#paint52_radial)"/>
<path fill-rule="evenodd" clip-rule="evenodd" d="M345.1 247.397L348.825 252.681L342.381 253.261L338.657 247.977L345.1 247.397Z" fill="url(#paint53_radial)"/>
<g filter="url(#filter10_f)">
<path fill-rule="evenodd" clip-rule="evenodd" d="M71.5287 403.718L86.8978 425.52L75.6785 449.714L60.3094 427.913L71.5287 403.718Z" fill="url(#paint54_radial)"/>
<path fill-rule="evenodd" clip-rule="evenodd" d="M113.486 423.126L86.8974 425.519L75.6782 449.714L102.267 447.321L113.486 423.126Z" fill="url(#paint55_radial)"/>
<path fill-rule="evenodd" clip-rule="evenodd" d="M98.1185 401.326L113.488 423.127L86.8992 425.52L71.5301 403.719L98.1185 401.326Z" fill="url(#paint56_radial)"/>
</g>
<path fill-rule="evenodd" clip-rule="evenodd" d="M58.1016 330.083L66.175 328.742L71.374 335.055L63.3006 336.396L58.1016 330.083Z" fill="url(#paint57_radial)"/>
<path fill-rule="evenodd" clip-rule="evenodd" d="M69.0488 321.089L66.1745 328.742L71.3735 335.055L74.2479 327.402L69.0488 321.089Z" fill="url(#paint58_radial)"/>
<path fill-rule="evenodd" clip-rule="evenodd" d="M60.9788 322.427L69.0522 321.087L66.1778 328.74L58.1044 330.081L60.9788 322.427Z" fill="url(#paint59_radial)"/>
<path fill-rule="evenodd" clip-rule="evenodd" d="M363.29 386.498L377.127 381.893L388.038 391.559L374.201 396.164L363.29 386.498Z" fill="url(#paint60_linear)"/>
<path fill-rule="evenodd" clip-rule="evenodd" d="M380.052 367.622L377.127 381.893L388.039 391.559L390.964 377.288L380.052 367.622Z" fill="url(#paint61_linear)"/>
<path fill-rule="evenodd" clip-rule="evenodd" d="M366.216 372.226L380.053 367.62L377.128 381.891L363.291 386.497L366.216 372.226Z" fill="url(#paint62_linear)"/>
<g filter="url(#filter11_f)">
<path fill-rule="evenodd" clip-rule="evenodd" d="M3.18018 217.879L50.3091 227.016L65.9516 272.349L18.8227 263.212L3.18018 217.879Z" fill="url(#paint63_linear)"/>
<path fill-rule="evenodd" clip-rule="evenodd" d="M81.7942 190.82L50.3078 227.016L65.9503 272.349L97.4367 236.153L81.7942 190.82Z" fill="url(#paint64_linear)"/>
<path fill-rule="evenodd" clip-rule="evenodd" d="M34.6639 181.684L81.7927 190.82L50.3064 227.017L3.17745 217.881L34.6639 181.684Z" fill="url(#paint65_linear)"/>
</g>
</g>
<path fill-rule="evenodd" clip-rule="evenodd" d="M181.899 302.287L210.325 318.678V351.462L181.899 335.07V302.287Z" fill="url(#paint66_radial)"/>
<path fill-rule="evenodd" clip-rule="evenodd" d="M238.751 302.287L210.325 318.679V351.463L238.751 335.071V302.287Z" fill="url(#paint67_radial)"/>
<path fill-rule="evenodd" clip-rule="evenodd" d="M210.324 285.895L238.751 302.287L210.324 318.679L181.898 302.287L210.324 285.895Z" fill="url(#paint68_radial)"/>
<path fill-rule="evenodd" clip-rule="evenodd" d="M195.08 309.886L210.325 318.677V336.259L195.08 327.468V309.886Z" fill="url(#paint69_linear)"/>
<path fill-rule="evenodd" clip-rule="evenodd" d="M225.57 309.886L210.324 318.677V336.259L225.57 327.468V309.886Z" fill="url(#paint70_linear)"/>
<path fill-rule="evenodd" clip-rule="evenodd" d="M210.325 301.096L225.57 309.887L210.325 318.678L195.08 309.887L210.325 301.096Z" fill="url(#paint71_linear)"/>
<path d="M160.671 378.46C159.702 378.46 158.764 378.313 157.856 378.019C156.961 377.713 156.255 377.321 155.74 376.843L156.421 375.41C156.912 375.851 157.537 376.212 158.298 376.494C159.07 376.764 159.861 376.898 160.671 376.898C161.738 376.898 162.535 376.721 163.062 376.365C163.59 375.998 163.854 375.514 163.854 374.914C163.854 374.473 163.706 374.118 163.412 373.848C163.13 373.566 162.774 373.352 162.345 373.205C161.928 373.058 161.333 372.893 160.56 372.709C159.591 372.476 158.807 372.243 158.206 372.011C157.617 371.778 157.108 371.423 156.679 370.945C156.262 370.455 156.053 369.799 156.053 368.979C156.053 368.293 156.231 367.674 156.587 367.123C156.954 366.571 157.506 366.13 158.242 365.8C158.978 365.469 159.892 365.304 160.984 365.304C161.744 365.304 162.492 365.402 163.228 365.598C163.964 365.794 164.596 366.075 165.123 366.443L164.516 367.913C163.976 367.57 163.4 367.313 162.787 367.141C162.173 366.957 161.572 366.865 160.984 366.865C159.941 366.865 159.156 367.055 158.629 367.435C158.114 367.815 157.856 368.305 157.856 368.905C157.856 369.346 158.003 369.707 158.298 369.989C158.592 370.259 158.954 370.473 159.383 370.632C159.825 370.779 160.419 370.939 161.168 371.11C162.136 371.343 162.915 371.576 163.504 371.808C164.093 372.041 164.596 372.396 165.013 372.874C165.442 373.352 165.657 373.995 165.657 374.804C165.657 375.477 165.473 376.096 165.105 376.659C164.737 377.211 164.179 377.652 163.43 377.982C162.682 378.301 161.762 378.46 160.671 378.46Z" fill="#F1F5FF"/>
<path d="M183.835 365.451V378.313H181.995V372.58H174.6V378.313H172.76V365.451H174.6V370.982H181.995V365.451H183.835Z" fill="#F1F5FF"/>
<path d="M201.451 376.715V378.313H192.105V365.451H201.194V367.049H193.945V371H200.403V372.562H193.945V376.715H201.451Z" fill="#F1F5FF"/>
<path d="M208.846 365.451H210.685V376.715H217.658V378.313H208.846V365.451Z" fill="#F1F5FF"/>
<path d="M225.538 367.049H221.123V365.451H231.775V367.049H227.36V378.313H225.538V367.049Z" fill="#F1F5FF"/>
<path d="M247.54 376.715V378.313H238.194V365.451H247.283V367.049H240.034V371H246.491V372.562H240.034V376.715H247.54Z" fill="#F1F5FF"/>
<path d="M263.545 378.313L260.767 374.363C260.423 374.387 260.153 374.399 259.957 374.399H256.774V378.313H254.935V365.451H259.957C261.625 365.451 262.938 365.849 263.894 366.645C264.851 367.441 265.329 368.538 265.329 369.934C265.329 370.926 265.084 371.772 264.593 372.47C264.103 373.168 263.404 373.677 262.496 373.995L265.55 378.313H263.545ZM259.902 372.837C261.067 372.837 261.956 372.586 262.57 372.084C263.183 371.582 263.489 370.865 263.489 369.934C263.489 369.003 263.183 368.293 262.57 367.803C261.956 367.3 261.067 367.049 259.902 367.049H256.774V372.837H259.902Z" fill="#F1F5FF"/>
<path d="M197.806 425.101C198.952 425.101 199.85 425.375 200.5 425.921C201.15 426.468 201.475 427.22 201.475 428.177C201.475 429.134 201.15 429.886 200.5 430.432C199.85 430.971 198.952 431.24 197.806 431.24H195.393V434.072H194.444V425.101H197.806ZM197.78 430.407C198.67 430.407 199.35 430.215 199.82 429.83C200.291 429.437 200.526 428.886 200.526 428.177C200.526 427.451 200.291 426.895 199.82 426.511C199.35 426.118 198.67 425.921 197.78 425.921H195.393V430.407H197.78Z" fill="#F1F5FF"/>
<path d="M215.936 425.101V434.072H215.025V426.895L211.496 432.931H211.047L207.519 426.934V434.072H206.608V425.101H207.39L211.291 431.752L215.153 425.101H215.936Z" fill="#F1F5FF"/>
<path d="M224.418 434.149C223.751 434.149 223.11 434.042 222.494 433.829C221.886 433.615 221.416 433.333 221.082 432.983L221.454 432.252C221.779 432.577 222.211 432.842 222.75 433.047C223.289 433.243 223.845 433.342 224.418 433.342C225.222 433.342 225.825 433.196 226.227 432.906C226.63 432.607 226.831 432.222 226.831 431.752C226.831 431.394 226.719 431.107 226.497 430.894C226.283 430.68 226.018 430.518 225.701 430.407C225.385 430.287 224.944 430.159 224.38 430.022C223.704 429.852 223.165 429.689 222.763 429.535C222.361 429.373 222.015 429.13 221.724 428.805C221.441 428.48 221.3 428.04 221.3 427.485C221.3 427.032 221.42 426.622 221.66 426.255C221.899 425.879 222.267 425.58 222.763 425.358C223.259 425.135 223.875 425.024 224.611 425.024C225.124 425.024 225.624 425.097 226.112 425.242C226.608 425.379 227.036 425.571 227.395 425.819L227.074 426.575C226.698 426.327 226.296 426.144 225.868 426.024C225.441 425.896 225.021 425.832 224.611 425.832C223.824 425.832 223.229 425.986 222.827 426.293C222.434 426.592 222.237 426.981 222.237 427.459C222.237 427.818 222.344 428.109 222.558 428.331C222.78 428.544 223.054 428.711 223.379 428.831C223.713 428.942 224.157 429.066 224.713 429.202C225.372 429.365 225.902 429.527 226.304 429.689C226.715 429.843 227.062 430.082 227.344 430.407C227.626 430.723 227.767 431.154 227.767 431.701C227.767 432.154 227.643 432.568 227.395 432.944C227.156 433.312 226.783 433.606 226.279 433.829C225.774 434.042 225.154 434.149 224.418 434.149Z" fill="#F1F5FF"/>
<defs>
<filter id="filter0_d" x="0.148989" y="0.297977" width="447.237" height="302.714" filterUnits="userSpaceOnUse" color-interpolation-filters="sRGB">
<feFlood flood-opacity="0" result="BackgroundImageFix"/>
<feColorMatrix in="SourceAlpha" type="matrix" values="0 0 0 0 0 0 0 0 0 0 0 0 0 0 0 0 0 0 127 0"/>
<feOffset dx="12.851"/>
<feGaussianBlur stdDeviation="12.851"/>
<feColorMatrix type="matrix" values="0 0 0 0 0.0541667 0 0 0 0 0.160743 0 0 0 0 0.433333 0 0 0 0.26 0"/>
<feBlend mode="normal" in2="BackgroundImageFix" result="effect1_dropShadow"/>
<feBlend mode="normal" in="SourceGraphic" in2="effect1_dropShadow" result="shape"/>
</filter>
<filter id="filter1_i" x="11" y="24" width="397.833" height="253.31" filterUnits="userSpaceOnUse" color-interpolation-filters="sRGB">
<feFlood flood-opacity="0" result="BackgroundImageFix"/>
<feBlend mode="normal" in="SourceGraphic" in2="BackgroundImageFix" result="shape"/>
<feColorMatrix in="SourceAlpha" type="matrix" values="0 0 0 0 0 0 0 0 0 0 0 0 0 0 0 0 0 0 127 0" result="hardAlpha"/>
<feOffset dx="-2" dy="-2"/>
<feGaussianBlur stdDeviation="1.5"/>
<feComposite in2="hardAlpha" operator="arithmetic" k2="-1" k3="1"/>
<feColorMatrix type="matrix" values="0 0 0 0 0.202066 0 0 0 0 0.265654 0 0 0 0 0.429167 0 0 0 0.34 0"/>
<feBlend mode="normal" in2="shape" result="effect1_innerShadow"/>
</filter>
<filter id="filter2_f" x="52.2804" y="211.896" width="69.2363" height="64.4464" filterUnits="userSpaceOnUse" color-interpolation-filters="sRGB">
<feFlood flood-opacity="0" result="BackgroundImageFix"/>
<feBlend mode="normal" in="SourceGraphic" in2="BackgroundImageFix" result="shape"/>
<feGaussianBlur stdDeviation="4.01453" result="effect1_foregroundBlur"/>
</filter>
<filter id="filter3_f" x="-8.0632" y="-10.9573" width="116.741" height="113.147" filterUnits="userSpaceOnUse" color-interpolation-filters="sRGB">
<feFlood flood-opacity="0" result="BackgroundImageFix"/>
<feBlend mode="normal" in="SourceGraphic" in2="BackgroundImageFix" result="shape"/>
<feGaussianBlur stdDeviation="5.62034" result="effect1_foregroundBlur"/>
</filter>
<filter id="filter4_d" x="0.148989" y="90.9983" width="447.237" height="302.714" filterUnits="userSpaceOnUse" color-interpolation-filters="sRGB">
<feFlood flood-opacity="0" result="BackgroundImageFix"/>
<feColorMatrix in="SourceAlpha" type="matrix" values="0 0 0 0 0 0 0 0 0 0 0 0 0 0 0 0 0 0 127 0"/>
<feOffset dx="12.851"/>
<feGaussianBlur stdDeviation="12.851"/>
<feColorMatrix type="matrix" values="0 0 0 0 0.0541667 0 0 0 0 0.160743 0 0 0 0 0.433333 0 0 0 0.26 0"/>
<feBlend mode="normal" in2="BackgroundImageFix" result="effect1_dropShadow"/>
<feBlend mode="normal" in="SourceGraphic" in2="effect1_dropShadow" result="shape"/>
</filter>
<filter id="filter5_i" x="11" y="114.7" width="397.833" height="253.31" filterUnits="userSpaceOnUse" color-interpolation-filters="sRGB">
<feFlood flood-opacity="0" result="BackgroundImageFix"/>
<feBlend mode="normal" in="SourceGraphic" in2="BackgroundImageFix" result="shape"/>
<feColorMatrix in="SourceAlpha" type="matrix" values="0 0 0 0 0 0 0 0 0 0 0 0 0 0 0 0 0 0 127 0" result="hardAlpha"/>
<feOffset dx="-2" dy="-2"/>
<feGaussianBlur stdDeviation="1.5"/>
<feComposite in2="hardAlpha" operator="arithmetic" k2="-1" k3="1"/>
<feColorMatrix type="matrix" values="0 0 0 0 0.202066 0 0 0 0 0.265654 0 0 0 0 0.429167 0 0 0 0.34 0"/>
<feBlend mode="normal" in2="shape" result="effect1_innerShadow"/>
</filter>
<filter id="filter6_f" x="52.2804" y="302.596" width="69.2363" height="64.4464" filterUnits="userSpaceOnUse" color-interpolation-filters="sRGB">
<feFlood flood-opacity="0" result="BackgroundImageFix"/>
<feBlend mode="normal" in="SourceGraphic" in2="BackgroundImageFix" result="shape"/>
<feGaussianBlur stdDeviation="4.01453" result="effect1_foregroundBlur"/>
</filter>
<filter id="filter7_f" x="-8.0632" y="79.743" width="116.741" height="113.147" filterUnits="userSpaceOnUse" color-interpolation-filters="sRGB">
<feFlood flood-opacity="0" result="BackgroundImageFix"/>
<feBlend mode="normal" in="SourceGraphic" in2="BackgroundImageFix" result="shape"/>
<feGaussianBlur stdDeviation="5.62034" result="effect1_foregroundBlur"/>
</filter>
<filter id="filter8_d" x="0.148989" y="181.699" width="447.237" height="302.714" filterUnits="userSpaceOnUse" color-interpolation-filters="sRGB">
<feFlood flood-opacity="0" result="BackgroundImageFix"/>
<feColorMatrix in="SourceAlpha" type="matrix" values="0 0 0 0 0 0 0 0 0 0 0 0 0 0 0 0 0 0 127 0"/>
<feOffset dx="12.851"/>
<feGaussianBlur stdDeviation="12.851"/>
<feColorMatrix type="matrix" values="0 0 0 0 0.0541667 0 0 0 0 0.160743 0 0 0 0 0.433333 0 0 0 0.26 0"/>
<feBlend mode="normal" in2="BackgroundImageFix" result="effect1_dropShadow"/>
<feBlend mode="normal" in="SourceGraphic" in2="effect1_dropShadow" result="shape"/>
</filter>
<filter id="filter9_i" x="11" y="205.401" width="397.833" height="253.31" filterUnits="userSpaceOnUse" color-interpolation-filters="sRGB">
<feFlood flood-opacity="0" result="BackgroundImageFix"/>
<feBlend mode="normal" in="SourceGraphic" in2="BackgroundImageFix" result="shape"/>
<feColorMatrix in="SourceAlpha" type="matrix" values="0 0 0 0 0 0 0 0 0 0 0 0 0 0 0 0 0 0 127 0" result="hardAlpha"/>
<feOffset dx="-2" dy="-2"/>
<feGaussianBlur stdDeviation="1.5"/>
<feComposite in2="hardAlpha" operator="arithmetic" k2="-1" k3="1"/>
<feColorMatrix type="matrix" values="0 0 0 0 0.202066 0 0 0 0 0.265654 0 0 0 0 0.429167 0 0 0 0.34 0"/>
<feBlend mode="normal" in2="shape" result="effect1_innerShadow"/>
</filter>
<filter id="filter10_f" x="52.2804" y="393.297" width="69.2363" height="64.4464" filterUnits="userSpaceOnUse" color-interpolation-filters="sRGB">
<feFlood flood-opacity="0" result="BackgroundImageFix"/>
<feBlend mode="normal" in="SourceGraphic" in2="BackgroundImageFix" result="shape"/>
<feGaussianBlur stdDeviation="4.01453" result="effect1_foregroundBlur"/>
</filter>
<filter id="filter11_f" x="-8.0632" y="170.443" width="116.741" height="113.147" filterUnits="userSpaceOnUse" color-interpolation-filters="sRGB">
<feFlood flood-opacity="0" result="BackgroundImageFix"/>
<feBlend mode="normal" in="SourceGraphic" in2="BackgroundImageFix" result="shape"/>
<feGaussianBlur stdDeviation="5.62034" result="effect1_foregroundBlur"/>
</filter>
<radialGradient id="paint0_radial" cx="0" cy="0" r="1" gradientUnits="userSpaceOnUse" gradientTransform="translate(403.212 271.288) rotate(-141.402) scale(231.663 330.144)">
<stop stop-color="#6691FF"/>
<stop offset="1" stop-color="#2F69FF"/>
</radialGradient>
<linearGradient id="paint1_linear" x1="-40.1672" y1="288.444" x2="414.519" y2="53.273" gradientUnits="userSpaceOnUse">
<stop stop-color="white" stop-opacity="0.42"/>
<stop offset="1" stop-color="white" stop-opacity="0"/>
</linearGradient>
<radialGradient id="paint2_radial" cx="0" cy="0" r="1" gradientUnits="userSpaceOnUse" gradientTransform="translate(403.212 271.288) rotate(-141.402) scale(231.663 330.144)">
<stop stop-color="#6691FF"/>
<stop offset="1" stop-color="#2F69FF"/>
</radialGradient>
<radialGradient id="paint3_radial" cx="0" cy="0" r="1" gradientUnits="userSpaceOnUse" gradientTransform="translate(342.377 71.8712) rotate(172.438) scale(6.63775 3.84153)">
<stop stop-color="#E394FF"/>
<stop offset="1" stop-color="#C92FFF"/>
</radialGradient>
<radialGradient id="paint4_radial" cx="0" cy="0" r="1" gradientUnits="userSpaceOnUse" gradientTransform="translate(342.399 71.8204) rotate(51.928) scale(9.75455 4.39277)">
<stop stop-color="#F3CEFF"/>
<stop offset="1" stop-color="#DF83FF"/>
</radialGradient>
<radialGradient id="paint5_radial" cx="0" cy="0" r="1" gradientUnits="userSpaceOnUse" gradientTransform="translate(342.381 71.8603) rotate(-65.1222) scale(6.46347 5.01811)">
<stop stop-color="#E18DFF"/>
<stop offset="1" stop-color="#9F11D1"/>
</radialGradient>
<radialGradient id="paint6_radial" cx="0" cy="0" r="1" gradientUnits="userSpaceOnUse" gradientTransform="translate(86.8776 244.162) rotate(172.438) scale(27.3883 15.8507)">
<stop stop-color="#E394FF"/>
<stop offset="1" stop-color="#C92FFF"/>
</radialGradient>
<radialGradient id="paint7_radial" cx="0" cy="0" r="1" gradientUnits="userSpaceOnUse" gradientTransform="translate(86.9737 243.954) rotate(51.928) scale(40.2487 18.1252)">
<stop stop-color="#F3CEFF"/>
<stop offset="1" stop-color="#DF83FF"/>
</radialGradient>
<radialGradient id="paint8_radial" cx="0" cy="0" r="1" gradientUnits="userSpaceOnUse" gradientTransform="translate(86.8992 244.12) rotate(-65.1223) scale(26.6692 20.7054)">
<stop stop-color="#E18DFF"/>
<stop offset="1" stop-color="#9F11D1"/>
</radialGradient>
<radialGradient id="paint9_radial" cx="0" cy="0" r="1" gradientUnits="userSpaceOnUse" gradientTransform="translate(66.1843 147.353) rotate(108.159) scale(8.38734 4.86461)">
<stop stop-color="white"/>
<stop offset="1" stop-color="#C8D7FF"/>
</radialGradient>
<radialGradient id="paint10_radial" cx="0" cy="0" r="1" gradientUnits="userSpaceOnUse" gradientTransform="translate(66.1391 147.299) rotate(-12.3131) scale(12.3477 5.55273)">
<stop stop-color="#F9FAFF"/>
<stop offset="1" stop-color="#ACC3FF"/>
</radialGradient>
<radialGradient id="paint11_radial" cx="0" cy="0" r="1" gradientUnits="userSpaceOnUse" gradientTransform="translate(60.9788 141.027) rotate(50.5267) scale(8.16346 14.1429)">
<stop stop-color="#D5E0FF"/>
<stop offset="1" stop-color="white"/>
</radialGradient>
<linearGradient id="paint12_linear" x1="372.935" y1="213.56" x2="377.775" y2="201.16" gradientUnits="userSpaceOnUse">
<stop stop-color="#C60F0F"/>
<stop offset="1" stop-color="#FF6161"/>
</linearGradient>
<linearGradient id="paint13_linear" x1="391.485" y1="196.386" x2="376.865" y2="200.355" gradientUnits="userSpaceOnUse">
<stop stop-color="#FF2C2C"/>
<stop offset="1" stop-color="#FF8A8A"/>
</linearGradient>
<linearGradient id="paint14_linear" x1="366.216" y1="190.825" x2="377.117" y2="200.504" gradientUnits="userSpaceOnUse">
<stop stop-color="#FF7171"/>
<stop offset="1" stop-color="#FFBEBE"/>
</linearGradient>
<linearGradient id="paint15_linear" x1="19.3826" y1="83.4345" x2="50.2925" y2="45.6616" gradientUnits="userSpaceOnUse">
<stop stop-color="#FF9E2C"/>
<stop offset="1" stop-color="#FFC98A"/>
</linearGradient>
<linearGradient id="paint16_linear" x1="50.6404" y1="46.5797" x2="97.3859" y2="54.6336" gradientUnits="userSpaceOnUse">
<stop stop-color="#FFB55F"/>
<stop offset="1" stop-color="#C6720F"/>
</linearGradient>
<linearGradient id="paint17_linear" x1="34.6639" y1="0.283412" x2="50.2721" y2="45.6282" gradientUnits="userSpaceOnUse">
<stop stop-color="#FFBE71"/>
<stop offset="1" stop-color="#FFE1BE"/>
</linearGradient>
<radialGradient id="paint18_radial" cx="0" cy="0" r="1" gradientUnits="userSpaceOnUse" gradientTransform="translate(210.325 137.337) rotate(147.609) scale(33.6642 19.4956)">
<stop stop-color="white"/>
<stop offset="1" stop-color="#C8D7FF"/>
</radialGradient>
<radialGradient id="paint19_radial" cx="0" cy="0" r="1" gradientUnits="userSpaceOnUse" gradientTransform="translate(210.325 137.056) rotate(27.0827) scale(49.5127 22.2745)">
<stop stop-color="#F9FAFF"/>
<stop offset="1" stop-color="#ACC3FF"/>
</radialGradient>
<radialGradient id="paint20_radial" cx="0" cy="0" r="1" gradientUnits="userSpaceOnUse" gradientTransform="translate(210.324 104.494) rotate(90) scale(32.7247 56.7503)">
<stop stop-color="#D5E0FF"/>
<stop offset="1" stop-color="white"/>
</radialGradient>
<linearGradient id="paint21_linear" x1="195.08" y1="146.696" x2="210.315" y2="137.292" gradientUnits="userSpaceOnUse">
<stop stop-color="#FF9E2C"/>
<stop offset="1" stop-color="#FFC98A"/>
</linearGradient>
<linearGradient id="paint22_linear" x1="210.324" y1="137.65" x2="225.561" y2="146.03" gradientUnits="userSpaceOnUse">
<stop stop-color="#FFB55F"/>
<stop offset="1" stop-color="#C6720F"/>
</linearGradient>
<linearGradient id="paint23_linear" x1="210.325" y1="119.695" x2="210.325" y2="137.277" gradientUnits="userSpaceOnUse">
<stop stop-color="#FFBE71"/>
<stop offset="1" stop-color="#FFE1BE"/>
</linearGradient>
<radialGradient id="paint24_radial" cx="0" cy="0" r="1" gradientUnits="userSpaceOnUse" gradientTransform="translate(403.212 361.988) rotate(-141.402) scale(231.663 330.144)">
<stop stop-color="#6691FF"/>
<stop offset="1" stop-color="#2F69FF"/>
</radialGradient>
<linearGradient id="paint25_linear" x1="-40.1672" y1="379.145" x2="414.519" y2="143.973" gradientUnits="userSpaceOnUse">
<stop stop-color="white" stop-opacity="0.42"/>
<stop offset="1" stop-color="white" stop-opacity="0"/>
</linearGradient>
<radialGradient id="paint26_radial" cx="0" cy="0" r="1" gradientUnits="userSpaceOnUse" gradientTransform="translate(403.212 361.988) rotate(-141.402) scale(231.663 330.144)">
<stop stop-color="#6691FF"/>
<stop offset="1" stop-color="#2F69FF"/>
</radialGradient>
<radialGradient id="paint27_radial" cx="0" cy="0" r="1" gradientUnits="userSpaceOnUse" gradientTransform="translate(342.377 162.572) rotate(172.438) scale(6.63775 3.84153)">
<stop stop-color="#E394FF"/>
<stop offset="1" stop-color="#C92FFF"/>
</radialGradient>
<radialGradient id="paint28_radial" cx="0" cy="0" r="1" gradientUnits="userSpaceOnUse" gradientTransform="translate(342.399 162.521) rotate(51.928) scale(9.75455 4.39277)">
<stop stop-color="#F3CEFF"/>
<stop offset="1" stop-color="#DF83FF"/>
</radialGradient>
<radialGradient id="paint29_radial" cx="0" cy="0" r="1" gradientUnits="userSpaceOnUse" gradientTransform="translate(342.381 162.561) rotate(-65.1222) scale(6.46347 5.01811)">
<stop stop-color="#E18DFF"/>
<stop offset="1" stop-color="#9F11D1"/>
</radialGradient>
<radialGradient id="paint30_radial" cx="0" cy="0" r="1" gradientUnits="userSpaceOnUse" gradientTransform="translate(86.8776 334.863) rotate(172.438) scale(27.3883 15.8507)">
<stop stop-color="#E394FF"/>
<stop offset="1" stop-color="#C92FFF"/>
</radialGradient>
<radialGradient id="paint31_radial" cx="0" cy="0" r="1" gradientUnits="userSpaceOnUse" gradientTransform="translate(86.9737 334.655) rotate(51.928) scale(40.2487 18.1252)">
<stop stop-color="#F3CEFF"/>
<stop offset="1" stop-color="#DF83FF"/>
</radialGradient>
<radialGradient id="paint32_radial" cx="0" cy="0" r="1" gradientUnits="userSpaceOnUse" gradientTransform="translate(86.8992 334.82) rotate(-65.1223) scale(26.6692 20.7054)">
<stop stop-color="#E18DFF"/>
<stop offset="1" stop-color="#9F11D1"/>
</radialGradient>
<radialGradient id="paint33_radial" cx="0" cy="0" r="1" gradientUnits="userSpaceOnUse" gradientTransform="translate(66.1843 238.053) rotate(108.159) scale(8.38734 4.86461)">
<stop stop-color="white"/>
<stop offset="1" stop-color="#C8D7FF"/>
</radialGradient>
<radialGradient id="paint34_radial" cx="0" cy="0" r="1" gradientUnits="userSpaceOnUse" gradientTransform="translate(66.1391 237.999) rotate(-12.3131) scale(12.3477 5.55273)">
<stop stop-color="#F9FAFF"/>
<stop offset="1" stop-color="#ACC3FF"/>
</radialGradient>
<radialGradient id="paint35_radial" cx="0" cy="0" r="1" gradientUnits="userSpaceOnUse" gradientTransform="translate(60.9788 231.727) rotate(50.5267) scale(8.16346 14.1429)">
<stop stop-color="#D5E0FF"/>
<stop offset="1" stop-color="white"/>
</radialGradient>
<linearGradient id="paint36_linear" x1="372.935" y1="304.26" x2="377.775" y2="291.86" gradientUnits="userSpaceOnUse">
<stop stop-color="#C60F0F"/>
<stop offset="1" stop-color="#FF6161"/>
</linearGradient>
<linearGradient id="paint37_linear" x1="391.485" y1="287.086" x2="376.865" y2="291.056" gradientUnits="userSpaceOnUse">
<stop stop-color="#FF2C2C"/>
<stop offset="1" stop-color="#FF8A8A"/>
</linearGradient>
<linearGradient id="paint38_linear" x1="366.216" y1="281.525" x2="377.117" y2="291.204" gradientUnits="userSpaceOnUse">
<stop stop-color="#FF7171"/>
<stop offset="1" stop-color="#FFBEBE"/>
</linearGradient>
<linearGradient id="paint39_linear" x1="19.3826" y1="174.135" x2="50.2925" y2="136.362" gradientUnits="userSpaceOnUse">
<stop stop-color="#FF9E2C"/>
<stop offset="1" stop-color="#FFC98A"/>
</linearGradient>
<linearGradient id="paint40_linear" x1="50.6404" y1="137.28" x2="97.3859" y2="145.334" gradientUnits="userSpaceOnUse">
<stop stop-color="#FFB55F"/>
<stop offset="1" stop-color="#C6720F"/>
</linearGradient>
<linearGradient id="paint41_linear" x1="34.6639" y1="90.9837" x2="50.2721" y2="136.328" gradientUnits="userSpaceOnUse">
<stop stop-color="#FFBE71"/>
<stop offset="1" stop-color="#FFE1BE"/>
</linearGradient>
<radialGradient id="paint42_radial" cx="0" cy="0" r="1" gradientUnits="userSpaceOnUse" gradientTransform="translate(210.325 228.037) rotate(147.609) scale(33.6642 19.4956)">
<stop stop-color="white"/>
<stop offset="1" stop-color="#C8D7FF"/>
</radialGradient>
<radialGradient id="paint43_radial" cx="0" cy="0" r="1" gradientUnits="userSpaceOnUse" gradientTransform="translate(210.325 227.756) rotate(27.0827) scale(49.5127 22.2745)">
<stop stop-color="#F9FAFF"/>
<stop offset="1" stop-color="#ACC3FF"/>
</radialGradient>
<radialGradient id="paint44_radial" cx="0" cy="0" r="1" gradientUnits="userSpaceOnUse" gradientTransform="translate(210.324 195.194) rotate(90) scale(32.7247 56.7503)">
<stop stop-color="#D5E0FF"/>
<stop offset="1" stop-color="white"/>
</radialGradient>
<linearGradient id="paint45_linear" x1="195.08" y1="237.397" x2="210.315" y2="227.992" gradientUnits="userSpaceOnUse">
<stop stop-color="#FF9E2C"/>
<stop offset="1" stop-color="#FFC98A"/>
</linearGradient>
<linearGradient id="paint46_linear" x1="210.324" y1="228.351" x2="225.561" y2="236.73" gradientUnits="userSpaceOnUse">
<stop stop-color="#FFB55F"/>
<stop offset="1" stop-color="#C6720F"/>
</linearGradient>
<linearGradient id="paint47_linear" x1="210.325" y1="210.395" x2="210.325" y2="227.977" gradientUnits="userSpaceOnUse">
<stop stop-color="#FFBE71"/>
<stop offset="1" stop-color="#FFE1BE"/>
</linearGradient>
<radialGradient id="paint48_radial" cx="0" cy="0" r="1" gradientUnits="userSpaceOnUse" gradientTransform="translate(403.212 452.688) rotate(-141.402) scale(231.663 330.144)">
<stop stop-color="#6691FF"/>
<stop offset="1" stop-color="#2F69FF"/>
</radialGradient>
<linearGradient id="paint49_linear" x1="-40.1672" y1="469.845" x2="414.519" y2="234.674" gradientUnits="userSpaceOnUse">
<stop stop-color="white" stop-opacity="0.42"/>
<stop offset="1" stop-color="white" stop-opacity="0"/>
</linearGradient>
<radialGradient id="paint50_radial" cx="0" cy="0" r="1" gradientUnits="userSpaceOnUse" gradientTransform="translate(403.212 452.688) rotate(-141.402) scale(231.663 330.144)">
<stop stop-color="#6691FF"/>
<stop offset="1" stop-color="#2F69FF"/>
</radialGradient>
<radialGradient id="paint51_radial" cx="0" cy="0" r="1" gradientUnits="userSpaceOnUse" gradientTransform="translate(342.377 253.272) rotate(172.438) scale(6.63775 3.84153)">
<stop stop-color="#E394FF"/>
<stop offset="1" stop-color="#C92FFF"/>
</radialGradient>
<radialGradient id="paint52_radial" cx="0" cy="0" r="1" gradientUnits="userSpaceOnUse" gradientTransform="translate(342.399 253.221) rotate(51.928) scale(9.75455 4.39277)">
<stop stop-color="#F3CEFF"/>
<stop offset="1" stop-color="#DF83FF"/>
</radialGradient>
<radialGradient id="paint53_radial" cx="0" cy="0" r="1" gradientUnits="userSpaceOnUse" gradientTransform="translate(342.381 253.261) rotate(-65.1222) scale(6.46347 5.01811)">
<stop stop-color="#E18DFF"/>
<stop offset="1" stop-color="#9F11D1"/>
</radialGradient>
<radialGradient id="paint54_radial" cx="0" cy="0" r="1" gradientUnits="userSpaceOnUse" gradientTransform="translate(86.8776 425.563) rotate(172.438) scale(27.3883 15.8507)">
<stop stop-color="#E394FF"/>
<stop offset="1" stop-color="#C92FFF"/>
</radialGradient>
<radialGradient id="paint55_radial" cx="0" cy="0" r="1" gradientUnits="userSpaceOnUse" gradientTransform="translate(86.9737 425.355) rotate(51.928) scale(40.2487 18.1252)">
<stop stop-color="#F3CEFF"/>
<stop offset="1" stop-color="#DF83FF"/>
</radialGradient>
<radialGradient id="paint56_radial" cx="0" cy="0" r="1" gradientUnits="userSpaceOnUse" gradientTransform="translate(86.8992 425.52) rotate(-65.1223) scale(26.6692 20.7054)">
<stop stop-color="#E18DFF"/>
<stop offset="1" stop-color="#9F11D1"/>
</radialGradient>
<radialGradient id="paint57_radial" cx="0" cy="0" r="1" gradientUnits="userSpaceOnUse" gradientTransform="translate(66.1843 328.753) rotate(108.159) scale(8.38734 4.86461)">
<stop stop-color="white"/>
<stop offset="1" stop-color="#C8D7FF"/>
</radialGradient>
<radialGradient id="paint58_radial" cx="0" cy="0" r="1" gradientUnits="userSpaceOnUse" gradientTransform="translate(66.1391 328.7) rotate(-12.3131) scale(12.3477 5.55273)">
<stop stop-color="#F9FAFF"/>
<stop offset="1" stop-color="#ACC3FF"/>
</radialGradient>
<radialGradient id="paint59_radial" cx="0" cy="0" r="1" gradientUnits="userSpaceOnUse" gradientTransform="translate(60.9788 322.427) rotate(50.5267) scale(8.16346 14.1429)">
<stop stop-color="#D5E0FF"/>
<stop offset="1" stop-color="white"/>
</radialGradient>
<linearGradient id="paint60_linear" x1="372.935" y1="394.961" x2="377.775" y2="382.56" gradientUnits="userSpaceOnUse">
<stop stop-color="#C60F0F"/>
<stop offset="1" stop-color="#FF6161"/>
</linearGradient>
<linearGradient id="paint61_linear" x1="391.485" y1="377.787" x2="376.865" y2="381.756" gradientUnits="userSpaceOnUse">
<stop stop-color="#FF2C2C"/>
<stop offset="1" stop-color="#FF8A8A"/>
</linearGradient>
<linearGradient id="paint62_linear" x1="366.216" y1="372.226" x2="377.117" y2="381.905" gradientUnits="userSpaceOnUse">
<stop stop-color="#FF7171"/>
<stop offset="1" stop-color="#FFBEBE"/>
</linearGradient>
<linearGradient id="paint63_linear" x1="19.3826" y1="264.835" x2="50.2925" y2="227.062" gradientUnits="userSpaceOnUse">
<stop stop-color="#FF9E2C"/>
<stop offset="1" stop-color="#FFC98A"/>
</linearGradient>
<linearGradient id="paint64_linear" x1="50.6404" y1="227.98" x2="97.3859" y2="236.034" gradientUnits="userSpaceOnUse">
<stop stop-color="#FFB55F"/>
<stop offset="1" stop-color="#C6720F"/>
</linearGradient>
<linearGradient id="paint65_linear" x1="34.6639" y1="181.684" x2="50.2721" y2="227.029" gradientUnits="userSpaceOnUse">
<stop stop-color="#FFBE71"/>
<stop offset="1" stop-color="#FFE1BE"/>
</linearGradient>
<radialGradient id="paint66_radial" cx="0" cy="0" r="1" gradientUnits="userSpaceOnUse" gradientTransform="translate(210.325 318.737) rotate(147.609) scale(33.6642 19.4956)">
<stop stop-color="white"/>
<stop offset="1" stop-color="#C8D7FF"/>
</radialGradient>
<radialGradient id="paint67_radial" cx="0" cy="0" r="1" gradientUnits="userSpaceOnUse" gradientTransform="translate(210.325 318.456) rotate(27.0827) scale(49.5127 22.2745)">
<stop stop-color="#F9FAFF"/>
<stop offset="1" stop-color="#ACC3FF"/>
</radialGradient>
<radialGradient id="paint68_radial" cx="0" cy="0" r="1" gradientUnits="userSpaceOnUse" gradientTransform="translate(210.324 285.895) rotate(90) scale(32.7247 56.7503)">
<stop stop-color="#D5E0FF"/>
<stop offset="1" stop-color="white"/>
</radialGradient>
<linearGradient id="paint69_linear" x1="195.08" y1="328.097" x2="210.315" y2="318.692" gradientUnits="userSpaceOnUse">
<stop stop-color="#FF9E2C"/>
<stop offset="1" stop-color="#FFC98A"/>
</linearGradient>
<linearGradient id="paint70_linear" x1="210.324" y1="319.051" x2="225.561" y2="327.43" gradientUnits="userSpaceOnUse">
<stop stop-color="#FFB55F"/>
<stop offset="1" stop-color="#C6720F"/>
</linearGradient>
<linearGradient id="paint71_linear" x1="210.325" y1="301.096" x2="210.325" y2="318.678" gradientUnits="userSpaceOnUse">
<stop stop-color="#FFBE71"/>
<stop offset="1" stop-color="#FFE1BE"/>
</linearGradient>
</defs>
</svg>
