<svg width="32" height="32" viewBox="0 0 32 32" fill="none" xmlns="http://www.w3.org/2000/svg">
<path fill-rule="evenodd" clip-rule="evenodd" d="M0.871948 4.36808C0 6.07937 0 8.31958 0 12.8V19.2C0 23.6804 0 25.9206 0.871948 27.6319C1.63893 29.1372 2.86278 30.3611 4.36808 31.1281C6.07937 32 8.31958 32 12.8 32H19.2C23.6804 32 25.9206 32 27.6319 31.1281C29.1372 30.3611 30.3611 29.1372 31.1281 27.6319C32 25.9206 32 23.6804 32 19.2V12.8C32 8.31958 32 6.07937 31.1281 4.36808C30.3611 2.86278 29.1372 1.63893 27.6319 0.871948C25.9206 0 23.6804 0 19.2 0H12.8C8.31958 0 6.07937 0 4.36808 0.871948C2.86278 1.63893 1.63893 2.86278 0.871948 4.36808ZM16.0402 6.3999C18.5974 6.40096 20.9977 7.39178 22.8026 9.19014C24.6076 10.9884 25.6011 13.3787 25.6 15.9209C25.598 21.1667 21.3091 25.4349 16.0403 25.4349H16.0363C14.4364 25.4344 12.8643 25.0349 11.4679 24.2769L6.40002 25.5999L7.75628 20.6698C6.91966 19.227 6.47951 17.5901 6.48021 15.9133C6.48233 10.6678 10.7708 6.3999 16.0402 6.3999ZM20.3986 17.9056C20.1598 17.7865 18.9854 17.2116 18.7663 17.1322C18.5476 17.0528 18.3881 17.0133 18.229 17.2512C18.0697 17.4891 17.612 18.0247 17.4726 18.1832C17.3332 18.3419 17.194 18.3618 16.9551 18.2428C16.9161 18.2233 16.863 18.2004 16.7975 18.1721C16.4613 18.027 15.7977 17.7405 15.0341 17.0628C14.3241 16.4324 13.8447 15.654 13.7053 15.4161C13.5806 15.2028 13.6783 15.0873 13.7762 14.9716L13.7762 14.9715L13.7763 14.9715C13.7877 14.958 13.7991 14.9445 13.8101 14.9309C14.0687 14.6113 14.3276 14.2763 14.4072 14.1178C14.4869 13.9591 14.447 13.8202 14.3872 13.7013C14.3472 13.6214 14.1188 13.0681 13.9128 12.5688C13.8119 12.3242 13.7163 12.0926 13.6509 11.9361C13.4795 11.5268 13.306 11.5279 13.1667 11.5287C13.1483 11.5288 13.1305 11.5289 13.1134 11.528C12.9742 11.5211 12.8149 11.5197 12.6555 11.5197C12.4963 11.5197 12.2375 11.5791 12.0185 11.8172C12.0046 11.8324 11.9891 11.8488 11.9723 11.8667L11.9718 11.8673L11.9717 11.8673C11.7229 12.1316 11.1826 12.7054 11.1826 13.8004C11.1826 14.9638 12.0287 16.0879 12.1558 16.2567L12.1579 16.2596C12.1657 16.27 12.1798 16.29 12.1998 16.3186C12.4859 16.7269 13.9993 18.8869 16.2385 19.849C16.8084 20.0942 17.2532 20.2403 17.6003 20.3499C18.1725 20.5308 18.6931 20.5053 19.1048 20.4441C19.5638 20.3758 20.5179 19.869 20.7171 19.3137C20.9161 18.7584 20.9161 18.2825 20.8563 18.1832C20.8084 18.1035 20.6961 18.0495 20.5299 17.9696C20.4893 17.9501 20.4455 17.929 20.3986 17.9056Z" fill="#FAFAFF"/>
</svg>
